<?xml version="1.0" standalone="no"?>
<!DOCTYPE svg PUBLIC "-//W3C//DTD SVG 1.1//EN" "http://www.w3.org/Graphics/SVG/1.1/DTD/svg11.dtd" >
<svg>
<metadata>
Created by FontForge 20090914 at Tue Aug 14 16:38:12 2018
 By www-data
</metadata>
<defs>
<font id="Columbina" horiz-adv-x="537" >
  <font-face 
    font-family="Columbina"
    font-weight="500"
    font-stretch="normal"
    units-per-em="1000"
    panose-1="2 0 5 0 0 0 0 0 0 0"
    ascent="800"
    descent="-200"
    x-height="506"
    cap-height="699.997"
    bbox="-35 -182 1122 895.998"
    underline-thickness="50"
    underline-position="-75"
    unicode-range="U+0020-U+2122"
  />
<missing-glyph horiz-adv-x="214" 
 />
    <glyph glyph-name=".notdef" horiz-adv-x="214" 
 />
    <glyph glyph-name="space" unicode=" " horiz-adv-x="214" 
 />
    <glyph glyph-name="exclam" unicode="!" horiz-adv-x="275" 
d="M136 688c24.667 0 45.166 -8.66504 61.499 -25.998s24.5 -38 24.5 -62c0 -34.667 -6.66699 -86.334 -20 -155.001s-28.333 -157 -45 -265h-38c-8 54.667 -16 104 -24 148l-21.5 118c-6.33301 34.667 -11.5 64.667 -15.5 90s-6 46.666 -6 63.999c0 12 2.33301 23.333 7 34
s10.834 20 18.501 28s16.5 14.333 26.5 19s20.667 7 32 7zM55.999 76.002c0 24 7.83008 44.333 23.4971 61s34.834 25 57.501 25s42 -8.33301 58 -25s24 -37 24 -61c0 -12 -2.16699 -23.167 -6.5 -33.5s-10.166 -19.333 -17.499 -27s-16 -13.667 -26 -18
s-20.667 -6.5 -32 -6.5s-21.833 2.16699 -31.5 6.5s-18.167 10.333 -25.5 18s-13.166 16.667 -17.499 27s-6.5 21.5 -6.5 33.5z" />
    <glyph glyph-name="quotedbl" unicode="&#x22;" horiz-adv-x="415" 
d="M181 612c0 -20 -4.66699 -45.667 -14 -77s-29.333 -68 -60 -110c-28.667 42 -47.5 78.667 -56.5 110s-13.5 57 -13.5 77c0 30 6.16699 53.333 18.5 70s29.5 25 51.5 25s39.833 -8.33301 53.5 -25s20.5 -40 20.5 -70zM378 612c0 -20 -4.66602 -45.667 -13.999 -77
s-29.333 -68 -60 -110c-28 42 -46.5 78.667 -55.5 110s-13.5 57 -13.5 77c0 30 6.16699 53.333 18.5 70s29.166 25 50.499 25c22 0 39.833 -8.33301 53.5 -25s20.5 -40 20.5 -70z" />
    <glyph glyph-name="numbersign" unicode="#" horiz-adv-x="514" 
d="M110 284l31 127h-87c7.33301 12.667 12.333 25.167 15 37.5s4 25.5 4 39.5h87l26 107h82l-26 -107h97l26 107h82l-26 -107h87c-12.667 -22.667 -19 -48.334 -19 -77.001h-87l-31 -127h88c-12 -23.333 -18 -49 -18 -77h-89l-23 -96h-82l23 96h-97l-23 -96h-82l23 96h-85
c12.667 24.667 19 50.334 19 77.001h85zM192 284h97l31 127h-97z" />
    <glyph glyph-name="dollar" unicode="$" horiz-adv-x="611" 
d="M363 741l-0.00195312 -47c18.667 -4 37 -9.5 55 -16.5s34.167 -15.667 48.5 -26s25.833 -22.333 34.5 -36s13 -29.167 13 -46.5s-5.66699 -31.833 -17 -43.5s-24.666 -17.5 -39.999 -17.5c-16 0 -29.833 6.83301 -41.5 20.5s-17.834 29.5 -18.501 47.5
c-2 33.333 -13.333 56 -34 68v-188c24 -8.66699 47.333 -19.5 70 -32.5s42.834 -29 60.501 -48s32 -41.5 43 -67.5s16.5 -56 16.5 -90c0 -24.667 -4.5 -48.667 -13.5 -72s-21.833 -44.666 -38.5 -63.999s-36.667 -35.833 -60 -49.5s-49.333 -23.167 -78 -28.5v-79h-39v75
c-3.33301 -0.666992 -6.16602 -1 -8.49902 -1h-8.5c-8.66699 0 -14 0.333008 -16 1v-75h-38v78c-25.333 4 -50 10.667 -74 20s-45.5 21.166 -64.5 35.499s-34.333 30.833 -46 49.5s-17.5 39 -17.5 61c0 20 6.16699 36.667 18.5 50s27.166 20 44.499 20
c30 0 53.333 -10.667 70 -32s26.334 -49 29.001 -83c1.33301 -19.333 5.33301 -34.5 12 -45.5s16 -19.167 28 -24.5v263c-28 10 -53.333 21.333 -76 34s-42.167 27 -58.5 43s-29 34 -38 54s-13.5 42 -13.5 66c0 48 16.333 88.333 49 121s78.334 53 137.001 61v45h38v-41h13
h10c3.33301 0 6.66602 -0.333008 9.99902 -1v42h39zM460.998 164c0 26.667 -7.66699 48.833 -23 66.5s-40.333 33.834 -75 48.501v-226c28.667 7.33301 52.167 20.166 70.5 38.499s27.5 42.5 27.5 72.5zM173.998 575.999c0 -19.333 5.33301 -35.168 16 -47.501
s31.667 -24.166 63 -35.499v157c-20 -4.66699 -38.167 -12.5 -54.5 -23.5s-24.5 -27.833 -24.5 -50.5zM290.998 304.997v-259h33v248zM321.998 469.997c0.666992 -0.666992 1.33105 -1 1.99805 -1v185c-3.33301 0 -6.66602 0.166992 -9.99902 0.5s-6.66602 0.5 -9.99902 0.5
h-13v-176z" />
    <glyph glyph-name="percent" unicode="%" horiz-adv-x="639" 
d="M485 700l-145.004 -362l-1 -5c0 -3.33301 1.5 -6.33301 4.5 -9s6.16699 -4 9.5 -4c2.66699 0 4.66699 1 6 3c13.333 20.667 30.166 37.167 50.499 49.5s42.5 18.5 66.5 18.5c20 0 38.833 -4.33301 56.5 -13s33 -20.334 46 -35.001s23.167 -31.834 30.5 -51.501
s11 -40.834 11 -63.501s-3.66699 -44 -11 -64s-17.5 -37.5 -30.5 -52.5s-28.333 -26.833 -46 -35.5s-36.5 -13 -56.5 -13s-38.667 4.33301 -56 13s-32.5 20.5 -45.5 35.5s-23.333 32.5 -31 52.5s-11.5 41.333 -11.5 64v17c0 4 -1.66699 7.83301 -5 11.5
s-6.66602 5.5 -9.99902 5.5c-5.33301 0 -8.33301 -2.33301 -9 -7l-103 -255h-57l152 379c0 3.33301 -3.33301 5 -10 5c-13.333 -21.333 -30.166 -38.666 -50.499 -51.999s-43.166 -20 -68.499 -20c-20 0 -38.667 4.33301 -56 13s-32.5 20.5 -45.5 35.5
s-23.333 32.5 -31 52.5s-11.5 41.333 -11.5 64s3.83301 43.834 11.5 63.501s18 36.834 31 51.501s28.167 26.167 45.5 34.5s36 12.5 56 12.5c14 0 26 -1.5 36 -4.5s19.333 -6.5 28 -10.5s17.334 -7.5 26.001 -10.5s19 -4.5 31 -4.5c8 0 18.333 1.83301 31 5.5
s25.834 9.33398 39.501 17.001s26.5 17.167 38.5 28.5s21 24.666 27 39.999h57zM315.996 477c0 -4.66699 -0.166992 -9.16797 -0.5 -13.501s-0.833008 -8.16602 -1.5 -11.499c0 -4 4.33301 -6 13 -6l64 163c-16.667 -14 -34 -23.5 -52 -28.5s-33.667 -7.5 -47 -7.5h-5
c19.333 -27.333 29 -59.333 29 -96zM211.996 538.999c0 17.333 -3.16699 31.666 -9.5 42.999s-16.833 17 -31.5 17s-25.167 -5.66699 -31.5 -17s-9.5 -25.666 -9.5 -42.999v-127c0 -17.333 3.16699 -31.666 9.5 -42.999s16.833 -17 31.5 -17s25.167 5.66699 31.5 17
s9.5 25.666 9.5 42.999v127zM516.996 289.999c0 17.333 -3.16699 31.666 -9.5 42.999s-16.833 17 -31.5 17s-25.167 -5.66699 -31.5 -17s-9.5 -25.666 -9.5 -42.999v-126c0 -17.333 3.16699 -31.5 9.5 -42.5s16.833 -16.5 31.5 -16.5s25.167 5.5 31.5 16.5
s9.5 25.167 9.5 42.5v126z" />
    <glyph glyph-name="ampersand" unicode="&#x26;" horiz-adv-x="817" 
d="M218 416c-13.333 19.333 -22.6689 36.168 -28.002 50.501s-8 27.166 -8 38.499c0 20 5 39.167 15 57.5s23.833 34.666 41.5 48.999s38.167 25.666 61.5 33.999s48.333 12.5 75 12.5c24.667 0 47.834 -3.66699 69.501 -11s40.667 -17.333 57 -30
s29.166 -27.667 38.499 -45s14 -35.666 14 -54.999c0 -13.333 -2.33301 -25.833 -7 -37.5s-11 -21.667 -19 -30s-17.5 -15 -28.5 -20s-22.833 -7.5 -35.5 -7.5c-10 0 -19.667 2 -29 6s-17.5 9.33301 -24.5 16s-12.5 14.334 -16.5 23.001s-6 18 -6 28c0 18 5 28.667 15 32
c6.66699 -8.66699 16 -13 28 -13c8.66699 0 16.167 3.66699 22.5 11s9.5 16.666 9.5 27.999c0 16 -7 29.167 -21 39.5s-29.667 15.5 -47 15.5c-19.333 0 -35.833 -6.66699 -49.5 -20s-20.5 -27.666 -20.5 -42.999c0 -6 1.66699 -13.833 5 -23.5
s7.66602 -19.834 12.999 -30.501s11.333 -21.667 18 -33s13.667 -22 21 -32l160 -223c38 32 68.333 63.667 91 95s38.334 68 47.001 110c16 -30.667 35.833 -60.167 59.5 -88.5s47.834 -52.166 72.501 -71.499h-28c-17.333 0 -36 -2.16699 -56 -6.5s-39.667 -10.333 -59 -18
s-37.5 -16.667 -54.5 -27s-31.5 -21.5 -43.5 -33.5l38 -52c17.333 -23.333 38.5 -45.333 63.5 -66s52.5 -35.667 82.5 -45h-309c7.33301 5.33301 14.5 12 21.5 20s10.5 16.667 10.5 26c0 7.33301 -2 14 -6 20s-8.66699 11.667 -14 17c-16 -12.667 -33.667 -25.5 -53 -38.5
s-39.5 -24.667 -60.5 -35s-42.5 -18.833 -64.5 -25.5s-43.667 -10 -65 -10s-42.666 5.16699 -63.999 15.5s-40.833 23.666 -58.5 39.999s-32 34.833 -43 55.5s-16.5 41.667 -16.5 63c0 26 4.5 51.333 13.5 76s22.333 47.334 40 68.001s39.5 38.667 65.5 54s56 27 90 35z
M265.997 349.002c-32.667 -11.333 -57.002 -24.5 -73.002 -39.5s-24 -33.833 -24 -56.5c0 -18.667 4.33301 -37.667 13 -57s20.667 -36.833 36 -52.5s33.333 -28.5 54 -38.5s43.334 -15 68.001 -15c4.66699 0 10.834 1 18.501 3s15.667 4.66699 24 8s16.333 7 24 11
s14.5 8.33301 20.5 13z" />
    <glyph glyph-name="quotesingle" unicode="'" horiz-adv-x="218" 
d="M181 627c0 -28 -4.66699 -58.333 -14 -91s-29.333 -69.667 -60 -111c-28.667 41.333 -47.5 78.333 -56.5 111s-13.5 63 -13.5 91c0 22 6.16699 40.833 18.5 56.5s29.5 23.5 51.5 23.5s39.833 -7.83301 53.5 -23.5s20.5 -34.5 20.5 -56.5z" />
    <glyph glyph-name="parenleft" unicode="(" horiz-adv-x="328" 
d="M222 348c0 -72.667 8.83301 -140.671 26.5 -204.004s42.834 -121 75.501 -173l-6 -7c-36.667 18.667 -70 41.334 -100 68.001s-55.667 56.334 -77 89.001s-37.833 68 -49.5 106s-17.5 77.667 -17.5 119c0 40 5.66699 78.833 17 116.5s27.5 72.834 48.5 105.501
s46 62.334 75 89.001s61.5 49.334 97.5 68.001c3.33301 -4.66699 5.66602 -7.33398 6.99902 -8.00098c-30.667 -50.667 -54.5 -107.167 -71.5 -169.5s-25.5 -128.833 -25.5 -199.5z" />
    <glyph glyph-name="parenright" unicode=")" horiz-adv-x="328" 
d="M106 348c0 70.667 -8.5 137.171 -25.5 199.504s-40.833 118.833 -71.5 169.5c1.33301 0.666992 3.66602 3.33398 6.99902 8.00098c36 -18.667 68.5 -41.334 97.5 -68.001s54 -56.334 75 -89.001s37.167 -67.834 48.5 -105.501s17 -76.5 17 -116.5
c0 -41.333 -5.83301 -81 -17.5 -119s-28.167 -73.333 -49.5 -106s-47 -62.334 -77 -89.001s-63.333 -49.334 -100 -68.001l-6 7c32.667 52 57.834 109.667 75.501 173s26.5 131.333 26.5 204z" />
    <glyph glyph-name="asterisk" unicode="*" horiz-adv-x="428" 
d="M214 752c13.333 -1.33301 26.8369 -7.16406 40.5039 -17.4971s23.167 -20.166 28.5 -29.499c-10.667 -18 -18.167 -35.333 -22.5 -52s-6.5 -36.667 -6.5 -60c21.333 7.33301 39 15.833 53 25.5s28 22.167 42 37.5c10.667 -2.66699 23 -8.83398 37 -18.501
s23.333 -19.834 28 -30.501c0.666992 -2 1 -6.66699 1 -14c0 -12.667 -2.33301 -25.334 -7 -38.001s-10.334 -22 -17.001 -28c-12.667 2.66699 -28 4 -46 4c-11.333 0 -22.5 -0.833008 -33.5 -2.5s-23.167 -4.5 -36.5 -8.5c14 -17.333 27.667 -31.5 41 -42.5
s29.666 -20.833 48.999 -29.5v-4c0 -5.33301 -0.666992 -11.333 -2 -18s-3.16602 -13.5 -5.49902 -20.5s-5.16602 -13.5 -8.49902 -19.5s-7 -11 -11 -15c-6 -3.33301 -13.167 -5.83301 -21.5 -7.5s-16.5 -2.5 -24.5 -2.5c-15.333 0 -28 2.33301 -38 7
c-2 20.667 -6.16699 39 -12.5 55s-16.166 33.333 -29.499 52c-12 -18 -21 -35 -27 -51s-10.333 -34.333 -13 -55c-10 -4.66699 -24 -7 -42 -7c-14.667 0 -28 2.66699 -40 8c-8.66699 8 -15.5 19.333 -20.5 34s-7.5 27.667 -7.5 39v7c19.333 8 35.666 17.5 48.999 28.5
s26.666 25.5 39.999 43.5c-12.667 3.33301 -24.334 6 -35.001 8s-21.667 3 -33 3c-7.33301 0 -14.833 -0.5 -22.5 -1.5s-15.5 -2.16699 -23.5 -3.5c-5.33301 7.33301 -10.833 17.833 -16.5 31.5s-8.5 26.167 -8.5 37.5c0 4.66699 0.333008 7.66699 1 9
c2.66699 6 6.66699 11.833 12 17.5s11.166 11 17.499 16s12.666 9 18.999 12s12.166 5.16699 17.499 6.5c14 -15.333 28.5 -27.833 43.5 -37.5s33.167 -18.5 54.5 -26.5c-1.33301 22.667 -4.16602 42.334 -8.49902 59.001s-11.5 34 -21.5 52
c2.66699 4.66699 6.66699 9.66699 12 15s11 10.166 17 14.499s12.333 8.16602 19 11.499s13 5.33301 19 6z" />
    <glyph glyph-name="plus" unicode="+" horiz-adv-x="403" 
d="M163 541h76.999v-153h153c-12 -23.333 -18 -49 -18 -77h-135v-153h-77v153h-153c6.66699 12.667 11.334 25 14.001 37s4 25.333 4 40h135v153z" />
    <glyph glyph-name="comma" unicode="," horiz-adv-x="230" 
d="M34 77c0 22.667 8.16699 41.8359 24.5 57.5029s35.5 23.5 57.5 23.5c23.333 0 42.5 -9.33301 57.5 -28s22.5 -41.334 22.5 -68.001c0 -22.667 -3.33301 -43.834 -10 -63.501s-15 -37.5 -25 -53.5s-20.833 -30.333 -32.5 -43s-22.5 -23.334 -32.5 -32.001
c-8 -6 -13.667 -9 -17 -9c-12 0 -18 6 -18 18c0 2 1.33301 5.66699 4 11s5.66699 11.666 9 18.999s6.33301 15.333 9 24s4 17.334 4 26.001c0 12 -2.83301 22 -8.5 30s-11.667 16 -18 24s-12.333 16.833 -18 26.5s-8.5 22.167 -8.5 37.5z" />
    <glyph glyph-name="hyphen" unicode="-" horiz-adv-x="372" 
d="M354 346c-12.667 -22.667 -19 -48.333 -19 -77h-315c6.66699 12.667 11.5 25 14.5 37s4.5 25.333 4.5 40h315z" />
    <glyph glyph-name="period" unicode="." horiz-adv-x="234" 
d="M35 73c0 23.333 8 43.333 24 60s35.667 25 59 25s43.166 -8.33301 59.499 -25s24.5 -36.667 24.5 -60c0 -24 -8.16699 -44.167 -24.5 -60.5s-36.166 -24.5 -59.499 -24.5s-43 8.16699 -59 24.5s-24 36.5 -24 60.5z" />
    <glyph glyph-name="slash" unicode="/" horiz-adv-x="480" 
d="M505 783l-422 -867h-108l422 867h108z" />
    <glyph glyph-name="zero" unicode="0" horiz-adv-x="595" 
d="M290 679c38.667 0 73.8311 -7.33301 105.498 -22s58.834 -37 81.501 -67s40.334 -67.667 53.001 -113s19 -98.333 19 -159c0 -38 -5.16699 -76.333 -15.5 -115s-26 -73.667 -47 -105s-47.5 -56.833 -79.5 -76.5s-69.333 -29.5 -112 -29.5
c-35.333 0 -68.166 7.33301 -98.499 22s-56.666 36.5 -78.999 65.5s-39.833 65 -52.5 108s-19 92.833 -19 149.5c0 36.667 5 75 15 115s25.167 76.833 45.5 110.5s45.666 61.5 75.999 83.5s66.166 33 107.499 33zM369.997 118c44 0 77.667 13.668 101 41.001s35 64 35 110
c0 38 -8.33301 73.667 -25 107s-38.167 62.666 -64.5 87.999s-56 45.333 -89 60s-65.833 22 -98.5 22c-23.333 0 -43.666 -3.83301 -60.999 -11.5s-31.833 -18 -43.5 -31s-20.334 -28 -26.001 -45s-8.5 -34.833 -8.5 -53.5c0 -33.333 8.33301 -67 25 -101
s38.334 -64.667 65.001 -92s56.667 -49.833 90 -67.5s66.666 -26.5 99.999 -26.5z" />
    <glyph glyph-name="one" unicode="1" horiz-adv-x="292" 
d="M79 501c0 33.333 -3.16699 58.832 -9.5 76.499s-20.166 32.5 -41.499 44.5c36.667 4 69.167 11.833 97.5 23.5s57.5 30.834 87.5 57.501v-607c0 -23.333 2.66699 -42 8 -56s14.666 -27.333 27.999 -40h-203c12 12 20.5 27.167 25.5 45.5s7.5 37.5 7.5 57.5v398z" />
    <glyph glyph-name="two" unicode="2" horiz-adv-x="608" 
d="M35 495c0 18 5.5 37.668 16.5 59.001s27.167 41.333 48.5 60s47.833 34.334 79.5 47.001s68.167 19 109.5 19c38 0 73.167 -5.5 105.5 -16.5s60.333 -26 84 -45s42.167 -41.167 55.5 -66.5s20 -52.333 20 -81c0 -13.333 -1.33301 -27.333 -4 -42s-7.66699 -30 -15 -46
s-17.833 -32.833 -31.5 -50.5s-31.5 -36.167 -53.5 -55.5c-10 -8.66699 -23.167 -19.334 -39.5 -32.001s-33.833 -25.5 -52.5 -38.5l-55.5 -38c-18.333 -12.333 -34.5 -22.5 -48.5 -30.5h100c36 0 69.333 2.5 100 7.5s58.334 16.167 83.001 33.5l15 -6
c-18.667 -23.333 -35 -50.5 -49 -81.5s-24 -61.5 -30 -91.5h-431c44.667 36 87.167 72.5 127.5 109.5s76.5 75.5 108.5 115.5l49 63.5c15.333 20.333 28.666 41.166 39.999 62.499s20.333 43.5 27 66.5s10 48.167 10 75.5c0 20 -3 38.667 -9 56s-14.333 32.5 -25 45.5
s-23.167 23.333 -37.5 31s-29.833 11.5 -46.5 11.5c-12 0 -23.333 -2.5 -34 -7.5s-20 -11.833 -28 -20.5s-14.333 -18.834 -19 -30.501s-7 -23.834 -7 -36.501v-44c0 -25.333 -8.83301 -46.666 -26.5 -63.999s-39.167 -26 -64.5 -26c-20 0 -37 8.33301 -51 25
s-21 37.334 -21 62.001z" />
    <glyph glyph-name="three" unicode="3" horiz-adv-x="588" 
d="M264 -8c-32.667 0 -62.832 4.16309 -90.499 12.4961s-51.667 19.833 -72 34.5s-36.333 32.334 -48 53.001s-17.5 43.667 -17.5 69c0 28.667 8 53 24 73s37 30 63 30c17.333 0 33.166 -6.16699 47.499 -18.5s21.5 -28.166 21.5 -47.499c0 -15.333 -2.5 -27.5 -7.5 -36.5
s-10.667 -16.833 -17 -23.5s-12 -13.667 -17 -21s-7.5 -17 -7.5 -29c0 -8.66699 2.66699 -16.5 8 -23.5s12.166 -13 20.499 -18s17.5 -9 27.5 -12s19.667 -4.5 29 -4.5c28.667 0 53.667 6.33301 75 19s38.833 28.834 52.5 48.501s23.834 41.167 30.501 64.5
s10 45.666 10 66.999c0 16.667 -2.83301 33.167 -8.5 49.5s-14.167 30.833 -25.5 43.5s-25.333 22.834 -42 30.501s-36 11.5 -58 11.5h-34v36h24c12.667 0 25.5 2.33301 38.5 7s24.5 11.334 34.5 20.001s18.167 19 24.5 31s9.5 25.333 9.5 40s-3.5 28.167 -10.5 40.5
s-16.333 23 -28 32s-25 15.833 -40 20.5s-30.833 7 -47.5 7c-30 0 -55.5 -6.83301 -76.5 -20.5s-37.167 -29.167 -48.5 -46.5l-17 19c7.33301 22.667 18.166 42.5 32.499 59.5s30.833 31 49.5 42s38.5 19.333 59.5 25s42.167 8.5 63.5 8.5c62 0 110.833 -12.833 146.5 -38.5
s53.5 -61.5 53.5 -107.5c0 -33.333 -9.66699 -60.5 -29 -81.5s-53 -40.5 -101 -58.5c24.667 -4.66699 48.334 -11.834 71.001 -21.501s42.5 -22.167 59.5 -37.5s30.5 -33.666 40.5 -54.999s15 -45.666 15 -72.999c0 -30.667 -6.66699 -59.334 -20 -86.001
s-32.5 -50 -57.5 -70s-55.333 -35.667 -91 -47s-75.5 -17 -119.5 -17z" />
    <glyph glyph-name="four" unicode="4" horiz-adv-x="570" 
d="M206 691c27.333 0 47.668 -9.66309 61.001 -28.9961s20 -41.333 20 -66c0 -23.333 -4.83301 -50 -14.5 -80s-21.334 -59.5 -35.001 -88.5s-27.5 -55.667 -41.5 -80s-25.333 -42.5 -34 -54.5l-73 -98h239v349c0 13.333 -1 26.833 -3 40.5s-6.66699 25.167 -14 34.5
c26.667 6.66699 53.334 16.5 80.001 29.5s51.334 26.5 74.001 40.5v-494c12.667 0 23 2.33301 31 7s16 11.667 24 21v-110c-6.66699 9.33301 -14.667 17.166 -24 23.499s-19.666 9.5 -30.999 9.5v-25c0 -22 3.5 -42.5 10.5 -61.5s18.167 -36.833 33.5 -53.5
c-8 0.666992 -16 1.16699 -24 1.5s-16.333 0.5 -25 0.5c-11.333 0 -25.5 -1 -42.5 -3s-34.5 -5 -52.5 -9s-35.333 -8.83301 -52 -14.5s-30.334 -11.834 -41.001 -18.501l-15 7c25.333 23.333 43.166 50.666 53.499 81.999s15.5 62.333 15.5 93h-316l64 108
c4.66699 8.66699 10.167 21.167 16.5 37.5s12.166 33.666 17.499 51.999s9.83301 36.333 13.5 54s5.5 32.167 5.5 43.5c0 15.333 -0.5 29 -1.5 41s-2.16699 23.5 -3.5 34.5s-2.5 22 -3.5 33s-1.5 23.167 -1.5 36.5c0 30 7.33301 55.167 22 75.5s37 30.5 67 30.5z" />
    <glyph glyph-name="five" unicode="5" horiz-adv-x="556" 
d="M160 687c23.333 -17.333 49.998 -31.333 79.998 -42s58 -16 84 -16c28 0 54.833 3.5 80.5 10.5s52.5 20.167 80.5 39.5l2 -3c-6 -24 -15.833 -46.5 -29.5 -67.5s-30.334 -39.167 -50.001 -54.5s-41.834 -27.333 -66.501 -36s-50.667 -13 -78 -13
c-20 0 -40.167 1.83301 -60.5 5.5s-38.5 9.5 -54.5 17.5l-39 -111c15.333 8.66699 36.5 15.667 63.5 21s53.167 8 78.5 8c34.667 0 68.334 -5.66699 101.001 -17s61.334 -26.833 86.001 -46.5s44.5 -43 59.5 -70s22.5 -56.167 22.5 -87.5c0 -32 -8 -62.5 -24 -91.5
s-37 -54.5 -63 -76.5s-55.833 -39.5 -89.5 -52.5s-68.167 -19.5 -103.5 -19.5c-44 0 -84.5 5.5 -121.5 16.5s-67.833 25.167 -92.5 42.5c-2.66699 0.666992 -4 3 -4 7c0 8 3.33301 12 10 12c2.66699 0 6.33398 -1.33301 11.001 -4s10.5 -5.5 17.5 -8.5
s15.667 -5.66699 26 -8s22.833 -3.5 37.5 -3.5c32.667 0 63.334 5.83301 92.001 17.5s53.834 27.5 75.501 47.5s38.667 43.5 51 70.5s18.5 55.833 18.5 86.5c0 18 -4.33301 35.167 -13 51.5s-20.334 30.5 -35.001 42.5s-32 21.5 -52 28.5s-41 10.5 -63 10.5
c-34 0 -62.5 -4.5 -85.5 -13.5s-45.167 -22.167 -66.5 -39.5l-7 1z" />
    <glyph glyph-name="six" unicode="6" horiz-adv-x="624" 
d="M394 707c-40.667 -13.333 -74.9961 -32.0029 -102.996 -56.0029s-50.833 -50.5 -68.5 -79.5s-30.334 -59 -38.001 -90s-11.5 -59.833 -11.5 -86.5c0 -45.333 7.5 -88.166 22.5 -128.499s34.167 -75.833 57.5 -106.5s49 -55 77 -73s54.667 -27 80 -27
c12 0 23.5 2.5 34.5 7.5s20.5 12 28.5 21s14.333 19.667 19 32s7 25.5 7 39.5c0 31.333 -5.66699 60.333 -17 87s-27 49.667 -47 69s-43.167 34.333 -69.5 45s-54.5 16 -84.5 16c-11.333 0 -22.5 -0.666992 -33.5 -2s-22.167 -3 -33.5 -5l-5 18c20 5.33301 39 11 57 17
s35.667 13.333 53 22s35 19.334 53 32.001s37 28.334 57 47.001c44 -25.333 80 -59.666 108 -102.999s42 -94 42 -152c0 -38 -6.5 -73.167 -19.5 -105.5s-30.833 -60.333 -53.5 -84s-49.334 -42.167 -80.001 -55.5s-63.334 -20 -98.001 -20
c-38 0 -73.833 8.16699 -107.5 24.5s-63.334 38.833 -89.001 67.5s-46 62.5 -61 101.5s-22.5 81.5 -22.5 127.5c0 44.667 7.83301 89.5 23.5 134.5s38 86.667 67 125s64.167 71.666 105.5 99.999s88 48.5 140 60.5z" />
    <glyph glyph-name="seven" unicode="7" horiz-adv-x="518" 
d="M515 665c-8.66699 -24.667 -21.001 -49.667 -37.001 -75s-33.333 -50.5 -52 -75.5s-36.667 -45.5 -54 -61.5c-20.667 -19.333 -38 -42.166 -52 -68.499s-21 -54.5 -21 -84.5c0 -16 2 -32.167 6 -48.5s8.33301 -32.666 13 -48.999s9 -33 13 -50s6 -34.167 6 -51.5
c0 -16 -2.5 -30.833 -7.5 -44.5s-11.667 -25.667 -20 -36s-18.333 -18.5 -30 -24.5s-23.834 -9 -36.501 -9c-14 0 -27.333 3.5 -40 10.5s-23.667 16.667 -33 29s-16.666 26.666 -21.999 42.999s-8 34.166 -8 53.499c0 30.667 4.33301 60.334 13 89.001s19.334 55 32.001 79
s25.667 45.167 39 63.5s25 32.5 35 42.5l121 131h-198c-28 0 -54 -3.83301 -78 -11.5s-48.333 -19.167 -73 -34.5l-18 -11l-10 10c7.33301 10.667 14.666 23 21.999 37s14.333 29 21 45s12.334 32.667 17.001 50s8 34.666 10 51.999h442z" />
    <glyph glyph-name="eight" unicode="8" horiz-adv-x="612" 
d="M318 688c3.33301 -1.33301 5.00684 -4.66113 5.00684 -9.99414c0 -4.66699 -2.33301 -7 -7 -7c-4 0 -8.33301 0.666992 -13 2s-9.66699 2 -15 2c-24 0 -45 -7.83301 -63 -23.5s-27 -36.167 -27 -61.5c0 -28 14.833 -54.667 44.5 -80s68.5 -48 116.5 -68
c14 7.33301 26.5 16.5 37.5 27.5s16.5 24.167 16.5 39.5c0 22 -7.33301 40.833 -22 56.5s-32.334 23.5 -53.001 23.5c-18.667 0 -38.334 -9 -59.001 -27l-3 1c0 18 3.5 34.167 10.5 48.5s16 26.666 27 36.999s23.167 18.166 36.5 23.499s26.666 8 39.999 8
c18 0 35.167 -3.5 51.5 -10.5s30.666 -16.333 42.999 -28s22 -24.834 29 -39.501s10.5 -30 10.5 -46c0 -16.667 -3.33301 -32.167 -10 -46.5s-15.334 -27.333 -26.001 -39s-23 -21.834 -37 -30.501s-28.333 -15.667 -43 -21c24 -8.66699 46 -19.834 66 -33.501
s37.167 -28.834 51.5 -45.501s25.333 -34.5 33 -53.5s11.5 -38.5 11.5 -58.5c0 -40 -6.66699 -74.833 -20 -104.5s-31.5 -54.5 -54.5 -74.5s-50.167 -35 -81.5 -45s-64.666 -15 -99.999 -15c-38 0 -73.667 5.16699 -107 15.5s-62.166 24.666 -86.499 42.999
s-43.5 40 -57.5 65s-21 52.167 -21 81.5c0 18.667 3.16699 37.167 9.5 55.5s15.666 35.5 27.999 51.5s27.166 30.167 44.499 42.5s37 21.833 59 28.5c-22 17.333 -41.833 39.833 -59.5 67.5s-26.5 58.167 -26.5 91.5c0 18.667 4 38 12 58s19.167 38.333 33.5 55
s31.166 30.334 50.499 41.001s40.666 16 63.999 16c20.667 0 41 -4.33301 61 -13zM137.007 251.005c0 -28 7.99902 -54.332 23.999 -78.999s36.333 -46 61 -64s51.334 -32.333 80.001 -43s56 -16 82 -16c16 0 30.667 2.33301 44 7s24.833 11 34.5 19s17 17.167 22 27.5
s7.5 21.5 7.5 33.5c0 16 -3.33301 30.667 -10 44s-16 25.666 -28 36.999s-26 21.666 -42 30.999s-33 18 -51 26c-28.667 12 -54.167 23.667 -76.5 35s-42.833 23.666 -61.5 36.999c-28 -11.333 -49.333 -24.666 -64 -39.999s-22 -33.666 -22 -54.999z" />
    <glyph glyph-name="nine" unicode="9" horiz-adv-x="595" 
d="M282 681c38 0 73.832 -8.00098 107.499 -24.001s62.834 -38.333 87.501 -67s44.167 -63 58.5 -103s21.5 -83.667 21.5 -131c0 -42 -7.5 -85 -22.5 -129s-36.667 -85.167 -65 -123.5s-62.833 -72.166 -103.5 -101.499s-86.334 -50.333 -137.001 -63l-15 20
c24 8 49.167 20 75.5 36s50.5 36.667 72.5 62s40.167 55.5 54.5 90.5s21.5 75.167 21.5 120.5c0 33.333 -6.33301 69.5 -19 108.5s-29.667 75.167 -51 108.5s-46 61.166 -74 83.499s-57.333 33.5 -88 33.5c-30 0 -52.833 -9.16699 -68.5 -27.5s-23.5 -42.5 -23.5 -72.5
c0 -28 5.83301 -55 17.5 -81s27.667 -49 48 -69s44 -36 71 -48s55.833 -18 86.5 -18c9.33301 0 19 0.833008 29 2.5s19.667 3.5 29 5.5l3 -12c-44 -11.333 -84.667 -26.833 -122 -46.5s-68.333 -44.834 -93 -75.501c-15.333 8.66699 -31.666 20.834 -48.999 36.501
s-33.5 34.334 -48.5 56.001s-27.5 45.667 -37.5 72s-15 54.5 -15 84.5c0 38.667 6.5 74.5 19.5 107.5s30.833 61.667 53.5 86s49.167 43.5 79.5 57.5s62.5 21 96.5 21z" />
    <glyph glyph-name="colon" unicode=":" horiz-adv-x="230" 
d="M35 311c0 23.333 8 43.333 24 60s35.667 25 59 25s43.166 -8.33301 59.499 -25s24.5 -36.667 24.5 -60c0 -24 -8.16699 -44.167 -24.5 -60.5s-36.166 -24.5 -59.499 -24.5s-43 8.16699 -59 24.5s-24 36.5 -24 60.5zM35 73c0 23.333 8 43.333 24 60s35.667 25 59 25
s43.166 -8.33301 59.499 -25s24.5 -36.667 24.5 -60c0 -24 -8.16699 -44.167 -24.5 -60.5s-36.166 -24.5 -59.499 -24.5s-43 8.16699 -59 24.5s-24 36.5 -24 60.5z" />
    <glyph glyph-name="semicolon" unicode=";" horiz-adv-x="230" 
d="M35 311c0 23.333 8 43.333 24 60s35.667 25 59 25s43.166 -8.33301 59.499 -25s24.5 -36.667 24.5 -60c0 -24 -8.16699 -44.167 -24.5 -60.5s-36.166 -24.5 -59.499 -24.5s-43 8.16699 -59 24.5s-24 36.5 -24 60.5zM34 79c0 10.667 2.16602 20.834 6.49902 30.501
s10.333 18 18 25s16.334 12.667 26.001 17s20.167 6.5 31.5 6.5c23.333 0 42.5 -9.33301 57.5 -28s22.5 -41.334 22.5 -68.001c0 -19.333 -3.33301 -38.5 -10 -57.5s-15 -37 -25 -54s-20.833 -32.5 -32.5 -46.5s-22.5 -25.333 -32.5 -34c-8 -6 -13.667 -9 -17 -9
c-12 0 -18 6 -18 18c0 2 1.33301 5.66699 4 11s5.66699 11.666 9 18.999s6.33301 15.333 9 24s4 17.334 4 26.001c0 12 -2.83301 22 -8.5 30s-11.667 16 -18 24s-12.333 17 -18 27s-8.5 23 -8.5 39z" />
    <glyph glyph-name="less" unicode="&#x3c;" horiz-adv-x="373" 
d="M301 567l46 -83l-190 -159l190 -159l-46 -83l-285 241z" />
    <glyph glyph-name="equal" unicode="=" horiz-adv-x="456" 
d="M420 302c-12.667 -22.667 -19 -48.333 -19 -77h-365c6.66699 12.667 11.5 25 14.5 37s4.5 25.333 4.5 40h365zM420 462.001c-12.667 -22.667 -19 -48.333 -19 -77h-365c6.66699 12.667 11.5 25 14.5 37s4.5 25.333 4.5 40h365z" />
    <glyph glyph-name="greater" unicode="&#x3e;" horiz-adv-x="363" 
d="M26 170l180 155l-180 155l45 83l276 -238l-276 -238z" />
    <glyph glyph-name="question" unicode="?" horiz-adv-x="462" 
d="M197 185c-9.33301 30 -16.168 55.332 -20.501 75.999s-6.5 39.667 -6.5 57c0 20.667 5.16699 43.667 15.5 69s26.5 51 48.5 77c11.333 13.333 21.333 28.333 30 45s13 33.667 13 51c0 10 -1.83301 20 -5.5 30s-9.16699 19.167 -16.5 27.5s-16.333 15 -27 20
s-23 7.5 -37 7.5c-24 0 -42.5 -6.16699 -55.5 -18.5s-19.5 -26.833 -19.5 -43.5c0 -6 2.16699 -12.333 6.5 -19s10.166 -10 17.499 -10c6 0 12 1.33301 18 4c5.33301 -3.33301 9.83301 -9 13.5 -17s5.5 -17.333 5.5 -28c0 -19.333 -6.66699 -35.5 -20 -48.5
s-29.666 -19.5 -48.999 -19.5c-12 0 -22.667 2.5 -32 7.5s-17.333 11.5 -24 19.5s-11.834 17.167 -15.501 27.5s-5.5 21.166 -5.5 32.499c0 22.667 4.83301 43.5 14.5 62.5s22.834 35.5 39.501 49.5s36.334 24.833 59.001 32.5s46.667 11.5 72 11.5
c29.333 0 56.833 -4.33301 82.5 -13s48.167 -20.5 67.5 -35.5s34.5 -33 45.5 -54s16.5 -43.833 16.5 -68.5c0 -35.333 -9.16699 -64.166 -27.5 -86.499s-43.166 -44.166 -74.499 -65.499c-28.667 -19.333 -51.834 -40.333 -69.501 -63s-26.5 -43.667 -26.5 -63
c0 -17.333 1.66699 -35.333 5 -54h-38zM133.998 78.999c0 12 2.16699 23 6.5 33s10.166 18.833 17.499 26.5s16 13.667 26 18s20.667 6.5 32 6.5s22 -2.16699 32 -6.5s18.667 -10.333 26 -18s13.166 -16.5 17.499 -26.5s6.5 -21 6.5 -33s-2.16699 -23.167 -6.5 -33.5
s-10.166 -19.333 -17.499 -27s-16 -13.667 -26 -18s-20.667 -6.5 -32 -6.5s-22 2.16699 -32 6.5s-18.667 10.333 -26 18s-13.166 16.667 -17.499 27s-6.5 21.5 -6.5 33.5z" />
    <glyph glyph-name="at" unicode="@" horiz-adv-x="668" 
d="M380 272c-7.33301 -10.667 -16.168 -18.8311 -26.501 -24.498s-24.166 -8.5 -41.499 -8.5c-19.333 0 -35.666 3.5 -48.999 10.5s-24.333 16.333 -33 28s-15 24.834 -19 39.501s-6 29.667 -6 45c0 23.333 3.33301 46.166 10 68.499s16.5 42.166 29.5 59.499
s28.5 31.333 46.5 42s38.667 16 62 16c12 0 23.167 -2.33301 33.5 -7s17.833 -12.667 22.5 -24c3.33301 4.66699 9.66602 11 18.999 19s20.666 12 33.999 12s26.333 -4.33301 39 -13c-3.33301 -3.33301 -6.33301 -7.5 -9 -12.5s-5.33398 -16.833 -8.00098 -35.5l-16 -112
c0 -2 -0.333008 -5.33301 -1 -10s-1.16699 -9.5 -1.5 -14.5s-0.833008 -9.83301 -1.5 -14.5s-1 -8 -1 -10c0 -15.333 2.33301 -25.666 7 -30.999s10.667 -8 18 -8c28.667 0 43 62 43 186c0 54 -16.833 96.5 -50.5 127.5s-78.834 46.5 -135.501 46.5
c-29.333 0 -56.333 -4.66699 -81 -14s-46 -23.833 -64 -43.5s-32.167 -45 -42.5 -76s-15.5 -68.167 -15.5 -111.5c0 -34 7 -66.833 21 -98.5s33.333 -59.834 58 -84.501s53.334 -44.5 86.001 -59.5s68 -22.5 106 -22.5c22.667 0 43 1.33301 61 4s35.333 7.33398 52 14.001
s33 15.5 49 26.5s33 24.5 51 40.5c-8 -28.667 -20.833 -54.167 -38.5 -76.5s-38.667 -41.333 -63 -57s-51 -27.5 -80 -35.5s-58.833 -12 -89.5 -12c-50 0 -94.667 8.16699 -134 24.5s-72.666 38.666 -99.999 66.999s-48.166 61.666 -62.499 99.999s-21.5 79.833 -21.5 124.5
c0 54.667 8.66699 102.667 26 144s40.833 75.666 70.5 102.999s64 48 103 62s80.167 21 123.5 21c32.667 0 61.334 -4.16699 86.001 -12.5s46.834 -17.5 66.501 -27.5l53 -27.5c15.667 -8.33301 31.5 -12.5 47.5 -12.5c7.33301 0 14.666 1 21.999 3
c4 -19.333 6.83301 -36.333 8.5 -51s2.5 -27.667 2.5 -39c0 -56 -5.83301 -102 -17.5 -138s-26.834 -64.667 -45.501 -86s-39.5 -36.166 -62.5 -44.499s-45.833 -12.5 -68.5 -12.5c-17.333 0 -32.833 3 -46.5 9s-22.167 14 -25.5 24zM385.998 453.003
c0.666992 3.33301 1.16699 7.83203 1.5 13.499s0.5 9.16699 0.5 10.5c0 19.333 -7.66699 29 -23 29c-11.333 0 -21 -5 -29 -15s-14.5 -23 -19.5 -39s-8.83301 -34 -11.5 -54s-4 -40 -4 -60c0 -17.333 3.33301 -30.166 10 -38.499s14.334 -12.5 23.001 -12.5
c9.33301 0 16.666 2.33301 21.999 7s9.33301 14.667 12 30z" />
    <glyph glyph-name="A" unicode="A" horiz-adv-x="692" 
d="M3 0c26.667 30.667 51.334 72.5 74.001 125.5s42.334 113.833 59.001 182.5l90 363c-4 1.33301 -7.33301 2 -10 2c-13.333 0 -27.833 -5.66699 -43.5 -17s-27.167 -25.666 -34.5 -42.999c-6.66699 -15.333 -13.834 -26.833 -21.501 -34.5s-18.5 -11.5 -32.5 -11.5
c-8.66699 0 -16.167 3.5 -22.5 10.5s-9.5 15.167 -9.5 24.5c0 14.667 5.16699 29.167 15.5 43.5s24 27 41 38s36 19.833 57 26.5s42.167 10 63.5 10c11.333 0 23.666 -1.16699 36.999 -3.5s26.833 -5.33301 40.5 -9s27.167 -8 40.5 -13s26 -10.167 38 -15.5
c14 -6.66699 26.667 -13 38 -19s22.666 -11.167 33.999 -15.5s23 -7.83301 35 -10.5s25.667 -4 41 -4h11v-9c-18.667 -14.667 -28 -37.334 -28 -68.001c0 -13.333 2 -29.333 6 -48l90 -381c4 -15.333 8 -28.833 12 -40.5s9 -22.334 15 -32.001s13 -18.667 21 -27
s17.667 -16.5 29 -24.5h-251c24 24 36 50 36 78c0 7.33301 -0.833008 16.833 -2.5 28.5s-4.16699 23.167 -7.5 34.5l-30 126h-254c-4 -13.333 -6.83301 -28.5 -8.5 -45.5s-2.5 -31.5 -2.5 -43.5c0 -32.667 4.83301 -65.167 14.5 -97.5s24.834 -59.166 45.501 -80.499h-226z
M420 320l-35.999 138.999c-14.667 56.667 -31.334 102.334 -50.001 137.001s-37.667 55.667 -57 63l-86 -339h229z" />
    <glyph glyph-name="B" unicode="B" horiz-adv-x="726" 
d="M89 595c-10 -4 -19.4941 -9.99902 -28.4941 -17.999s-16.167 -15 -21.5 -21l-7 49c17.333 23.333 39.166 42.833 65.499 58.5s53.5 28.167 81.5 37.5s55.667 16 83 20s50.666 6 69.999 6c50.667 0 96.167 -5.16699 136.5 -15.5s74.666 -24 102.999 -41
s50.166 -36.5 65.499 -58.5s23 -44.333 23 -67c0 -36.667 -15.5 -67.667 -46.5 -93s-75.833 -41.666 -134.5 -48.999c28.667 -5.33301 56.5 -13 83.5 -23s51.167 -23 72.5 -39s38.5 -35.333 51.5 -58s19.5 -49 19.5 -79c0 -34 -8 -63.667 -24 -89s-37.333 -46.5 -64 -63.5
s-57.334 -29.833 -92.001 -38.5s-70.334 -13 -107.001 -13h-378c10 8.66699 18 17.667 24 27s10.833 20.666 14.5 33.999s6.16699 29.166 7.5 47.499s2 40.5 2 66.5v420zM309.006 53.001c42 0 78.333 3.33398 109 10.001s54.667 18.334 72 35.001
c32.667 30.667 49 69.667 49 117c0 42 -13.833 75.667 -41.5 101s-63.5 42.666 -107.5 51.999c-18 3.33301 -36.667 5.66602 -56 6.99902s-39.333 2 -60 2h-50v-324h85zM224.006 422.002l55.001 -0.00195312c23.333 0 47.166 1.16699 71.499 3.5s46.333 7.83301 66 16.5
s35.834 21.334 48.501 38.001s19 39 19 67c0 10 -2.33301 20.5 -7 31.5s-11.5 21.833 -20.5 32.5s-20.333 20.5 -34 29.5s-29.167 16.167 -46.5 21.5c-14 4.66699 -28.5 7.83398 -43.5 9.50098s-27.167 2.5 -36.5 2.5c-20 0 -36.333 -1.5 -49 -4.5
s-20.334 -5.83301 -23.001 -8.5v-239z" />
    <glyph glyph-name="C" unicode="C" horiz-adv-x="706" 
d="M391 -20c-40.667 0 -82.4961 6.33887 -125.496 19.0059s-82.333 33.667 -118 63s-64.834 67.833 -87.501 115.5s-34 106.5 -34 176.5c0 42.667 7.33301 85.667 22 129s36 82.5 64 117.5s62 63.667 102 86s85.333 33.5 136 33.5c23.333 0 44.333 -2 63 -6
s35.5 -9 50.5 -15s28.333 -12.5 40 -19.5s21.834 -13.5 30.501 -19.5c21.333 -15.333 39.166 -26.333 53.499 -33s29.5 -10 45.5 -10c8.66699 0 18 1.66699 28 5c2 -4.66699 4 -12.167 6 -22.5s3 -21.833 3 -34.5c0 -30.667 -4.33301 -61.334 -13 -92.001
s-22 -58.334 -40 -83.001s-40.667 -44.667 -68 -60s-60 -23 -98 -23c-24 0 -46 3.66699 -66 11s-37.333 17.333 -52 30s-26 27.5 -34 44.5s-12 35.167 -12 54.5c0 23.333 5.83301 44.166 17.5 62.499s29.167 27.5 52.5 27.5c16.667 0 30 -5 40 -15s15 -22.667 15 -38
s-4.66699 -27.5 -14 -36.5s-20.666 -13.5 -33.999 -13.5c-6 0 -12 1 -18 3s-10.667 3.66699 -14 5c0 -22 7 -39.5 21 -52.5s32.667 -19.5 56 -19.5c17.333 0 32.666 3.66699 45.999 11s24.5 17.166 33.5 29.499s15.833 26.666 20.5 42.999s7 33.5 7 51.5
c0 25.333 -4 48.5 -12 69.5s-19.333 39.167 -34 54.5s-32.334 27.166 -53.001 35.499s-43.334 12.5 -68.001 12.5c-32 0 -60.5 -7.33301 -85.5 -22s-46.167 -34.167 -63.5 -58.5s-30.5 -52.666 -39.5 -84.999s-13.5 -66.166 -13.5 -101.499
c0 -45.333 8.33301 -87.333 25 -126s39.5 -72.334 68.5 -101.001s62.667 -51.167 101 -67.5s79.5 -24.5 123.5 -24.5c15.333 0 32.666 1.33301 51.999 4s39.333 7.66699 60 15s41.5 17.166 62.5 29.499s40.833 28.5 59.5 48.5c-6 -28.667 -18.167 -55.5 -36.5 -80.5
s-41.166 -47 -68.499 -66s-58.333 -34 -93 -45s-71.334 -16.5 -110.001 -16.5z" />
    <glyph glyph-name="D" unicode="D" horiz-adv-x="725" 
d="M46 0c4.66699 3.33301 9.66797 8.33105 15.001 14.998s10 14.167 14 22.5s7.33301 17.333 10 27s4 18.834 4 27.501v521c-10.667 -4.66699 -20.5 -11.834 -29.5 -21.501s-16.5 -22.5 -22.5 -38.5l-12 42c10 20 23.833 37.667 41.5 53s38 28.333 61 39
s48.167 18.834 75.5 24.501s55.666 8.5 84.999 8.5c70 0 130.667 -11.167 182 -33.5s94 -51.333 128 -87s59.333 -75.5 76 -119.5s25 -88 25 -132c0 -47.333 -9.5 -92.166 -28.5 -134.499s-44.833 -79.333 -77.5 -111s-71 -56.667 -115 -75s-91 -27.5 -141 -27.5h-291z
M251.001 34.998c40.667 0 78.832 8.33301 114.499 25s66.667 39.334 93 68.001s47.166 62.167 62.499 100.5s23 79.166 23 122.499c0 48.667 -7.16699 93 -21.5 133s-33.666 74.167 -57.999 102.5s-52.166 50.333 -83.499 66s-64 23.5 -98 23.5
c-10 0 -20.167 -0.5 -30.5 -1.5s-19.833 -3.16699 -28.5 -6.5v-633h27z" />
    <glyph glyph-name="E" unicode="E" horiz-adv-x="705" 
d="M224 43l60.998 0.000976562c32.667 0 61.5 3 86.5 9s47.5 13.5 67.5 22.5s38.167 18.667 54.5 29s32.666 20 48.999 29s33.166 16.5 50.499 22.5s37 9 59 9c6.66699 0 14.667 -1.16699 24 -3.5s15.333 -5.5 18 -9.5c-18 -25.333 -35.5 -53.333 -52.5 -84
s-32.167 -63 -45.5 -97c-14 7.33301 -29.5 13 -46.5 17s-34.833 7 -53.5 9s-37.667 3.16699 -57 3.5s-38.333 0.5 -57 0.5h-335c8.66699 4.66699 17.834 13 27.501 25s14.5 27.333 14.5 46v541c0 21.333 -5 39.666 -15 54.999s-20.333 26.333 -31 33h184
c38 0 75.833 0.333008 113.5 1s72.334 2 104.001 4s59 4.66699 82 8s38.5 8 46.5 14c5.33301 -16 11.833 -32.333 19.5 -49s15.667 -33 24 -49s17 -31 26 -45s17.5 -26 25.5 -36c-7.33301 -4.66699 -14.666 -8 -21.999 -10s-18.333 -3 -33 -3c-22 0 -44.5 4.5 -67.5 13.5
s-41.167 19.833 -54.5 32.5c-16 14.667 -32.167 26.834 -48.5 36.501s-34.5 17.5 -54.5 23.5s-43.167 10.5 -69.5 13.5s-57.833 4.83301 -94.5 5.5v-234h92c17.333 0 36 1.16699 56 3.5s39.833 6.5 59.5 12.5s38.5 13.833 56.5 23.5s33.333 21.834 46 36.501
c3.33301 -40 13 -79.833 29 -119.5s36.333 -74.5 61 -104.5l-26 -22c-16 14.667 -33.833 28.167 -53.5 40.5s-40 23.166 -61 32.499s-41.667 17.166 -62 23.499s-39.166 10.5 -56.499 12.5c-13.333 1.33301 -30 2.5 -50 3.5s-39 1.5 -57 1.5h-18.5
c-5 0 -10.167 -0.333008 -15.5 -1v-326z" />
    <glyph glyph-name="F" unicode="F" horiz-adv-x="661" 
d="M48 0c12 12.667 21.8311 28.502 29.498 47.502s11.5 38.833 11.5 59.5v502c0 8.66699 -1.33301 17.667 -4 27s-6 18.166 -10 26.499s-8.16699 15.666 -12.5 21.999s-8.5 11.5 -12.5 15.5h408c24 0 46.167 2.16699 66.5 6.5s37.833 12.166 52.5 23.499
c3.33301 -19.333 8.16602 -39 14.499 -59s13.333 -39.167 21 -57.5s15.334 -34.833 23.001 -49.5s14.5 -26.334 20.5 -35.001c-8 -3.33301 -16.667 -5 -26 -5c-20 0 -43.333 5 -70 15s-52.667 25.333 -78 46c-9.33301 8 -20 16 -32 24s-25.167 15.5 -39.5 22.5
s-29.666 12.667 -45.999 17s-33.5 6.5 -51.5 6.5h-89v-226c7.33301 -1.33301 15.333 -2.5 24 -3.5s18.334 -1.5 29.001 -1.5c26.667 0 52.667 0.833008 78 2.5s49 4.66699 71 9s41.833 10.5 59.5 18.5s32.167 18 43.5 30l7 -1c6 -40 17.333 -78.333 34 -115
s35.667 -71 57 -103l-17 -14c-29.333 22.667 -57.5 41.334 -84.5 56.001s-55.167 26.834 -84.5 36.501s-61.5 17.5 -96.5 23.5s-75.167 11.333 -120.5 16v-286c0 -19.333 3.83301 -37.333 11.5 -54s20.167 -31 37.5 -43h-225z" />
    <glyph glyph-name="G" unicode="G" horiz-adv-x="750" 
d="M694 3c-23.333 11.333 -46.6729 16.9951 -70.0059 16.9951c-17.333 0 -33.166 -1.83301 -47.499 -5.5l-45.5 -11.5c-16 -4 -33.667 -7.83301 -53 -11.5s-42.666 -5.5 -69.999 -5.5c-52.667 0 -102.167 10.167 -148.5 30.5s-86.833 47 -121.5 80s-62 70.833 -82 113.5
s-30 86 -30 130c0 58.667 9.66699 111.5 29 158.5s44.333 86.833 75 119.5s65.167 57.834 103.5 75.501s76.166 26.5 113.499 26.5c20 0 38 -2 54 -6s31.167 -8.5 45.5 -13.5s28.666 -9.5 42.999 -13.5s29.5 -6 45.5 -6c11.333 0 22.333 2.5 33 7.5s21.334 10.5 32.001 16.5
c8.66699 -30 21.334 -60.833 38.001 -92.5s36 -58.167 58 -79.5c-9.33301 -3.33301 -18 -5.66602 -26 -6.99902s-16.667 -2 -26 -2c-12 0 -24.5 2 -37.5 6s-26 9.5 -39 16.5s-25.333 15 -37 24s-22.167 18.5 -31.5 28.5c-26 27.333 -50.833 46.5 -74.5 57.5
s-51.5 16.5 -83.5 16.5c-24.667 0 -47.667 -5.83301 -69 -17.5s-40 -27.667 -56 -48s-28.667 -44.666 -38 -72.999s-14 -59.166 -14 -92.499c0 -58 9 -111.5 27 -160.5s40.833 -91.333 68.5 -127s58.167 -63.334 91.5 -83.001s65 -29.5 95 -29.5
c24.667 0 46.5 1.33301 65.5 4s32.833 7.66699 41.5 15l-19 211h-71c-23.333 0 -42.833 2.66699 -58.5 8s-28.5 12.5 -38.5 21.5s-17.167 19.167 -21.5 30.5s-6.5 23 -6.5 35c0 25.333 7.33301 46 22 62s32.334 24 53.001 24c19.333 0 35.333 -5.16699 48 -15.5
s19 -24.166 19 -41.499c0 -11.333 -3.33301 -21.333 -10 -30s-15.334 -13 -26.001 -13c-9.33301 0 -17.666 3 -24.999 9s-11 13.667 -11 23c0 11.333 2.66699 19 8 23c-0.666992 0.666992 -3 1 -7 1c-5.33301 0 -10.666 -3.66699 -15.999 -11s-8 -17.666 -8 -30.999
c0 -14.667 5.83301 -26.667 17.5 -36s29.834 -14 54.501 -14h253c-11.333 -9.33301 -20.666 -21 -27.999 -35s-11 -30.667 -11 -50c0 -3.33301 0.166992 -6.5 0.5 -9.5s0.833008 -6.16699 1.5 -9.5z" />
    <glyph glyph-name="H" unicode="H" horiz-adv-x="705" 
d="M486 315l-25.9971 286.002c-2.66699 38.667 -18.334 71.667 -47.001 99h224c-16.667 -18.667 -27.334 -37.667 -32.001 -57s-7 -36 -7 -50v-4l42 -488c0.666992 -6.66699 2.16699 -14.667 4.5 -24s5.5 -19 9.5 -29s8.83301 -19.333 14.5 -28
s11.834 -15.334 18.501 -20.001h-222c11.333 9.33301 20.666 23 27.999 41s11 35 11 51v7l-14 163h-276l-13 -145c-0.666992 -2 -1 -7 -1 -15c0 -22.667 4 -43 12 -61s17.667 -31.667 29 -41h-222c7.33301 9.33301 15.666 22.5 24.999 39.5s15.333 37.5 18 61.5l46 488
c0 2.66699 0.166992 5.16699 0.5 7.5s0.5 4.83301 0.5 7.5c0 13.333 -2 28.166 -6 44.499s-14.667 33.5 -32 51.5h224c-7.33301 -7.33301 -13.5 -14.333 -18.5 -21s-9.5 -14 -13.5 -22s-7.33301 -17 -10 -27s-5 -22 -7 -36l-28 -279h268z" />
    <glyph glyph-name="I" unicode="I" horiz-adv-x="313" 
d="M42 0c9.33301 8.66699 17.001 16.4971 23.001 23.4971s10.833 14.833 14.5 23.5s6.16699 18.834 7.5 30.501s2 26.5 2 44.5v479c0 21.333 -2.66699 39.5 -8 54.5s-16 29.833 -32 44.5h230c-15.333 -8.66699 -28.333 -22.167 -39 -40.5s-16 -39.166 -16 -62.499v-494
c0 -22.667 3.66699 -43.667 11 -63s20.666 -32.666 39.999 -39.999h-233z" />
    <glyph glyph-name="J" unicode="J" horiz-adv-x="488" 
d="M446 700c-7.33301 -6 -13.8301 -14.1641 -19.4971 -24.4971s-10.5 -21.5 -14.5 -33.5s-7.16699 -24 -9.5 -36s-3.5 -22.667 -3.5 -32v-289c0 -24.667 0.5 -44.334 1.5 -59.001s2.83301 -26.667 5.5 -36s6.33398 -16.833 11.001 -22.5s10.334 -11.834 17.001 -18.501
c-4.66699 -21.333 -13.334 -41.833 -26.001 -61.5s-28.834 -37.167 -48.501 -52.5s-43 -27.5 -70 -36.5s-57.167 -13.5 -90.5 -13.5c-26.667 0 -51.834 3 -75.501 9s-44.5 14 -62.5 24s-32.167 21.667 -42.5 35s-15.5 27.333 -15.5 42c0 17.333 5.16699 31.166 15.5 41.499
s24.5 15.5 42.5 15.5c17.333 0 33.666 -5.83301 48.999 -17.5s29 -30.167 41 -55.5c6.66699 -13.333 14.667 -26.333 24 -39s20.666 -19 33.999 -19c19.333 0 33.333 9.16699 42 27.5s13 38.833 13 61.5v501c0 16 -3.5 31.667 -10.5 47s-19.833 29.333 -38.5 42h231z" />
    <glyph glyph-name="K" unicode="K" horiz-adv-x="743" 
d="M266 700c-28 -22 -41.999 -46.998 -41.999 -74.998v-221l91 117c17.333 22.667 38.333 46.334 63 71.001s51 47.334 79 68.001s56.667 37.834 86 51.501s57 20.5 83 20.5c30 0 54.667 -7 74 -21s29 -32.333 29 -55c0 -11.333 -2.5 -22 -7.5 -32
s-11.833 -18.667 -20.5 -26s-18.667 -13.166 -30 -17.499s-23 -6.5 -35 -6.5c-14 0 -26 1.66699 -36 5s-19.5 7.16602 -28.5 11.499s-18.5 8.16602 -28.5 11.499s-22 5 -36 5c-17.333 0 -34.333 -5 -51 -15s-34.334 -24.667 -53.001 -44l240 -443c4 -8 9.5 -17 16.5 -27
s14.667 -19.833 23 -29.5s17.5 -18.834 27.5 -27.501s20 -15.667 30 -21h-274c9.33301 4.66699 18.5 11.167 27.5 19.5s13.5 19.166 13.5 32.499c0 5.33301 -1.83301 13.166 -5.5 23.499s-10.167 23.833 -19.5 40.5l-176 322l-82 -119v-236c0 -16 3.66699 -31.5 11 -46.5
s17.333 -27.167 30 -36.5h-217c27.333 15.333 41 44.666 41 87.999v517c0 28 -3.66699 49 -11 63s-18.333 24.667 -33 32h221z" />
    <glyph glyph-name="L" unicode="L" horiz-adv-x="649" 
d="M554 -29c-21.333 10.667 -43.335 18.166 -66.002 22.499s-52 6.5 -88 6.5h-357c13.333 9.33301 24.333 21.666 33 36.999s13 35.333 13 60v510c0 25.333 -4.16699 44.833 -12.5 58.5s-19.166 25.167 -32.499 34.5h217c-4 -2.66699 -8.33301 -7.5 -13 -14.5
s-8.66699 -15 -12 -24s-6.16602 -18.5 -8.49902 -28.5s-3.5 -19.667 -3.5 -29v-556h66c23.333 0 45 3 65 9s38.833 13.333 56.5 22s34 17.834 49 27.501s29.167 18.167 42.5 25.5c19.333 11.333 37.833 19.5 55.5 24.5s33.167 7.5 46.5 7.5c20 0 33.667 -2.33301 41 -7
c-8 -10.667 -16.5 -23.5 -25.5 -38.5s-17.833 -30.833 -26.5 -47.5s-16.5 -33.667 -23.5 -51s-12.5 -33.666 -16.5 -48.999z" />
    <glyph glyph-name="M" unicode="M" horiz-adv-x="841" 
d="M353 700c-9.33301 -8.66699 -17.001 -18.666 -23.001 -29.999s-9 -24.333 -9 -39c0 -7.33301 0.5 -13.5 1.5 -18.5s2.83301 -11.167 5.5 -18.5l103 -267l104 329c-2.66699 6.66699 -8.33398 13.834 -17.001 21.501s-19.334 15.167 -32.001 22.5h273
c-19.333 -8.66699 -32.833 -20.667 -40.5 -36s-11.5 -32 -11.5 -50c0 -4 0.166992 -9.66699 0.5 -17s0.5 -12.666 0.5 -15.999l53 -398c6 -48 14.167 -86.167 24.5 -114.5s27.833 -51.166 52.5 -68.499h-249c12 11.333 21.5 24.833 28.5 40.5s10.5 32.834 10.5 51.501
c0 4 -0.166992 8 -0.5 12s-0.5 7.66699 -0.5 11l-67 467l-167 -534l-206 511l-25 -201c-1.33301 -10 -2.66602 -21 -3.99902 -33s-2.5 -24 -3.5 -36s-1.83301 -23.333 -2.5 -34s-1 -19.334 -1 -26.001c0 -16.667 1.16699 -35.834 3.5 -57.501s5.83301 -43.334 10.5 -65.001
s10.334 -42 17.001 -61s14.334 -34.167 23.001 -45.5h-202l27 53.5c9.33301 19 18.5 42.167 27.5 69.5s18 60.666 27 99.999s17.5 87.666 25.5 144.999l39 266c-19.333 24 -41.333 46 -66 66h270z" />
    <glyph glyph-name="N" unicode="N" horiz-adv-x="722" 
d="M230 466l-41.002 65.4941c-12 18.333 -24.333 35.166 -37 50.499v-269c0 -44 2.5 -82.833 7.5 -116.5s11.333 -63 19 -88s16.334 -46.333 26.001 -64s19.167 -32.5 28.5 -44.5h-207c11.333 14.667 21.833 31.334 31.5 50.001s18.167 40.334 25.5 65.001
s13.166 53 17.499 85s6.5 69.333 6.5 112v319c-5.33301 6.66699 -11.833 13.5 -19.5 20.5s-15.5 13.667 -23.5 20s-16 12 -24 17s-14.667 8.83301 -20 11.5h302c-8 -8 -13.333 -16 -16 -24s-4 -16.667 -4 -26c0 -26.667 9.33301 -54.334 28 -83.001l241 -395v82
c0 42 -0.333008 79 -1 111s-1.83398 60.833 -3.50098 86.5s-4.5 49 -8.5 70s-9.16699 41 -15.5 60s-14.166 38 -23.499 57s-20.666 39.5 -33.999 61.5h212c-18.667 -23.333 -33.667 -47.166 -45 -71.499s-20 -49.666 -26 -75.999s-10.167 -53.666 -12.5 -81.999
s-4.16602 -58.166 -5.49902 -89.499c-0.666992 -16 -1.33398 -34.667 -2.00098 -56s-1.16699 -43.5 -1.5 -66.5s-0.5 -45.667 -0.5 -68v-61.5c4 -5.33301 10.167 -12 18.5 -20l26.5 -24.5c9.33301 -8.33301 18.833 -16.166 28.5 -23.499s17.834 -12.666 24.501 -15.999
c-11.333 -4 -24.5 -9.33301 -39.5 -16s-30 -14 -45 -22s-29.167 -16.333 -42.5 -25s-24 -17 -32 -25z" />
    <glyph glyph-name="O" unicode="O" horiz-adv-x="764" 
d="M25 322c0 56.667 8.49902 107.826 25.499 153.493s43.5 85.5 79.5 119.5c9.33301 9.33301 20.5 19.5 33.5 30.5l35.5 29.5c6.66699 6 13 9 19 9s10.667 -1.33301 14 -4c-0.666992 -1.33301 -3 -4.33301 -7 -9s-7.66699 -8.66699 -11 -12
c-19.333 -22 -35.166 -48.333 -47.499 -79s-18.5 -70 -18.5 -118c0 -44 8.33301 -89.667 25 -137s39.334 -90.5 68.001 -129.5s61.834 -71.167 99.501 -96.5s77.5 -38 119.5 -38c18.667 0 39.334 3.66699 62.001 11s43.5 19.5 62.5 36.5s35 39.333 48 67
s19.5 61.834 19.5 102.501c0 36.667 -5.83301 74.334 -17.5 113.001s-28.834 73.834 -51.501 105.501s-50.667 57.667 -84 78s-71.666 30.5 -114.999 30.5c-22 0 -41.333 -3.33301 -58 -10s-30.667 -15.667 -42 -27s-19.833 -24.5 -25.5 -39.5s-8.5 -30.833 -8.5 -47.5
c0 -11.333 1.83301 -22.666 5.5 -33.999s9 -21.5 16 -30.5s15.5 -16.333 25.5 -22s21.667 -8.5 35 -8.5c19.333 0 35.333 5.5 48 16.5s19 26.167 19 45.5c0 6 -1.66699 11.5 -5 16.5s-7.33301 7.83301 -12 8.5c-1.33301 -6.66699 -4 -12.334 -8 -17.001s-9.66699 -7 -17 -7
c-8.66699 0 -16.167 3.33301 -22.5 10s-9.5 14.334 -9.5 23.001c0 11.333 4.66699 21.5 14 30.5s20 13.5 32 13.5c10 0 19.333 -2.33301 28 -7s16.167 -10.834 22.5 -18.501s11.333 -16.334 15 -26.001s5.5 -19.5 5.5 -29.5c0 -15.333 -3.16699 -29 -9.5 -41
s-14.666 -22.5 -24.999 -31.5s-21.833 -15.833 -34.5 -20.5s-25.334 -7 -38.001 -7c-22.667 0 -43.334 4.83301 -62.001 14.5s-34.834 22.334 -48.501 38.001s-24.167 33.5 -31.5 53.5s-11 40.333 -11 61c0 30.667 6.83301 59.834 20.5 87.501s31.667 51.834 54 72.501
s47.5 37.167 75.5 49.5s56.333 18.5 85 18.5c48.667 0 92.667 -9.66699 132 -29s73 -45.5 101 -78.5s49.5 -71 64.5 -114s22.5 -88.5 22.5 -136.5c0 -38 -5.83301 -79.167 -17.5 -123.5s-31.334 -85.666 -59.001 -123.999s-64.5 -70.166 -110.5 -95.499
s-103.333 -38 -172 -38c-53.333 0 -101.5 9.66699 -144.5 29s-79.833 45 -110.5 77s-54.5 68.333 -71.5 109s-25.833 82.667 -26.5 126z" />
    <glyph glyph-name="P" unicode="P" horiz-adv-x="633" 
d="M395 700c36.667 0 69.168 -4.66504 97.501 -13.998s52.166 -21.833 71.499 -37.5s34 -33.834 44 -54.501s15 -42.334 15 -65.001c0 -26 -4.33301 -48.667 -13 -68s-19.834 -36.166 -33.501 -50.499s-28.5 -26.166 -44.5 -35.499s-31 -16.666 -45 -21.999l-77 -29.5
c-26 -10.333 -49.667 -24.5 -71 -42.5c-15.333 -13.333 -25.833 -26 -31.5 -38s-8.5 -23.667 -8.5 -35c8 6 18.667 9 32 9c12.667 0 23.5 -4.33301 32.5 -13s13.5 -18.667 13.5 -30c0 -13.333 -5 -24.666 -15 -33.999s-23 -14 -39 -14c-18.667 0 -34.667 8.33301 -48 25
s-20 37.667 -20 63c0 27.333 8.5 51.666 25.5 72.999s45.5 45 85.5 71c16.667 11.333 31.334 22 44.001 32s23.5 20.833 32.5 32.5s15.833 24.834 20.5 39.501s7 32 7 52c0 20.667 -5 40.167 -15 58.5s-23.667 34.166 -41 47.499s-37.833 23.833 -61.5 31.5
s-49.5 11.5 -77.5 11.5c-18.667 0 -35.667 -1.33301 -51 -4v-507c0 -24.667 1.33301 -45.334 4 -62.001s6.66699 -30.834 12 -42.501s12.166 -21 20.499 -28s18.5 -13.5 30.5 -19.5h-254c17.333 8 30.333 22.5 39 43.5s13 45.5 13 73.5v472
c0 25.333 -3.16699 47.666 -9.5 66.999s-17.166 34 -32.499 44h348z" />
    <glyph glyph-name="Q" unicode="Q" horiz-adv-x="763" 
d="M258 257c32 19.333 63.6709 39.5068 95.0039 60.5068l93 64.5c-0.666992 -3.33301 -1.5 -7.83301 -2.5 -13.5s-1.5 -10.167 -1.5 -13.5c0 -6.66699 0.5 -13.334 1.5 -20.001s4.16699 -14.334 9.5 -23.001c6.66699 -11.333 17 -23.833 31 -37.5s33.667 -31.167 59 -52.5
l67 -58c10.667 20 18.167 39.667 22.5 59s6.5 35.666 6.5 48.999c0 42 -9.5 82.833 -28.5 122.5s-43.333 74.667 -73 105s-62.834 54.666 -99.501 72.999s-72.667 27.5 -108 27.5c-30 0 -55.833 -5 -77.5 -15s-42.167 -25.667 -61.5 -47l-7 5
c1.33301 17.333 7.66602 36.666 18.999 57.999s26.833 41.333 46.5 60s43.167 34.334 70.5 47.001s58 19 92 19c41.333 0 80.5 -9.66699 117.5 -29s69.333 -45.5 97 -78.5s49.667 -71.667 66 -116s24.5 -91.5 24.5 -141.5c0 -38.667 -7.16699 -76.834 -21.5 -114.501
s-33.5 -73.5 -57.5 -107.5c20 -17.333 39.167 -31.333 57.5 -42s38.166 -18.667 59.499 -24c-11.333 -7.33301 -22.833 -15.666 -34.5 -24.999s-23 -19.666 -34 -30.999s-21.5 -23.333 -31.5 -36s-19 -25.334 -27 -38.001c-5.33301 13.333 -10.5 24.833 -15.5 34.5
s-10.5 18.5 -16.5 26.5s-12.5 15.5 -19.5 22.5s-15.167 14.5 -24.5 22.5c-30 -22.667 -61.333 -40.334 -94 -53.001s-66 -19 -100 -19c-46.667 0 -90.167 9.16699 -130.5 27.5s-75.5 43.166 -105.5 74.499s-53.5 68 -70.5 110s-25.5 87 -25.5 135
c0 84 17.833 157.5 53.5 220.5s89.5 113.5 161.5 151.5l15 -13c-36 -28 -62.833 -64 -80.5 -108s-26.5 -92 -26.5 -144c0 -55.333 10.333 -105.833 31 -151.5s46.167 -84.667 76.5 -117s62.5 -57.333 96.5 -75s64.667 -26.5 92 -26.5c29.333 0 55 5.33301 77 16l-89 79
c-18 16 -36 30.667 -54 44l-43 31c-14.667 9.33301 -28.334 15.666 -41.001 18.999s-25 5.33301 -37 6z" />
    <glyph glyph-name="R" unicode="R" horiz-adv-x="700" 
d="M415 0c18.667 20.667 28.0029 40.999 28.0029 60.999c0 8.66699 -1.5 17.5 -4.5 26.5s-8.5 21.167 -16.5 36.5l-133 248h-65v-266c0 -31.333 3.66699 -54.333 11 -69s18.333 -27 33 -37h-226c12 7.33301 22.833 20.166 32.5 38.499s14.5 41.5 14.5 69.5v497
c0 14 -0.333008 25.833 -1 35.5s-2.33398 17.834 -5.00098 24.501s-6.33398 12.667 -11.001 18s-11 11 -19 17h374c37.333 0 71.333 -3.66699 102 -11s56.834 -17.666 78.501 -30.999s38.5 -29.5 50.5 -48.5s18 -40.167 18 -63.5c0 -30 -7.33301 -55.333 -22 -76
s-33.5 -37.5 -56.5 -50.5s-48.333 -22.833 -76 -29.5s-54.834 -11 -81.501 -13l159 -272c13.333 -23.333 28.166 -43.833 44.499 -61.5s31.833 -32.167 46.5 -43.5h-275zM224.003 417.999c7.33301 -0.666992 14.832 -1 22.499 -1h22.5c16 0 31.667 0.166992 47 0.5
s30 0.833008 44 1.5c20.667 0.666992 39.834 3 57.501 7s32.834 10 45.501 18s22.667 18 30 30s11 26.667 11 44c0 20.667 -5.5 39.5 -16.5 56.5s-26.833 31.333 -47.5 43s-45.334 20.667 -74.001 27s-60.667 9.5 -96 9.5h-46v-236z" />
    <glyph glyph-name="S" unicode="S" horiz-adv-x="685" 
d="M12 146c10 8 26.3359 12.0039 49.0029 12.0039c25.333 0 50.666 -7 75.999 -21s54 -32.333 86 -55c20.667 -15.333 44.167 -29 70.5 -41s56.5 -18 90.5 -18c22.667 0 44.5 2.83301 65.5 8.5s39.5 14.167 55.5 25.5s28.833 25.5 38.5 42.5s14.5 36.5 14.5 58.5
c0 26 -7 47.5 -21 64.5s-32.5 31.167 -55.5 42.5s-49.167 21 -78.5 29l-89.5 24.5c-30.333 8.33301 -60.166 17.666 -89.499 27.999s-55.5 23.666 -78.5 39.999s-41.5 36.666 -55.5 60.999s-21 54.5 -21 90.5c0 24 5.16699 47 15.5 69s24.666 41.333 42.999 58
s40.333 30 66 40s53.5 15 83.5 15c18.667 0 35.834 -1.66699 51.501 -5s31.167 -7 46.5 -11s31.166 -7.66699 47.499 -11s34.5 -5 54.5 -5c9.33301 0 19 1.16699 29 3.5s17.667 5.16602 23 8.49902c11.333 -21.333 24.666 -43 39.999 -65l43 -61
c-4.66699 -4 -10.834 -6.66699 -18.501 -8s-14.167 -2 -19.5 -2c-22 0 -43.667 4.5 -65 13.5s-44 22.5 -68 40.5c-20 15.333 -43.167 29.333 -69.5 42s-54.5 19 -84.5 19c-12 0 -24.167 -2 -36.5 -6s-23.166 -9.83301 -32.499 -17.5s-17 -17.334 -23 -29.001
s-9 -25.5 -9 -41.5c0 -22.667 6.66699 -41 20 -55s31 -25.5 53 -34.5s47.167 -16.667 75.5 -23s57 -13.166 86 -20.499s57.667 -16.333 86 -27s53.5 -25 75.5 -43s39.667 -40.5 53 -67.5s20 -60.833 20 -101.5c0 -39.333 -7.5 -73.5 -22.5 -102.5s-35 -53.167 -60 -72.5
s-53.833 -33.833 -86.5 -43.5s-66.334 -14.5 -101.001 -14.5c-20 0 -42.5 2.33301 -67.5 7s-47.5 10 -67.5 16c-36 11.333 -63.333 17 -82 17c-16 0 -30.667 -1.66699 -44 -5s-25 -7 -35 -11c-4.66699 11.333 -10 23.5 -16 36.5s-12.5 26 -19.5 39s-14.167 25.333 -21.5 37
s-14 21.5 -20 29.5z" />
    <glyph glyph-name="T" unicode="T" horiz-adv-x="662" 
d="M452 700c32 0 60.3379 3.49805 85.0049 10.498s44.334 15.5 59.001 25.5c0.666992 -14 3.16699 -30.333 7.5 -49s9.5 -37.334 15.5 -56.001s12.5 -36.5 19.5 -53.5s13.833 -31.5 20.5 -43.5c-8.66699 -3.33301 -16.334 -5 -23.001 -5c-10 0 -20.5 1.66699 -31.5 5
s-22.167 8 -33.5 14s-22 12.833 -32 20.5s-19 16.167 -27 25.5c-19.333 22.667 -39 40.334 -59 53.001s-36.667 19 -50 19v-570c0 -15.333 3.33301 -32.833 10 -52.5s17.667 -34.167 33 -43.5h-235c18 12.667 32 27.334 42 44.001s15 34.334 15 53.001v569
c-10 0 -20.833 -2.66699 -32.5 -8s-23.334 -12.166 -35.001 -20.499s-23.334 -17.666 -35.001 -27.999s-22.834 -20.833 -33.501 -31.5c-16.667 -16 -35.334 -28.167 -56.001 -36.5s-39 -12.5 -55 -12.5c-7.33301 0 -13.333 2 -18 6c7.33301 12.667 15.166 27.667 23.499 45
s16.166 35.166 23.499 53.499s14 36.666 20 54.999s10.333 34.5 13 48.5c10 -6.66699 26.333 -14.5 49 -23.5s49.334 -13.5 80.001 -13.5h240z" />
    <glyph glyph-name="U" unicode="U" horiz-adv-x="645" 
d="M53 149c0 10 1.16895 26.8281 3.50195 50.4951s5.16602 50.834 8.49902 81.501s7.16602 63.334 11.499 98.001s8.16602 67.834 11.499 99.501s6.16602 60.334 8.49902 86.001s3.5 44.834 3.5 57.501c0 36 -15.333 62 -46 78h247c-17.333 -10 -29.833 -22.5 -37.5 -37.5
s-14.167 -35.167 -19.5 -60.5l-5.5 -40l-11 -78.5c-4.33301 -30.333 -8.66602 -63 -12.999 -98l-12.5 -99c-4 -31 -7.33301 -58.333 -10 -82s-4 -39.167 -4 -46.5c0 -40 15.167 -71.833 45.5 -95.5s69.833 -35.5 118.5 -35.5c24.667 0 48.334 2.66699 71.001 8
s42.5 13.5 59.5 24.5s30.5 24.333 40.5 40s15 34.167 15 55.5c0 28 -2.33301 59 -7 93l-13 94c-8 57.333 -16 105.833 -24 145.5s-16.5 73.167 -25.5 100.5s-19.167 49.666 -30.5 66.999s-24.333 32.333 -39 45h203c-20.667 -23.333 -34.667 -48.833 -42 -76.5
s-11 -54.5 -11 -80.5c0 -36 2 -71.5 6 -106.5s8.16699 -69.167 12.5 -102.5l12.5 -97c4 -31.333 6 -61.666 6 -90.999c0 -28 -7.16699 -52.167 -21.5 -72.5s-34 -37 -59 -50s-54.333 -22.5 -88 -28.5s-69.5 -9 -107.5 -9s-72.833 3.5 -104.5 10.5s-58.667 17.5 -81 31.5
s-39.833 31.167 -52.5 51.5s-19 43.5 -19 69.5z" />
    <glyph glyph-name="V" unicode="V" horiz-adv-x="671" 
d="M248 700c-12 -10 -20.332 -19.1621 -24.999 -27.4951s-7 -19.5 -7 -33.5c0 -5.33301 1 -11.5 3 -18.5s4.66699 -15.167 8 -24.5l162 -424l41 131c6 20 12 41.333 18 64s11.5 45.667 16.5 69s9.16699 46.666 12.5 69.999s5 45.666 5 66.999
c0 23.333 -3.5 45.166 -10.5 65.499s-20.5 40.833 -40.5 61.5h199c5.33301 0 9.16602 -1.66699 11.499 -5s3.5 -7 3.5 -11c0 -2 -0.833008 -4.83301 -2.5 -8.5s-4.16699 -7.16699 -7.5 -10.5c-9.33301 -10 -19.5 -25 -30.5 -45s-22 -42.167 -33 -66.5
s-21.5 -49.333 -31.5 -75s-18.667 -48.834 -26 -69.501l-94 -274c17.333 -21.333 38 -40.333 62 -57s49 -28.667 75 -36c-48 -4.66699 -92.167 -13.334 -132.5 -26.001s-72.5 -28 -96.5 -46c-10 28 -20.5 55.833 -31.5 83.5l-32.5 80l-30.5 73l-25.5 61.5l-144 344
c-4.66699 12 -9 21.833 -13 29.5s-8.16699 14.667 -12.5 21s-9.33301 12.333 -15 18s-12.5 12.167 -20.5 19.5h245z" />
    <glyph glyph-name="W" unicode="W" horiz-adv-x="1013" 
d="M235 700c-10.667 -9.33301 -18.3369 -19.6689 -23.0039 -31.002s-7 -21.666 -7 -30.999c0 -4.66699 0.333008 -10.834 1 -18.501s3.66699 -18.167 9 -31.5l142 -398l179 482l203 -484l45 158c11.333 38 20.5 76 27.5 114s10.5 69 10.5 93c0 37.333 -5 67.166 -15 89.499
s-22.667 41.5 -38 57.5h241c-14 -12 -26.167 -23.333 -36.5 -34s-19.666 -22 -27.999 -34s-16.166 -25.5 -23.499 -40.5s-15 -32.5 -23 -52.5c-7.33301 -17.333 -14 -34.166 -20 -50.499l-17.5 -50l-17.5 -53.5l-20 -62l-58 -187c11.333 -26 26.5 -46.333 45.5 -61
s38.833 -27.667 59.5 -39c-17.333 -2 -34.833 -5 -52.5 -9s-35 -9 -52 -15s-33.167 -12.667 -48.5 -20s-29 -15.333 -41 -24l-69.5 179.5l-72.5 182.5c-6.66699 16.667 -13.667 33.167 -21 49.5l-22 48.5l-109 -291c4 -11.333 10.333 -22.166 19 -32.499
s18.334 -20.166 29.001 -29.499s21.834 -17.833 33.501 -25.5s22.167 -14.167 31.5 -19.5c-46 -2 -86.5 -8.5 -121.5 -19.5s-63.167 -25.167 -84.5 -42.5c-8 30 -19 64 -33 102l-39 110l-132 363c-12.667 36 -25.5 67.333 -38.5 94s-27.833 47.667 -44.5 63h232z" />
    <glyph glyph-name="X" unicode="X" horiz-adv-x="713" 
d="M311 700l2.00195 -3.99902c-15.333 -9.33301 -23 -23 -23 -41c0 -7.33301 1.5 -15.333 4.5 -24s6.83301 -16.667 11.5 -24l93 -153l32 42c20 28 34 53.833 42 77.5s12 42.167 12 55.5c0 11.333 -1.83301 23 -5.5 35s-9.16699 23 -16.5 33l2 3h230l2 -4l-36 -29.5l-43 -37
c-14.667 -13 -28.834 -26.333 -42.501 -40s-25.5 -26.5 -35.5 -38.5l-115 -138l171 -280c16 -26.667 33.667 -51.334 53 -74.001s39.666 -42.334 60.999 -59.001h-274c6 6.66699 11.833 14.5 17.5 23.5s8.5 20.167 8.5 33.5c0 11.333 -2 22.333 -6 33s-10.667 23.667 -20 39
l-103 168c-17.333 -18.667 -33 -38.667 -47 -60s-26.667 -42.333 -38 -63c-7.33301 -14 -12.833 -28.5 -16.5 -43.5s-5.5 -29.5 -5.5 -43.5c0 -15.333 3.83301 -30.666 11.5 -45.999s15.834 -29 24.501 -41h-259l67 67.5l69 74.5l76.5 88.5l89.5 109.5l-117 190
c-20.667 34 -41.334 65.5 -62.001 94.5s-45 52.5 -73 70.5v5h258z" />
    <glyph glyph-name="Y" unicode="Y" horiz-adv-x="649" 
d="M255 700c-21.333 -13.333 -31.999 -28.6641 -31.999 -45.9971c0 -4.66699 0.333008 -9 1 -13s1.83398 -9 3.50098 -15s4.33398 -13.167 8.00098 -21.5l14.5 -31.5l116 -245l70 144c8.66699 17.333 16.167 38.166 22.5 62.499s9.5 46.166 9.5 65.499c0 6 -1 13.333 -3 22
s-4.66699 17.5 -8 26.5s-7.33301 18 -12 27s-9.33398 17.167 -14.001 24.5h214l1 -3c-12 -12 -24.5 -25.833 -37.5 -41.5s-25.833 -32.5 -38.5 -50.5s-24.667 -36.833 -36 -56.5s-22 -39.167 -32 -58.5l-117 -231v-156c0 -54 22.333 -88.333 67 -103h-254
c8 3.33301 15.167 8.66602 21.5 15.999s11.666 15.833 15.999 25.5s7.83301 20 10.5 31s4 21.5 4 31.5v151l-145 294l-24.5 49c-7 13.333 -14.167 25.5 -21.5 36.5s-15.333 21.5 -24 31.5s-19.334 21.333 -32.001 34h252z" />
    <glyph glyph-name="Z" unicode="Z" horiz-adv-x="609" 
d="M112 726c10 -5.33301 19 -9.66504 27 -12.998s15.833 -6 23.5 -8s15.667 -3.33301 24 -4s17.833 -1 28.5 -1h391l-61 -84.5c-20 -28.333 -39 -57.5 -57 -87.5l-287 -475h61c19.333 0 36.666 1.33301 51.999 4s30 6.5 44 11.5s27.667 11.167 41 18.5
s27.666 15.666 42.999 24.999c17.333 11.333 36.166 21.166 56.499 29.499s42.166 12.833 65.499 13.5c16.667 0 30.667 -3.66699 42 -11c-19.333 -26.667 -36.166 -53 -50.499 -79s-28.166 -56.667 -41.499 -92c-12 9.33301 -27.333 16.166 -46 20.499s-36.667 6.5 -54 6.5
h-411c22.667 30 43.834 59.667 63.501 89s39.834 61.333 60.501 96l275 467h-26c-36 0 -69 -7.16699 -99 -21.5s-57.667 -32.166 -83 -53.499c-15.333 -12 -31.666 -22.167 -48.999 -30.5s-35.666 -12.5 -54.999 -12.5c-7.33301 0 -14.333 1 -21 3s-13 4 -19 6
c15.333 30 28.666 60.5 39.999 91.5s18.666 61.5 21.999 91.5z" />
    <glyph glyph-name="bracketleft" unicode="[" horiz-adv-x="385" 
d="M140 -112c-12.667 0 -19 6.33105 -19 18.998v819c0 12.667 6.33301 19 19 19h210v-19c-9.33301 -1.33301 -19.5 -3.16602 -30.5 -5.49902s-21.5 -7.16602 -31.5 -14.499s-18.333 -17.833 -25 -31.5s-10 -32.5 -10 -56.5v-603c0 -20 3.33301 -36.5 10 -49.5
s15 -23.667 25 -32s20.5 -14.5 31.5 -18.5s21.167 -6.66699 30.5 -8v-19h-210z" />
    <glyph glyph-name="backslash" unicode="\" horiz-adv-x="483" 
d="M471 54c-11.333 -6.66699 -19.499 -12.166 -24.499 -16.499s-9.16699 -9.16602 -12.5 -14.499s-7 -11.833 -11 -19.5s-11 -18.5 -21 -32.5l-392 658c3.33301 3.33301 8.66602 8.16602 15.999 14.499s15 13.5 23 21.5l24 24.5c8 8.33301 14 16.166 18 23.499z" />
    <glyph glyph-name="bracketright" unicode="]" horiz-adv-x="385" 
d="M245 745c12.667 0 19 -6.33105 19 -18.998v-819c0 -12.667 -6.33301 -19 -19 -19h-210v19c8.66699 1.33301 18.667 3.16602 30 5.49902s22 7.16602 32 14.499s18.333 17.833 25 31.5s10 32.5 10 56.5v603c0 20 -3.33301 36.5 -10 49.5s-15 23.667 -25 32
s-20.667 14.5 -32 18.5s-21.333 6.66699 -30 8v19h210z" />
    <glyph glyph-name="asciicircum" unicode="^" 
d="M268 725l225 -190l-49 -51l-176 123l-175 -123l-49 51z" />
    <glyph glyph-name="underscore" unicode="_" horiz-adv-x="514" 
d="M514 -17v-77h-514v77h514z" />
    <glyph glyph-name="grave" unicode="`" horiz-adv-x="412" 
d="M168 574l-154 148c22 0 44 0.666992 66 2s43.667 4 65 8l141 -158h-118z" />
    <glyph glyph-name="a" unicode="a" horiz-adv-x="521" 
d="M74 362c-1.33301 -3.33301 -4.00586 -5.00195 -8.00586 -5.00195c-1.33301 0 -2.66602 1 -3.99902 3s-2 4 -2 6c0 12.667 4 28 12 46s20.333 35.333 37 52s37.667 31 63 43s55.666 18 90.999 18c20.667 0 40.834 -2.16699 60.501 -6.5s37.5 -11.333 53.5 -21
s29.167 -22 39.5 -37s16.5 -32.833 18.5 -53.5l30 -309c0.666992 -8.66699 2.33398 -18 5.00098 -28s6.33398 -19.5 11.001 -28.5s10 -17 16 -24s13 -11.5 21 -13.5l-1 -4h-172l-8 19c-25.333 -14.667 -46.666 -24.5 -63.999 -29.5s-36 -7.5 -56 -7.5
c-28.667 0 -54.667 4 -78 12s-43.166 19 -59.499 33s-29 30.167 -38 48.5s-13.5 38.166 -13.5 59.499c0 28.667 6 54.334 18 77.001s29.333 43.834 52 63.501s50 38.334 82 56.001s68 36.167 108 55.5c-5.33301 15.333 -16.833 26.833 -34.5 34.5s-35.834 11.5 -54.501 11.5
c-25.333 0 -49.666 -7 -72.999 -21s-40.666 -30.667 -51.999 -50zM302.994 343.998c-23.333 -14 -43 -27.665 -59 -40.998s-29 -27.333 -39 -42s-17.167 -30.334 -21.5 -47.001s-6.5 -35.334 -6.5 -56.001c0 -12 2.16699 -24.833 6.5 -38.5s10.5 -26.5 18.5 -38.5
s17.667 -22 29 -30s24.333 -12 39 -12c26 0 47 8.66699 63 26z" />
    <glyph glyph-name="b" unicode="b" horiz-adv-x="542" 
d="M27 708c30 4.66699 58.999 10.668 86.999 18.001s56.333 18 85 32v-303c18.667 18 39.334 33 62.001 45s48.334 18 77.001 18c22.667 0 44.167 -6.16699 64.5 -18.5s38 -28.666 53 -48.999s27 -43.833 36 -70.5s13.5 -54.334 13.5 -83.001
c0 -44 -6.5 -85.167 -19.5 -123.5s-30.5 -71.5 -52.5 -99.5s-47.833 -50 -77.5 -66s-61.5 -24 -95.5 -24c-16 0 -30.833 2 -44.5 6s-26.5 8.5 -38.5 13.5s-23.333 9.5 -34 13.5s-21 6 -31 6c-9.33301 0 -18.333 -1.66699 -27 -5s-17.334 -7.66602 -26.001 -12.999l-5 2
c3.33301 13.333 6.33301 28.333 9 45s4 33.667 4 51v498c0 25.333 -2.33301 46.166 -7 62.499s-15.667 31.166 -33 44.499zM198.999 102.001c0 -26 3.83008 -45.501 11.4971 -58.501s20.5 -19.5 38.5 -19.5c16 0 30.333 5.5 43 16.5s23.334 26.667 32.001 47
s15.334 44.833 20.001 73.5s7 60.667 7 96c0 24.667 -1.33301 48 -4 70s-7.16699 41.333 -13.5 58s-14.666 29.834 -24.999 39.501s-23.166 14.5 -38.499 14.5c-14.667 0 -28.334 -6 -41.001 -18s-22.667 -24.667 -30 -38v-281z" />
    <glyph glyph-name="c" unicode="c" horiz-adv-x="491" 
d="M266 524c54 0 96.999 -10.667 128.999 -32s48 -50 48 -86c0 -28 -8.83301 -49.833 -26.5 -65.5s-39.167 -23.5 -64.5 -23.5c-22.667 0 -42.834 7.83301 -60.501 23.5s-26.5 37.5 -26.5 65.5c0 15.333 2.5 28.833 7.5 40.5s11.5 21.834 19.5 30.501
c-2.66699 0 -5.66699 0.166992 -9 0.5s-6.66602 0.5 -9.99902 0.5c-32 0 -58.167 -13.5 -78.5 -40.5s-30.5 -63.5 -30.5 -109.5c0 -36 6.16699 -70 18.5 -102s29 -60 50 -84s45.667 -43 74 -57s58.5 -21 90.5 -21c12.667 0 24.667 2.16699 36 6.5
s20.666 9.16602 27.999 14.499l5 -2l1 -5c-18 -30 -44.667 -53.5 -80 -70.5s-76 -25.5 -122 -25.5c-31.333 0 -60.666 7.33301 -87.999 22s-51.5 35 -72.5 61s-37.5 56.667 -49.5 92s-18 73.666 -18 114.999c0 34.667 5.66699 67.334 17 98.001s27.333 57.5 48 80.5
s44.834 41 72.501 54s58.167 19.5 91.5 19.5z" />
    <glyph glyph-name="d" unicode="d" horiz-adv-x="543" 
d="M226 -17c-27.333 0 -52.4971 6.66699 -75.4971 20s-43 31.5 -60 54.5s-30.167 49.833 -39.5 80.5s-14 63.667 -14 99c0 28.667 3.66699 60 11 94s19.166 65.667 35.499 95s37.333 53.666 63 72.999s56.834 29 93.501 29c21.333 0 39.666 -4 54.999 -12
s31.666 -20.667 48.999 -38v106c0 18 -0.5 33.667 -1.5 47s-3.33301 25 -7 35s-9 18.833 -16 26.5s-16.5 14.5 -28.5 20.5c30 5.33301 60.833 11.5 92.5 18.5s62.5 15.833 92.5 26.5v-656c0 -14 1.16699 -26 3.5 -36s5.66602 -19 9.99902 -27s9.83301 -15.333 16.5 -22
s14.334 -13.667 23.001 -21c-9.33301 1.33301 -23.333 2.33301 -42 3s-37.334 1 -56.001 1h-82l-2 40c-21.333 -19.333 -40.5 -33.666 -57.5 -42.999s-38.167 -14 -63.5 -14zM183.003 284c0 -22 1.66797 -46.168 5.00098 -72.501s9 -51 17 -74s18.333 -42.333 31 -58
s28.667 -23.5 48 -23.5c16.667 0 30.667 6.5 42 19.5s17 30.167 17 51.5v270c0 12.667 -2.16699 24 -6.5 34s-10 18.333 -17 25s-14.667 11.667 -23 15s-16.5 5 -24.5 5c-18 0 -32.833 -4.16699 -44.5 -12.5s-20.834 -20.666 -27.501 -36.999s-11.167 -36.5 -13.5 -60.5
s-3.5 -51.333 -3.5 -82z" />
    <glyph glyph-name="e" unicode="e" horiz-adv-x="513" 
d="M37 259c0 32 5.16992 64 15.5029 96s25.166 60.833 44.499 86.5s42.666 46.667 69.999 63s58 24.5 92 24.5c31.333 0 60 -6.66699 86 -20s48.167 -31 66.5 -53s32.666 -47.333 42.999 -76s15.5 -58 15.5 -88c0 -9.33301 -0.333008 -15 -1 -17h-306
c7.33301 -30.667 19.166 -58.167 35.499 -82.5s35 -45 56 -62s43.333 -30.167 67 -39.5s46.834 -14 69.501 -14c21.333 0 41.166 3.16699 59.499 9.5s35.166 14.833 50.499 25.5c-10 -22.667 -25.667 -43 -47 -61s-45 -31.667 -71 -41
c-15.333 -5.33301 -31.166 -10.166 -47.499 -14.499s-32.166 -6.5 -47.499 -6.5c-36.667 0 -70.334 7.5 -101.001 22.5s-57.167 35 -79.5 60s-39.666 53.667 -51.999 86s-18.5 66.166 -18.5 101.499zM148.003 376c0 -24 1.66699 -43.332 5 -57.999v-4h169
c0 18 -1.66699 36.5 -5 55.5s-8.5 36.333 -15.5 52s-16 28.5 -27 38.5s-24.167 15 -39.5 15c-22 0 -42 -8.33301 -60 -25s-27 -41.334 -27 -74.001z" />
    <glyph glyph-name="f" unicode="f" horiz-adv-x="288" 
d="M78 458l-58 0.00488281v48h58c0 16.667 -2 29.834 -6 39.501s-8.33301 18.5 -13 26.5s-9 16.667 -13 26s-6 22.333 -6 39c0 18.667 4.5 35 13.5 49s20.667 25.833 35 35.5s30.5 16.834 48.5 21.501s35.667 7 53 7c18 0 35.167 -2.66699 51.5 -8s30.5 -12.833 42.5 -22.5
s21.5 -20.667 28.5 -33s10.5 -25.5 10.5 -39.5c0 -18 -5.5 -33.333 -16.5 -46s-24.167 -19 -39.5 -19c-14 0 -26.167 4.66699 -36.5 14s-15.5 20.666 -15.5 33.999c0 7.33301 0.333008 13.166 1 17.499s1.5 8.16602 2.5 11.499l3 10.5c1 3.66699 1.5 8.5 1.5 14.5
c0 8.66699 -3.66699 15.667 -11 21s-16.333 8 -27 8c-11.333 0 -20.166 -3.83301 -26.499 -11.5s-9.5 -17.167 -9.5 -28.5c0 -10 3.16699 -19.833 9.5 -29.5s13.333 -19.834 21 -30.501s14.667 -21.834 21 -33.501s9.5 -24.167 9.5 -37.5v-36h54v-48h-54v-378
c0 -6 1 -12.667 3 -20s5.16699 -14.833 9.5 -22.5s9.66602 -14.834 15.999 -21.501s13.833 -12 22.5 -16h-240c8 4.66699 15.5 10.667 22.5 18s13 15.166 18 23.499s9 16.833 12 25.5s4.5 16.667 4.5 24v367z" />
    <glyph glyph-name="g" unicode="g" horiz-adv-x="553" 
d="M26 -103c0 9.33301 3.33301 17.6699 10 25.0029s14.667 11 24 11c13.333 0 27.333 -4.33301 42 -13c25.333 -15.333 50 -27.333 74 -36s53.667 -13 89 -13c12 0 24.833 1.5 38.5 4.5s26.167 7.66699 37.5 14s20.833 14.666 28.5 24.999s11.5 23.166 11.5 38.499
c0 10.667 -3 21.667 -9 33s-14.667 19.666 -26 24.999v50c-4 -8 -9.66699 -16.167 -17 -24.5s-16.166 -16 -26.499 -23s-22 -12.833 -35 -17.5s-27.5 -7 -43.5 -7c-30.667 0 -57.667 7.16699 -81 21.5s-42.833 32.666 -58.5 54.999s-27.5 47.5 -35.5 75.5s-12 55.667 -12 83
c0 38 6.33301 76 19 114s32 71 58 99c24.667 26.667 49.5 46.667 74.5 60s53.5 20 85.5 20c16 0 30.667 -2 44 -6s26.333 -8.16699 39 -12.5l37.5 -12.5c12.333 -4 25.5 -6 39.5 -6c13.333 0 24.666 1.83301 33.999 5.5s23 12.167 41 25.5l3 -3
c-5.33301 -8.66699 -10 -19.167 -14 -31.5s-7.5 -25.166 -10.5 -38.499s-5.33301 -27.166 -7 -41.499s-2.5 -27.833 -2.5 -40.5v-254c0 -10.667 2 -20.334 6 -29.001s8.5 -17.5 13.5 -26.5s9.5 -18.5 13.5 -28.5s6 -22 6 -36c0 -54 -21.5 -92.5 -64.5 -115.5
s-105.5 -34.5 -187.5 -34.5c-36 0 -68.667 0.833008 -98 2.5s-54.5 4.66699 -75.5 9s-37.167 10.833 -48.5 19.5s-17 20 -17 34zM181 278.004c0 -17.333 0.666992 -36.8359 2 -58.5029s5.16602 -42.167 11.499 -61.5s16 -35.5 29 -48.5s31.167 -19.5 54.5 -19.5
c8 0 16 1.83301 24 5.5s15.167 9.16699 21.5 16.5s11.666 16.333 15.999 27s6.5 23 6.5 37v200c0 30 -5.66699 53.5 -17 70.5s-29.666 25.5 -54.999 25.5c-14 0 -26.333 -4 -37 -12c-11.333 -7.33301 -20.666 -17.666 -27.999 -30.999s-13 -28.166 -17 -44.499
s-6.83301 -33.666 -8.5 -51.999s-2.5 -36.5 -2.5 -54.5z" />
    <glyph glyph-name="h" unicode="h" 
d="M70 640c0 17.333 -4.50195 31.667 -13.502 43s-20.167 19.666 -33.5 24.999c30.667 3.33301 61.667 8.83301 93 16.5s60 18.834 86 33.501v-308c15.333 20 34.333 36.833 57 50.5s48 20.5 76 20.5c46 0 80.5 -10.833 103.5 -32.5s34.5 -52.5 34.5 -92.5v-300
c0 -18.667 3.5 -37.167 10.5 -55.5s19.167 -31.833 36.5 -40.5h-198c6.66699 8.66699 11.5 19.667 14.5 33s4.5 26.333 4.5 39v298c0 14 -1.83301 25.833 -5.5 35.5s-8.5 17.5 -14.5 23.5s-12.5 10.333 -19.5 13s-13.833 4 -20.5 4
c-9.33301 0 -18.666 -1.83301 -27.999 -5.5s-17.666 -9.5 -24.999 -17.5s-13.5 -18.167 -18.5 -30.5s-7.5 -27.5 -7.5 -45.5v-244c0 -26.667 4.5 -47.834 13.5 -63.501s21.167 -28.834 36.5 -39.501h-232c10.667 8.66699 21.667 20.834 33 36.501s17 33.834 17 54.501v549z
" />
    <glyph glyph-name="i" unicode="i" horiz-adv-x="269" 
d="M70 404c0 17.333 -3.83203 33.498 -11.499 48.498s-20.167 26.167 -37.5 33.5c34 3.33301 65.167 9.33301 93.5 18s57.5 19 87.5 31v-428c0 -27.333 4.16699 -48.666 12.5 -63.999s21.166 -29.666 38.499 -42.999h-235v4c14.667 7.33301 27 17.833 37 31.5
s15 28.167 15 43.5v325zM54.001 662.998c0 22 7.5 40.833 22.5 56.5s33.167 23.5 54.5 23.5c22 0 40.667 -7.83301 56 -23.5s23 -34.5 23 -56.5s-7.66699 -40.667 -23 -56s-34 -23 -56 -23c-21.333 0 -39.5 7.66699 -54.5 23s-22.5 34 -22.5 56z" />
    <glyph glyph-name="j" unicode="j" horiz-adv-x="264" 
d="M54 663c0 22 7.5 40.833 22.5 56.5s33.167 23.5 54.5 23.5c22 0 40.667 -7.83301 56 -23.5s23 -34.5 23 -56.5s-7.66699 -40.667 -23 -56s-34 -23 -56 -23c-21.333 0 -39.5 7.66699 -54.5 23s-22.5 34 -22.5 56zM199 -56c0 -25.333 -5.33301 -45.501 -16 -60.501
s-24 -26.5 -40 -34.5s-33.333 -13.333 -52 -16s-36.334 -4 -53.001 -4c-13.333 0 -24 1.33301 -32 4c8 2.66699 15.667 6 23 10s13.833 9.5 19.5 16.5s10.167 16 13.5 27s5 24.5 5 40.5v463c0 24.667 -4.66699 44 -14 58s-23.666 24 -42.999 30
c32 4.66699 63.5 11.834 94.5 21.501s62.5 21.167 94.5 34.5v-590z" />
    <glyph glyph-name="k" unicode="k" 
d="M199 250l87.0029 89.001c12 12 22.333 26 31 42s13 32.667 13 50c0 15.333 -5.33301 29.166 -16 41.499s-22.334 22.5 -35.001 30.5v3h246l2 -7c-24.667 -17.333 -52.334 -38.166 -83.001 -62.499s-68 -58.5 -112 -102.5l130 -248c11.333 -22 22.333 -39 33 -51
s23.667 -23.667 39 -35h-238c8.66699 6.66699 15.5 13 20.5 19s7.5 14 7.5 24c0 4.66699 -1.33301 11.667 -4 21s-6.33398 18 -11.001 26l-76 145l-34 -30v-113c0 -21.333 3.5 -39.333 10.5 -54s16.167 -25.334 27.5 -32.001v-6h-218l-1 5
c16 5.33301 28.167 16.833 36.5 34.5s12.5 39.167 12.5 64.5v513c0 22 -3.5 39.5 -10.5 52.5s-17.167 23.833 -30.5 32.5v4c28 2.66699 56.333 8.5 85 17.5s58 20.5 88 34.5v-508z" />
    <glyph glyph-name="l" unicode="l" horiz-adv-x="272" 
d="M20 715c24.667 3.33301 52.668 8.16504 84.001 14.498s64 15.833 98 28.5v-665c0 -19.333 2.66699 -35.666 8 -48.999s17.666 -28 36.999 -44h-227c10 6.66699 20.833 17.834 32.5 33.501s17.5 35.5 17.5 59.5v548c0 16.667 -3.66699 30.667 -11 42s-20.333 22 -39 32z
" />
    <glyph glyph-name="m" unicode="m" horiz-adv-x="782" 
d="M70 344c0 28 -0.499023 50.502 -1.49902 67.502s-3.33301 31 -7 42s-9 19.667 -16 26s-16.833 12.833 -29.5 19.5c19.333 1.33301 36.833 3 52.5 5s30.667 4.5 45 7.5s28.666 6.5 42.999 10.5l45.5 13v-79c4.66699 6.66699 11.167 13.667 19.5 21s17.833 14 28.5 20
s22.167 10.833 34.5 14.5s25.5 5.5 39.5 5.5c38 0 67.667 -6.33301 89 -19s38 -33.334 50 -62.001c14.667 24 31.5 43.5 50.5 58.5s44.5 22.5 76.5 22.5c42 0 73.833 -11.833 95.5 -35.5s32.5 -52.5 32.5 -86.5v-308c0 -20.667 3.66699 -37.5 11 -50.5
s17.666 -25.167 30.999 -36.5h-199c7.33301 8.66699 13.333 19.167 18 31.5s7 24.833 7 37.5v298c0 24.667 -5.16699 41.5 -15.5 50.5s-22.5 13.5 -36.5 13.5c-22 0 -38.333 -6.33301 -49 -19s-19 -31.667 -25 -57v-264c0 -20 3.5 -37.333 10.5 -52s18.5 -27.667 34.5 -39
h-219c14.667 11.333 25.334 25.166 32.001 41.499s10 32.833 10 49.5v270c0 24 -4.5 41.667 -13.5 53s-20.833 17 -35.5 17c-39.333 0 -65 -25.667 -77 -77v-274c0 -20.667 2 -36.834 6 -48.501s10.667 -22.167 20 -31.5h-203c15.333 13.333 26.833 26.833 34.5 40.5
s11.5 30.834 11.5 51.501z" />
    <glyph glyph-name="n" unicode="n" horiz-adv-x="532" 
d="M70 398c0 16 -3.66602 32.166 -10.999 48.499s-17 29.166 -29 38.499v5c30.667 4 60 9.5 88 16.5s56 16.167 84 27.5v-80c19.333 18.667 40.166 34.167 62.499 46.5s47.5 18.5 75.5 18.5c14 0 28.5 -2.16699 43.5 -6.5s28.833 -11.333 41.5 -21s23 -22.167 31 -37.5
s12 -34 12 -56v-326c0 -13.333 3.5 -26.166 10.5 -38.499s15.5 -23.5 25.5 -33.5h-194c6.66699 8.66699 12.667 20.334 18 35.001s8 31.334 8 50.001v278c0 30 -5.33301 51 -16 63s-23.667 18 -39 18c-9.33301 0 -18.333 -1.83301 -27 -5.5s-16.5 -8.33398 -23.5 -14.001
s-13 -12.167 -18 -19.5s-8.5 -14.333 -10.5 -21v-308c0 -19.333 4.33301 -34.833 13 -46.5s17.667 -21.5 27 -29.5h-221c14 12 25.667 27 35 45s14 39.667 14 65v288z" />
    <glyph glyph-name="o" unicode="o" horiz-adv-x="541" 
d="M36 252c0 38 6.16797 73.3311 18.501 105.998s29 61.334 50 86.001s45.833 44 74.5 58s59 21 91 21s62.167 -7 90.5 -21s53.166 -33.167 74.499 -57.5s38.333 -52.833 51 -85.5s19 -67.667 19 -105c0 -36.667 -6.33301 -71.167 -19 -103.5
s-29.834 -60.666 -51.501 -84.999s-46.667 -43.5 -75 -57.5s-58.166 -21 -89.499 -21c-32 0 -62.333 6.66699 -91 20s-53.5 31.833 -74.5 55.5s-37.667 51.667 -50 84s-18.5 67.5 -18.5 105.5zM192.001 133.998c0 -22.667 2.16895 -41.499 6.50195 -56.499
s10.166 -26.833 17.499 -35.5s15.666 -14.834 24.999 -18.501s19 -5.5 29 -5.5c9.33301 0 18.666 2 27.999 6s17.833 10.5 25.5 19.5s13.834 20.833 18.501 35.5s7 33 7 55v30.5v48.5c0 18 -0.166992 37 -0.5 57s-0.5 38.5 -0.5 55.5v43.5v22c0 28 -6 51 -18 69
s-32 27 -60 27c-26 0 -45.5 -9 -58.5 -27s-19.5 -41 -19.5 -69v-257z" />
    <glyph glyph-name="p" unicode="p" horiz-adv-x="534" 
d="M199 450c26.667 18.667 52.668 34.667 78.001 48s50.666 20 75.999 20c20 0 38.833 -5.16699 56.5 -15.5s33 -24.333 46 -42s23.167 -38.5 30.5 -62.5s11 -49.333 11 -76c0 -47.333 -9.16699 -89 -27.5 -125s-42 -67.167 -71 -93.5s-61.167 -48.5 -96.5 -66.5
s-69.666 -32.667 -102.999 -44v-74c0 -16.667 3.5 -32 10.5 -46s19.5 -26 37.5 -36h-231c15.333 8 27.666 20.5 36.999 37.5s14 34.167 14 51.5v471c0 19.333 -3.5 36 -10.5 50s-16.833 26 -29.5 36c28.667 6 57.5 13.333 86.5 22s57.5 18 85.5 28v-83zM199.001 35
c26.667 10.667 49.833 24.665 69.5 41.998s36.167 36.833 49.5 58.5s23.333 44.5 30 68.5s10 48 10 72c0 16 -2.33301 32.833 -7 50.5s-11.167 33.834 -19.5 48.501s-18.333 26.834 -30 36.501s-24.5 14.5 -38.5 14.5c-10.667 0 -22 -1.16699 -34 -3.5
s-22 -6.83301 -30 -13.5v-374z" />
    <glyph glyph-name="q" unicode="q" horiz-adv-x="550" 
d="M508 507c-9.33301 -13.333 -15.8359 -28 -19.5029 -44s-5.5 -40 -5.5 -72v-473c0 -12.667 1.33301 -23.167 4 -31.5s6.33398 -15.333 11.001 -21s10.334 -10.667 17.001 -15s14 -8.83301 22 -13.5h-226c14.667 12 25 23.5 31 34.5s9 25.833 9 44.5v113
c-16.667 -16.667 -35 -28.834 -55 -36.501s-40.667 -11.5 -62 -11.5c-27.333 0 -53 6.33301 -77 19s-44.833 30 -62.5 52s-31.667 47.833 -42 77.5s-15.5 61.167 -15.5 94.5c0 43.333 6.5 83 19.5 119s30.833 67 53.5 93s49.334 46.167 80.001 60.5s63.667 21.5 99 21.5
c21.333 0 39.333 -1.66699 54 -5s27.5 -7.16602 38.5 -11.499l30 -11.5c9 -3.33301 18.167 -5 27.5 -5c11.333 0 22.5 2.83301 33.5 8.5s20.5 12.167 28.5 19.5zM350.997 392c0 26.667 -6.5 47.334 -19.5 62.001s-28.5 22 -46.5 22
c-26.667 -0.666992 -49.167 -16.834 -67.5 -48.501s-27.5 -76.5 -27.5 -134.5c0 -34 3 -65.333 9 -94s14.167 -53.667 24.5 -75s22.5 -38 36.5 -50s28.667 -18 44 -18c17.333 0 33 6 47 18v318z" />
    <glyph glyph-name="r" unicode="r" horiz-adv-x="449" 
d="M26 470c30 7.33301 59.833 16.334 89.5 27.001s58.5 23.334 86.5 38.001v-125c16.667 28 35.834 52.5 57.501 73.5s47.167 31.5 76.5 31.5c12 0 23.833 -2 35.5 -6s22.167 -9.83301 31.5 -17.5s16.833 -16.667 22.5 -27s8.5 -21.833 8.5 -34.5
c0 -22 -7.33301 -40.167 -22 -54.5s-32.334 -21.5 -53.001 -21.5c-8 0 -15.167 1.16699 -21.5 3.5s-12.5 4.83301 -18.5 7.5s-12.667 5.16699 -20 7.5s-16 3.5 -26 3.5c-8 0 -16.167 -2.16699 -24.5 -6.5s-16 -10.833 -23 -19.5s-12.667 -20 -17 -34s-6.5 -30.333 -6.5 -49
v-177c0 -21.333 2.66699 -39.166 8 -53.499s16 -26.5 32 -36.5h-213c10.667 7.33301 20.167 18.166 28.5 32.499s12.5 32.166 12.5 53.499v309c0 10 -1.66699 19 -5 27s-7.33301 15.167 -12 21.5s-9.5 11.666 -14.5 15.999z" />
    <glyph glyph-name="s" unicode="s" horiz-adv-x="509" 
d="M9 106c4 3.33301 11.8291 6.16895 23.4961 8.50195s21.167 3.5 28.5 3.5c22 0 42 -5.33301 60 -16s36 -22.167 54 -34.5s37 -23.833 57 -34.5s43 -16 69 -16c25.333 0 45.166 6 59.499 18s21.5 29.667 21.5 53c0 13.333 -4.66699 25.333 -14 36
s-19.666 19.334 -30.999 26.001c-13.333 8 -29.166 15.5 -47.499 22.5l-56 21l-56.5 21c-18.667 7 -35.334 14.5 -50.001 22.5c-25.333 13.333 -46.166 30 -62.499 50s-24.5 48 -24.5 84c0 22.667 3.83301 43.167 11.5 61.5s18.5 34.166 32.5 47.499
s30.667 23.666 50 30.999s40.666 11 63.999 11c12.667 0 24.5 -1.33301 35.5 -4s21.667 -5.5 32 -8.5s20.333 -5.66699 30 -8s19.5 -3.5 29.5 -3.5c11.333 0 21.833 1.33301 31.5 4s18.167 5.66699 25.5 9c2.66699 -6.66699 6.33398 -14.667 11.001 -24
s9.83398 -18.833 15.501 -28.5l16.5 -27.5c5.33301 -8.66699 10 -15.667 14 -21c-4 -4 -9.5 -7 -16.5 -9s-13.5 -3 -19.5 -3c-20.667 0 -39 4.5 -55 13.5s-31.5 18.833 -46.5 29.5s-30.333 20.5 -46 29.5s-33.167 13.5 -52.5 13.5c-21.333 0 -38.666 -5 -51.999 -15
s-20 -22.667 -20 -38c0 -8.66699 1.83301 -16.834 5.5 -24.501s10.834 -15.5 21.501 -23.5s26 -16 46 -24s46.333 -16.667 79 -26c59.333 -17.333 106.333 -40 141 -68s52 -65.333 52 -112c0 -28 -5.16699 -52.5 -15.5 -73.5s-24.333 -38.5 -42 -52.5s-38 -24.667 -61 -32
s-47.167 -11 -72.5 -11c-14.667 0 -27.667 1 -39 3s-21.833 4.33301 -31.5 7s-19 5 -28 7s-18.833 3 -29.5 3c-11.333 0 -23.333 -2.16699 -36 -6.5s-24 -9.16602 -34 -14.499c-8.66699 19.333 -20 40.166 -34 62.499s-28.667 42.5 -44 60.5z" />
    <glyph glyph-name="t" unicode="t" horiz-adv-x="296" 
d="M69 458l-62.9961 0.000976562c40 24 75.5 50.833 106.5 80.5s60.5 63.5 88.5 101.5v-134h68v-48h-68v-346c0 -16.667 3.5 -30.167 10.5 -40.5s16.5 -15.5 28.5 -15.5c6 0 12.167 1.66699 18.5 5s13.166 9.66602 20.499 18.999c1.33301 -6.66699 2 -11 2 -13
c0 -11.333 -3.5 -21.833 -10.5 -31.5s-15.833 -18 -26.5 -25s-22.334 -12.5 -35.001 -16.5s-24.334 -6 -35.001 -6c-28.667 0 -53.334 8 -74.001 24s-31 43 -31 81v365z" />
    <glyph glyph-name="u" unicode="u" horiz-adv-x="543" 
d="M70 415c0 15.333 -4.99902 30.665 -14.999 45.998s-22.667 26 -38 32v5c11.333 1.33301 25 3.33301 41 6s32.5 5.83398 49.5 9.50098s33.667 7.5 50 11.5s31.166 8 44.499 12v-387c0 -17.333 1.66699 -31.166 5 -41.499s7.66602 -18.166 12.999 -23.499
s11.833 -9 19.5 -11s15.834 -3 24.501 -3c24 0 43.333 7 58 21s22 33.667 22 59v273c0 14 -3.33301 27.167 -10 39.5s-20 22.166 -40 29.499v5c30 2.66699 60.833 7.5 92.5 14.5s61.5 15.167 89.5 24.5v-423c0 -16.667 1 -30.5 3 -41.5s5.16699 -20.667 9.5 -29
s9.66602 -15.833 15.999 -22.5s13.833 -13.667 22.5 -21h-162c-9.33301 0 -16.333 2.16699 -21 6.5s-7 12.833 -7 25.5v17c-28 -27.333 -53.167 -45 -75.5 -53s-43.833 -12 -64.5 -12c-13.333 0 -27.5 2 -42.5 6s-28.667 10.833 -41 20.5s-22.666 22.167 -30.999 37.5
s-12.5 34.333 -12.5 57v310z" />
    <glyph glyph-name="v" unicode="v" horiz-adv-x="574" 
d="M72 422c-5.33301 13.333 -14.665 28.332 -27.998 44.999s-27 29.667 -41 39h249c-7.33301 -5.33301 -15 -13.166 -23 -23.499s-12 -20.166 -12 -29.499c0 -8 0.833008 -15.833 2.5 -23.5s5.5 -18.834 11.5 -33.501l115 -275l22 64c9.33301 28 18.333 58.667 27 92
s13 67 13 101c0 32 -4.5 58.667 -13.5 80s-18.5 37.333 -28.5 48h205c-19.333 -18 -38.333 -43.667 -57 -77s-36.5 -70.333 -53.5 -111s-33 -82.5 -48 -125.5l-40.5 -120.5c5.33301 -15.333 14.166 -29.333 26.499 -42s24.166 -22.667 35.499 -30c-34 0 -64.333 -3 -91 -9
s-53 -13 -79 -21z" />
    <glyph glyph-name="w" unicode="w" horiz-adv-x="782" 
d="M252 506l-0.000976562 -6c-8.66699 -6 -16.667 -14 -24 -24s-11 -23 -11 -39c0 -8.66699 1 -18 3 -28s5.66699 -23 11 -39l75 -231l123 354h6l127 -355c10 24.667 18.5 47 25.5 67s12.833 39 17.5 57s8 35.833 10 53.5s3 36.5 3 56.5c0 24 -4.33301 48 -13 72
s-20 43 -34 57l1 5h206l1 -5c-12 -14.667 -25.167 -33.167 -39.5 -55.5s-28.166 -48.5 -41.499 -78.5l-26.5 -62l-31.5 -77l-31 -79c-10 -26 -18.333 -48.667 -25 -68c4.66699 -12 9.16699 -22.167 13.5 -30.5s9 -15.5 14 -21.5s10.667 -11.333 17 -16s13.5 -9 21.5 -13
c-53.333 -6 -110.333 -18.667 -171 -38l-94 271l-56 -153c8 -22.667 16.5 -40.334 25.5 -53.001s21.167 -23 36.5 -31c-28.667 0 -58 -2.5 -88 -7.5s-56.667 -12.5 -80 -22.5l-146 437c-8 24.667 -17.333 44.334 -28 59.001s-26 28 -46 40v4h249z" />
    <glyph glyph-name="x" unicode="x" 
d="M312 330c16.667 19.333 29.6689 37.001 39.002 53.001s14 34.333 14 55c0 12 -3 23.333 -9 34s-13.333 20.667 -22 30l1 4h178v-12c-22.667 -17.333 -44.334 -37 -65.001 -59s-40.334 -44.333 -59.001 -67l-58 -70l79 -136c14 -24 26.5 -44.333 37.5 -61
s21.333 -31 31 -43s18.834 -22.167 27.501 -30.5s18 -16.5 28 -24.5v-3h-249l-1 5c9.33301 5.33301 16.333 10.666 21 15.999s7 14 7 26c0 9.33301 -2.83301 20.166 -8.5 32.499s-12.834 25.833 -21.501 40.5l-41 72c-15.333 -19.333 -28 -38.333 -38 -57
s-15 -36.667 -15 -54c0 -14 3.16699 -28.167 9.5 -42.5s14.166 -25.166 23.499 -32.499l-2 -6h-214l-2 6c24 17.333 45.5 35 64.5 53s37.5 37.667 55.5 59l99 112l-94 158c-16.667 26.667 -34 47.5 -52 62.5s-35.667 25.167 -53 30.5l42 9.5
c12.667 3 25.334 6.33301 38.001 10s26 8 40 13s30 11.167 48 18.5z" />
    <glyph glyph-name="y" unicode="y" horiz-adv-x="553" 
d="M72 -96c0 10.667 2.17188 20.0029 6.50488 28.0029s9.66602 14.5 15.999 19.5s13.166 8.66699 20.499 11s14 3.5 20 3.5c11.333 0 20.5 -1.5 27.5 -4.5s13.333 -6.5 19 -10.5s11.667 -7.5 18 -10.5s14.166 -4.5 23.499 -4.5c8.66699 0 17.167 5.16699 25.5 15.5
s15.166 22.166 20.499 35.499l-191 416c-7.33301 16 -18.333 31.167 -33 45.5s-29.334 23.166 -44.001 26.499c30 6.66699 59.167 14.167 87.5 22.5s55.833 19.166 82.5 32.499c6 -18.667 12.167 -35 18.5 -49l21.5 -47l129 -285c24 53.333 40 96 48 128s12 58.667 12 80
c0 34 -5 62.5 -15 85.5s-24.667 44.167 -44 63.5h210c-18.667 -25.333 -35.834 -52.5 -51.501 -81.5s-31.167 -62.5 -46.5 -100.5l-134 -331c-7.33301 -18.667 -16.333 -37.667 -27 -57s-22.667 -36.833 -36 -52.5s-28.166 -28.5 -44.499 -38.5s-33.833 -15 -52.5 -15
c-26 0 -47 6.33301 -63 19s-24 31 -24 55z" />
    <glyph glyph-name="z" unicode="z" horiz-adv-x="520" 
d="M426 -37c-8 11.333 -21.999 20.333 -41.999 27s-42.333 10 -67 10h-317c12 12.667 25 27.5 39 44.5l41 52l37 50c11.333 15.667 20 28.167 26 37.5l188 288h-27c-20.667 0 -40.667 -4.5 -60 -13.5s-37.333 -20.167 -54 -33.5c-13.333 -11.333 -27.333 -20.833 -42 -28.5
s-30.667 -11.5 -48 -11.5c-6.66699 0 -12 0.833008 -16 2.5l-11 4.5c12 20.667 21.667 44.167 29 70.5s13 53.833 17 82.5c17.333 -16 35.166 -26.5 53.499 -31.5s43.166 -7.5 74.499 -7.5h266c-12 -14 -26 -31.833 -42 -53.5l-61 -86l-91 -133.5l-131 -196h53
c19.333 0 38.333 3.16699 57 9.5s36.334 14.166 53.001 23.499c8.66699 5.33301 18.5 10.666 29.5 15.999s22.333 10.333 34 15s23 8.33398 34 11.001s21.167 4 30.5 4c8 0 15.5 -0.833008 22.5 -2.5s12.167 -3.83398 15.5 -6.50098c-5.33301 -6 -12.333 -14.667 -21 -26
s-17.5 -23.666 -26.5 -36.999s-17.5 -27.166 -25.5 -41.499s-14 -27.5 -18 -39.5z" />
    <glyph glyph-name="braceleft" unicode="{" horiz-adv-x="297" 
d="M284 752c2.66699 0 4.66602 -2.83008 5.99902 -8.49707s2 -10.167 2 -13.5s-0.666992 -7.66602 -2 -12.999s-3.33301 -8.33301 -6 -9c-17.333 -2 -31 -5.83301 -41 -11.5s-17.5 -12.5 -22.5 -20.5s-8.16699 -17 -9.5 -27s-2 -20 -2 -30
c0 -14.667 0.833008 -28.667 2.5 -42s3.66699 -26.5 6 -39.5s4.33301 -26.333 6 -40s2.5 -28.5 2.5 -44.5c0 -24.667 -6 -47.334 -18 -68.001s-32 -34.334 -60 -41.001c28 -3.33301 48 -15.5 60 -36.5s18 -45.5 18 -73.5c0 -15.333 -0.833008 -29.333 -2.5 -42
s-3.66699 -25.334 -6 -38.001s-4.33301 -26 -6 -40s-2.5 -29.667 -2.5 -47c0 -10 0.833008 -19.833 2.5 -29.5s5 -18.5 10 -26.5s12.5 -14.833 22.5 -20.5s23.333 -9.5 40 -11.5c2.66699 -0.666992 4.66699 -3.83398 6 -9.50098s2 -10.167 2 -13.5
s-0.666992 -7.66602 -2 -12.999s-3.33301 -8 -6 -8c-14 0 -31 1.16699 -51 3.5s-39.333 7.66602 -58 15.999s-34.5 20.333 -47.5 36s-19.5 37.167 -19.5 64.5c0 5.33301 0.5 16.333 1.5 33s2.33301 34.667 4 54s3 38 4 56s1.5 31.333 1.5 40
c0 6.66699 -0.5 14.167 -1.5 22.5s-4.16699 16.5 -9.5 24.5s-13.5 15.333 -24.5 22s-26.5 11.334 -46.5 14.001c-3.33301 0.666992 -6.16602 4.16699 -8.49902 10.5s-3.5 10.166 -3.5 11.499c0 2 1 6.16699 3 12.5s5 9.83301 9 10.5c20 2 35.5 6.16699 46.5 12.5
s19.167 13.666 24.5 21.999s8.5 16.833 9.5 25.5s1.5 16.334 1.5 23.001c0 8.66699 -0.5 21.834 -1.5 39.501s-2.33301 36.167 -4 55.5s-3 37.333 -4 54s-1.5 28 -1.5 34c0 26.667 6.5 48 19.5 64s28.833 28.167 47.5 36.5s38 13.666 58 15.999s37 3.5 51 3.5z" />
    <glyph glyph-name="bar" unicode="|" horiz-adv-x="282" 
d="M93 700h96v-700h-96v700z" />
    <glyph glyph-name="braceright" unicode="}" horiz-adv-x="297" 
d="M13 752c14 0 30.999 -1.16406 50.999 -3.49707s39.333 -7.66602 58 -15.999s34.5 -20.5 47.5 -36.5s19.5 -37.333 19.5 -64c0 -6 -0.5 -17.333 -1.5 -34s-2.33301 -34.667 -4 -54s-3 -37.833 -4 -55.5s-1.5 -30.834 -1.5 -39.501c0 -6.66699 0.5 -14.334 1.5 -23.001
s4.16699 -17.167 9.5 -25.5s13.5 -15.666 24.5 -21.999s26.5 -10.5 46.5 -12.5c4 -0.666992 7 -4.16699 9 -10.5s3 -10.5 3 -12.5c0 -1.33301 -1.16699 -5.16602 -3.5 -11.499s-5.16602 -9.83301 -8.49902 -10.5c-20 -2.66699 -35.5 -7.33398 -46.5 -14.001
s-19.167 -14 -24.5 -22s-8.5 -16.167 -9.5 -24.5s-1.5 -15.833 -1.5 -22.5c0 -8.66699 0.5 -22 1.5 -40s2.33301 -36.667 4 -56s3 -37.333 4 -54s1.5 -27.667 1.5 -33c0 -27.333 -6.5 -48.833 -19.5 -64.5s-28.833 -27.667 -47.5 -36s-38 -13.666 -58 -15.999
s-37 -3.5 -51 -3.5c-3.33301 0 -5.5 2.83301 -6.5 8.5s-1.5 10.167 -1.5 13.5s0.5 7.66602 1.5 12.999s3.16699 8.33301 6.5 9c16.667 2 30 5.83301 40 11.5s17.5 12.5 22.5 20.5s8.16699 16.833 9.5 26.5s2 19.5 2 29.5c0 16 -0.833008 31 -2.5 45s-3.5 27.5 -5.5 40.5
s-3.83301 26 -5.5 39s-2.5 27.167 -2.5 42.5c0 27.333 6.16699 51.666 18.5 72.999s31.833 33.666 58.5 36.999c-26.667 6.66699 -46.167 20.167 -58.5 40.5s-18.5 43.166 -18.5 68.499c0 16 0.833008 30.833 2.5 44.5s3.5 27 5.5 40s3.83301 26.167 5.5 39.5
s2.5 27.333 2.5 42c0 10 -0.666992 20 -2 30s-4.5 19 -9.5 27s-12.5 14.833 -22.5 20.5s-23.333 9.5 -40 11.5c-3.33301 0.666992 -5.5 3.83398 -6.5 9.50098s-1.5 10.167 -1.5 13.5s0.5 7.66602 1.5 12.999s3.16699 8 6.5 8z" />
    <glyph glyph-name="asciitilde" unicode="~" horiz-adv-x="487" 
d="M56 302c20 17.333 40.166 31.165 60.499 41.498s42.166 15.5 65.499 15.5c12.667 0 24.334 -2.33301 35.001 -7s21.167 -10 31.5 -16s20.666 -11.333 30.999 -16s21.833 -7 34.5 -7s23.667 1.16699 33 3.5s18.166 5.83301 26.499 10.5s17 10.834 26 18.501l31.5 27.5v-99
c-20 -17.333 -39.667 -31.333 -59 -42s-40.333 -16 -63 -16c-15.333 0 -28.666 2.5 -39.999 7.5s-22 10.333 -32 16l-29.5 16c-9.66699 5 -20.5 7.5 -32.5 7.5c-21.333 0 -40.666 -4.66699 -57.999 -14s-37.666 -24.666 -60.999 -45.999v99z" />
    <glyph glyph-name="nonbreakingspace" unicode="&#xa0;" horiz-adv-x="214" 
 />
    <glyph glyph-name="currency" unicode="&#xa4;" horiz-adv-x="541" 
d="M271 640c-14 0 -27.167 -3.66699 -39.5 -11s-23 -17.5 -32 -30.5s-16.167 -28.167 -21.5 -45.5s-8 -35.666 -8 -54.999c0 -20 2.66699 -38.833 8 -56.5s12.5 -33 21.5 -46s19.667 -23.333 32 -31s25.5 -11.5 39.5 -11.5s27 3.83301 39 11.5s22.5 18 31.5 31
s16 28.333 21 46s7.5 36.5 7.5 56.5c0 19.333 -2.5 37.666 -7.5 54.999s-12 32.5 -21 45.5s-19.5 23.167 -31.5 30.5s-25 11 -39 11zM156 668c16 12 34.332 20.334 54.999 25.001s40.667 7 60 7c18.667 0 38.334 -2.5 59.001 -7.5s39 -13.5 55 -25.5l39 49
c7.33301 9.33301 16.333 14 27 14c9.33301 0 18 -4 26 -12s12 -16.667 12 -26c0 -10 -3.66699 -18.667 -11 -26l-44 -43c13.333 -16 23.833 -35 31.5 -57s11.5 -44.667 11.5 -68c0 -24 -3.66699 -47.167 -11 -69.5s-17.666 -41.5 -30.999 -57.5l43 -42
c6.66699 -7.33301 10 -14.666 10 -21.999c0 -10 -4.33301 -19.167 -13 -27.5s-18.334 -12.5 -29.001 -12.5c-8.66699 0 -16 3.66699 -22 11l-39 50c-16 -12.667 -34.333 -21.667 -55 -27s-40.334 -8 -59.001 -8c-19.333 0 -39.333 2.5 -60 7.5s-39 13.833 -55 26.5l-40 -49
c-5.33301 -7.33301 -13 -11 -23 -11s-19.333 4.16699 -28 12.5s-13 18.166 -13 29.499c0 6.66699 3.33301 13.334 10 20.001l46 40c-13.333 16 -24.166 35.5 -32.499 58.5s-12.5 46.5 -12.5 70.5c0 23.333 4.33301 46.166 13 68.499s19.667 41.5 33 57.5l-47 42
c-6 6 -9 12 -9 18c0 11.333 4.83301 21.166 14.5 29.499s19.5 12.5 29.5 12.5c8 0 14.333 -3.33301 19 -10z" />
    <glyph glyph-name="brokenbar" unicode="&#xa6;" horiz-adv-x="243" 
d="M74 278h95v-278h-95v278zM74 700h95v-279h-95v279z" />
    <glyph glyph-name="section" unicode="&#xa7;" horiz-adv-x="545" 
d="M234 713c14 0 26.1709 -1.33496 36.5039 -4.00195s20.166 -5.5 29.499 -8.5s18.5 -5.66699 27.5 -8s18.833 -3.5 29.5 -3.5s21 1 31 3s18.333 5 25 9c6.66699 -16 14.167 -32 22.5 -48s18.166 -31.667 29.499 -47c-11.333 -6 -24 -9 -38 -9
c-17.333 0 -33.666 4 -48.999 12s-30.833 16.667 -46.5 26s-31.667 18 -48 26s-33.833 12 -52.5 12c-17.333 0 -32.666 -3.5 -45.999 -10.5s-20 -20.167 -20 -39.5c0 -22.667 8.16699 -40.167 24.5 -52.5s36.5 -22.5 60.5 -30.5s50.333 -15.5 79 -22.5s55 -16.833 79 -29.5
s44.167 -29.667 60.5 -51s24.5 -50 24.5 -86c0 -24.667 -4.33301 -46 -13 -64s-20.667 -33 -36 -45c14.667 -12 26.5 -25 35.5 -39s13.5 -35.333 13.5 -64c0 -25.333 -5.5 -47.666 -16.5 -66.999s-25.333 -35.5 -43 -48.5s-37.834 -22.833 -60.501 -29.5s-46 -10 -70 -10
c-16 0 -29.333 1 -40 3s-20.334 4.16699 -29.001 6.5s-17.5 4.5 -26.5 6.5s-19.5 3 -31.5 3c-11.333 0 -22.5 -1.66699 -33.5 -5s-19.5 -6.66602 -25.5 -9.99902c-8 19.333 -18.833 40.166 -32.5 62.499s-26.167 40.5 -37.5 54.5c16.667 7.33301 34 11 52 11
c15.333 0 30.166 -5 44.499 -15l46.5 -33c16.667 -12 34.834 -23 54.501 -33s42.5 -15 68.5 -15c28.667 0 53.5 7.16699 74.5 21.5s31.5 34.833 31.5 61.5c0 24 -8.5 42.5 -25.5 55.5s-38.333 23.5 -64 31.5s-53.334 14.833 -83.001 20.5s-57.334 13.334 -83.001 23.001
s-47 23 -64 40s-25.5 40.833 -25.5 71.5c0 30 8.16699 54 24.5 72s36.5 33 60.5 45c-22 10.667 -41.667 25.667 -59 45s-26 45.666 -26 78.999c0 16.667 4 32.834 12 48.501s19 29.167 33 40.5s30.833 20.5 50.5 27.5s41.167 10.5 64.5 10.5zM419.004 315.998
c0 20.667 -6.66895 37.4971 -20.002 50.4971s-30.333 23.833 -51 32.5s-43.667 16.167 -69 22.5s-50.333 13.833 -75 22.5c-9.33301 -5.33301 -18.166 -13.166 -26.499 -23.499s-12.5 -22.166 -12.5 -35.499c0 -20 8 -35.5 24 -46.5s35.833 -20 59.5 -27
s49.334 -13.667 77.001 -20s53.5 -15.166 77.5 -26.499c10.667 14.667 16 31.667 16 51z" />
    <glyph glyph-name="copyright" unicode="&#xa9;" horiz-adv-x="731" 
d="M366 670c44 0 85.333 -8.33301 124 -25s72.334 -39.5 101.001 -68.5s51.334 -62.833 68.001 -101.5s25 -80 25 -124s-8.33301 -85.5 -25 -124.5s-39.334 -72.833 -68.001 -101.5s-62.334 -51.334 -101.001 -68.001s-80 -25 -124 -25s-85.5 8.33301 -124.5 25
s-72.833 39.334 -101.5 68.001s-51.334 62.5 -68.001 101.5s-25 80.5 -25 124.5s8.33301 85.333 25 124s39.334 72.5 68.001 101.5s62.5 51.833 101.5 68.5s80.5 25 124.5 25zM366 615c-36.667 0 -71 -7 -103 -21s-60 -33 -84 -57s-43 -52 -57 -84s-21 -66 -21 -102
c0 -36.667 7 -71 21 -103s33 -60 57 -84s52 -43 84 -57s66.333 -21 103 -21c36 0 70 7 102 21s60 33 84 57s43 52 57 84s21 66.333 21 103c0 36 -7 70 -21 102s-33 60 -57 84s-52 43 -84 57s-66 21 -102 21zM378 154c-22 0 -44.5 3.50293 -67.5 10.5029s-44 18.333 -63 34
s-34.5 36.167 -46.5 61.5s-18 56.666 -18 93.999c0 22.667 4 45.667 12 69s19.333 44.333 34 63s32.667 33.834 54 45.501s45.666 17.5 72.999 17.5c12 0 22.167 -1 30.5 -3s15.833 -4 22.5 -6s12.834 -4 18.501 -6s12.167 -3 19.5 -3c11.333 0 22 4 32 12
c2.66699 -9.33301 6.66699 -19.166 12 -29.499s11.166 -20.333 17.499 -30s12.5 -18.167 18.5 -25.5s11.333 -13 16 -17c-11.333 -10 -24.333 -15 -39 -15c-9.33301 0 -20.5 2.66699 -33.5 8s-25.167 14 -36.5 26c-11.333 11.333 -22.333 20.166 -33 26.499
s-25.667 9.5 -45 9.5c-12 0 -23.333 -3 -34 -9s-20 -14 -28 -24s-14.333 -21.833 -19 -35.5s-7 -28.167 -7 -43.5c0 -48 13.167 -85 39.5 -111s62.833 -39 109.5 -39c16.667 0 35.834 3.16699 57.501 9.5s42.167 20.166 61.5 41.499
c-2.66699 -15.333 -8.66699 -30.833 -18 -46.5s-21 -29.834 -35 -42.501s-30 -22.834 -48 -30.501s-37 -11.5 -57 -11.5z" />
    <glyph glyph-name="guillemetleft" unicode="&#xab;" horiz-adv-x="562" 
d="M20 344l264 228l34 -63l-201 -184l201 -184l-34 -63l-264 226v40zM247 344l264 228l34 -63l-201 -184l201 -184l-34 -63l-264 226v40z" />
    <glyph glyph-name="logicalnot" unicode="&#xac;" horiz-adv-x="518" 
d="M500 518v-272h-77v195h-405v77h482z" />
    <glyph glyph-name="softhyphen" unicode="&#xad;" horiz-adv-x="372" 
d="M354 346c-12.667 -22.667 -19 -48.333 -19 -77h-315c6.66699 12.667 11.5 25 14.5 37s4.5 25.333 4.5 40h315z" />
    <glyph glyph-name="registered" unicode="&#xae;" horiz-adv-x="569" 
d="M283 758c36 0 70 -6.83301 102 -20.5s60 -32.5 84 -56.5s42.833 -52 56.5 -84s20.5 -66 20.5 -102s-6.83301 -70 -20.5 -102s-32.5 -60 -56.5 -84s-52 -42.833 -84 -56.5s-66 -20.5 -102 -20.5s-70 6.83301 -102 20.5s-60 32.5 -84 56.5s-42.833 52 -56.5 84
s-20.5 66 -20.5 102s6.83301 70 20.5 102s32.5 60 56.5 84s52 42.833 84 56.5s66 20.5 102 20.5zM283 721c-31.333 0 -60.666 -5.83203 -87.999 -17.499s-51.333 -27.834 -72 -48.501s-36.834 -44.667 -48.501 -72s-17.5 -56.666 -17.5 -87.999
s5.83301 -60.666 17.5 -87.999s27.834 -51.333 48.501 -72s44.667 -36.834 72 -48.501s56.666 -17.5 87.999 -17.5c32 0 62 6.16699 90 18.5s52.333 29.166 73 50.499h-124c8.66699 9.33301 13 18.333 13 27c0 3.33301 -0.666992 7 -2 11s-3.66602 9.33301 -6.99902 16
l-59 99h-28v-107c0 -13.333 1.5 -23.166 4.5 -29.499s7.83301 -11.833 14.5 -16.5h-116c5.33301 3.33301 10.166 9 14.499 17s6.5 18 6.5 30v218c0 12.667 -0.833008 21.5 -2.5 26.5s-6.16699 10.167 -13.5 15.5h181c32.667 0 59 -6.5 79 -19.5s30 -32.5 30 -58.5
c0 -12 -2.5 -22.5 -7.5 -31.5s-11.667 -16.5 -20 -22.5s-17.833 -10.667 -28.5 -14s-22 -5.33301 -34 -6l70 -109c11.333 -18.667 22.333 -32.334 33 -41.001c18.667 20 33.167 42.833 43.5 68.5s15.5 53.5 15.5 83.5c0 31.333 -5.83301 60.666 -17.5 87.999
s-27.834 51.333 -48.501 72s-44.667 36.834 -72 48.501s-56.666 17.5 -87.999 17.5zM239 521.001l22 0.000976562c7.33301 0 14 0.333008 20 1c18.667 0.666992 34 4.16699 46 10.5s18 17.166 18 32.499c0 18.667 -9.5 31.667 -28.5 39s-44.833 11 -77.5 11v-94z" />
    <glyph glyph-name="degree" unicode="&#xb0;" horiz-adv-x="337" 
d="M168 721c18 0 35 -3.33301 51 -10s30 -16 42 -28s21.5 -26 28.5 -42s10.5 -33 10.5 -51s-3.5 -35 -10.5 -51s-16.5 -29.833 -28.5 -41.5s-26 -21 -42 -28s-33 -10.5 -51 -10.5s-35 3.5 -51 10.5s-29.833 16.333 -41.5 28s-21 25.5 -28 41.5s-10.5 33 -10.5 51
s3.5 35 10.5 51s16.333 30 28 42s25.5 21.333 41.5 28s33 10 51 10zM168 677c-23.333 0 -43.166 -8.50391 -59.499 -25.5039s-24.5 -37.5 -24.5 -61.5s8.16699 -44.5 24.5 -61.5s36.166 -25.5 59.499 -25.5c12 0 23.167 2.33301 33.5 7s19.333 10.834 27 18.501
s13.667 16.834 18 27.501s6.5 22 6.5 34s-2.16699 23.333 -6.5 34s-10.333 19.834 -18 27.501s-16.667 13.834 -27 18.501s-21.5 7 -33.5 7z" />
    <glyph glyph-name="plusminus" unicode="&#xb1;" horiz-adv-x="403" 
d="M163 562h76.999v-153h153c-12 -23.333 -18 -49 -18 -77h-135v-153h-77v153h-153c6.66699 12.667 11.334 25 14.001 37s4 25.333 4 40h135v153zM368.999 144c-12.667 -23.333 -19 -49 -19 -77h-308c6.66699 12.667 11.5 25 14.5 37s4.5 25.333 4.5 40h308z" />
    <glyph glyph-name="mu" unicode="&#xb5;" horiz-adv-x="558" 
d="M67 506c21.333 0 42.668 1 64.001 3s42.666 7.66699 63.999 17v-367c0 -32.667 6.66699 -55.5 20 -68.5s30.333 -19.5 51 -19.5c8 0 16.667 2.83301 26 8.5s18 13.5 26 23.5s14.5 21.667 19.5 35s7.5 27.666 7.5 42.999v325c22 0 43.667 1 65 3s42.333 7.66699 63 17
v-391c0 -30 3.33301 -50.667 10 -62s16.334 -17 29.001 -17c6.66699 0 13.167 1.66699 19.5 5s12.833 9.66602 19.5 18.999c1.33301 -4 2 -8 2 -12c0 -12.667 -3.83301 -23.834 -11.5 -33.501s-17 -18 -28 -25s-22.667 -12.333 -35 -16s-23.5 -5.5 -33.5 -5.5
c-26.667 0 -48.5 6 -65.5 18s-28.167 28.667 -33.5 50c-2 -12 -6.33301 -22.5 -13 -31.5s-14.334 -16.5 -23.001 -22.5s-17.667 -10.5 -27 -13.5s-18 -4.5 -26 -4.5c-18 0 -33.667 3.16699 -47 9.5s-24.833 14.5 -34.5 24.5s-17.5 21.5 -23.5 34.5s-10.667 26.5 -14 40.5h-4
c0 -20.667 3.16699 -41.667 9.5 -63s13.333 -42.166 21 -62.499s14.667 -40.166 21 -59.499s9.5 -37.333 9.5 -54c-16 0 -29.833 -0.833008 -41.5 -2.5s-22.167 -4.16699 -31.5 -7.5s-18.333 -7.16602 -27 -11.499l-28 -14.5v688z" />
    <glyph glyph-name="paragraph" unicode="&#xb6;" horiz-adv-x="673" 
d="M584 102c0 -20 4.66602 -39.501 13.999 -58.501s20.666 -33.5 33.999 -43.5h-104v663h-43v-663h-120c18 10 33.167 25 45.5 45s18.5 50 18.5 90v61c0 12 -6.33301 24 -19 36s-26.667 21.333 -42 28l-123 53c-38 16.667 -70.667 32.5 -98 47.5
s-49.666 30.833 -66.999 47.5s-30 34.667 -38 54s-12 42 -12 68c0 30.667 7.16699 56.834 21.5 78.501s32.833 39.167 55.5 52.5s47.834 23.166 75.501 29.499s54.5 9.5 80.5 9.5h362c-11.333 -7.33301 -21 -19.666 -29 -36.999s-12 -36 -12 -56v-505zM428.999 657.999
c-12 3.33301 -28.002 4.99805 -48.002 4.99805c-22 0 -44.667 -2.83301 -68 -8.5s-44.666 -14.667 -63.999 -27s-35.166 -28.166 -47.499 -47.499s-18.5 -42.666 -18.5 -69.999c0 -40 9.83301 -73 29.5 -99s48.5 -48.333 86.5 -67l130 -64v378z" />
    <glyph glyph-name="periodcentered" unicode="&#xb7;" horiz-adv-x="200" 
d="M100 432c22 0 41.167 -8 57.5 -24s24.5 -35.333 24.5 -58s-8.16699 -41.834 -24.5 -57.501s-35.5 -23.5 -57.5 -23.5c-22.667 0 -41.834 7.83301 -57.501 23.5s-23.5 34.834 -23.5 57.501s7.83301 42 23.5 58s34.834 24 57.501 24z" />
    <glyph glyph-name="guillemetright" unicode="&#xbb;" horiz-adv-x="562" 
d="M318 304l-263 -226l-35 63l202 184l-202 184l35 63l263 -228v-40zM544 304l-263 -226l-35 63l202 184l-202 184l35 63l263 -228v-40z" />
    <glyph glyph-name="afii10023" unicode="&#x401;" horiz-adv-x="691" 
d="M224 43l37.9961 0.000976562c32.667 0 61.5 3 86.5 9s47.5 13.5 67.5 22.5s38.167 18.667 54.5 29s32.666 20 48.999 29s33.166 16.5 50.499 22.5s37 9 59 9c6.66699 0 14.667 -1.16699 24 -3.5s15.333 -5.5 18 -9.5c-18 -25.333 -35.5 -53.333 -52.5 -84
s-32.167 -63 -45.5 -97c-14 7.33301 -29.5 13 -46.5 17s-34.833 7 -53.5 9s-37.667 3.16699 -57 3.5s-38.333 0.5 -57 0.5h-312c8.66699 4.66699 17.834 13 27.501 25s14.5 27.333 14.5 46v541c0 21.333 -5 39.666 -15 54.999s-20.333 26.333 -31 33h184
c22.667 0 52.834 0.333008 90.501 1s72.334 2 104.001 4s59 4.66699 82 8s38.5 8 46.5 14c5.33301 -16 11.833 -32.333 19.5 -49s15.667 -33 24 -49s17 -31 26 -45s17.5 -26 25.5 -36c-7.33301 -4.66699 -14.666 -8 -21.999 -10s-18.333 -3 -33 -3
c-22 0 -44.5 4.5 -67.5 13.5s-41.167 19.833 -54.5 32.5c-16 14.667 -32.167 26.834 -48.5 36.501s-34.5 17.5 -54.5 23.5s-43.167 10.5 -69.5 13.5s-50.166 4.83301 -71.499 5.5v-234h69c17.333 0 36 1.16699 56 3.5s39.833 6.5 59.5 12.5s38.5 13.833 56.5 23.5
s33.333 21.834 46 36.501c3.33301 -40 13 -79.833 29 -119.5s36.333 -74.5 61 -104.5l-26 -22c-16 14.667 -33.833 28.167 -53.5 40.5s-40 23.166 -61 32.499s-41.667 17.166 -62 23.499s-39.166 10.5 -56.499 12.5c-13.333 1.33301 -30 2.5 -50 3.5s-31.333 1.5 -34 1.5
h-18.5c-5 0 -10.167 -0.333008 -15.5 -1v-326zM419.996 870.001c16.667 0 30.834 -5.83301 42.501 -17.5s17.5 -26.167 17.5 -43.5c0 -16.667 -5.83301 -30.667 -17.5 -42s-25.834 -17 -42.501 -17s-30.834 5.66699 -42.501 17s-17.5 25.333 -17.5 42
c0 17.333 5.83301 31.833 17.5 43.5s25.834 17.5 42.501 17.5zM233.996 870.001c16.667 0 30.834 -5.66699 42.501 -17s17.5 -25.333 17.5 -42c0 -17.333 -5.83301 -31.833 -17.5 -43.5s-25.834 -17.5 -42.501 -17.5s-30.834 5.83301 -42.501 17.5s-17.5 26.167 -17.5 43.5
c0 16.667 5.83301 30.667 17.5 42s25.834 17 42.501 17z" />
    <glyph glyph-name="afii10053" unicode="&#x404;" horiz-adv-x="710" 
d="M387 -20c-40.667 0 -82.501 6.33496 -125.501 19.002s-82.333 33.667 -118 63s-64.834 67.833 -87.501 115.5s-34 106.5 -34 176.5c0 42.667 7.33301 85.667 22 129s36 82.5 64 117.5s62 63.667 102 86s85.333 33.5 136 33.5c23.333 0 43.5 -1.83301 60.5 -5.5
s32.5 -7.66699 46.5 -12l39.5 -12c12.333 -3.66699 25.166 -5.5 38.499 -5.5c12.667 0 24.167 2 34.5 6s20.5 9.66699 30.5 17c11.333 -36.667 26 -70.5 44 -101.5s35.333 -54.833 52 -71.5c-7.33301 -3.33301 -15.833 -5.5 -25.5 -6.5s-17.5 -1.5 -23.5 -1.5
c-17.333 0 -38.666 5 -63.999 15s-49 26 -71 48c-25.333 25.333 -50 46.166 -74 62.499s-53.667 24.5 -89 24.5c-32 0 -60.5 -7.33301 -85.5 -22s-46.167 -34.167 -63.5 -58.5s-30.5 -52.666 -39.5 -84.999s-13.5 -66.166 -13.5 -101.499c0 -16 1 -31.333 3 -46
c6.66699 16.667 15.167 32.667 25.5 48s21.833 28.666 34.5 39.999s26.5 20.5 41.5 27.5s30.5 10.5 46.5 10.5c17.333 0 33.833 -3.16699 49.5 -9.5s30.5 -13.333 44.5 -21l40 -21.5c12.667 -6.66699 25.167 -10.667 37.5 -12s24.166 1.16699 35.499 7.5s23 18.833 35 37.5
l19 -8c-6.66699 -13.333 -14.667 -28.166 -24 -44.499s-20.166 -31.5 -32.499 -45.5s-26.833 -25.833 -43.5 -35.5s-35.667 -14.5 -57 -14.5c-18 0 -34.667 3.33301 -50 10s-30 14.167 -44 22.5s-27.5 15.833 -40.5 22.5s-26.167 10 -39.5 10
c-10 0 -19.667 -2.83301 -29 -8.5s-17.166 -13.334 -23.499 -23.001s-10.166 -20.667 -11.499 -33s1.33398 -25.5 8.00098 -39.5c12 -28.667 27.833 -54.834 47.5 -78.501s42.167 -44 67.5 -61s53 -30.167 83 -39.5s61.667 -14 95 -14c15.333 0 32.666 1.33301 51.999 4
s39.333 7.66699 60 15s41.5 17.166 62.5 29.499s40.833 28.5 59.5 48.5c-6 -28.667 -18.167 -55.5 -36.5 -80.5s-41.166 -47 -68.499 -66s-58.333 -34 -93 -45s-71.334 -16.5 -110.001 -16.5z" />
    <glyph glyph-name="Icy" unicode="&#x406;" horiz-adv-x="313" 
d="M42 0c9.33301 8.66699 17.001 16.4971 23.001 23.4971s10.833 14.833 14.5 23.5s6.16699 18.834 7.5 30.501s2 26.5 2 44.5v479c0 21.333 -2.66699 39.5 -8 54.5s-16 29.833 -32 44.5h230c-15.333 -8.66699 -28.333 -22.167 -39 -40.5s-16 -39.166 -16 -62.499v-494
c0 -22.667 3.66699 -43.667 11 -63s20.666 -32.666 39.999 -39.999h-233z" />
    <glyph glyph-name="Yicy" unicode="&#x407;" horiz-adv-x="313" 
d="M42 0c9.33301 8.66699 17.001 16.4971 23.001 23.4971s10.833 14.833 14.5 23.5s6.16699 18.834 7.5 30.501s2 26.5 2 44.5v479c0 21.333 -2.66699 39.5 -8 54.5s-16 29.833 -32 44.5h230c-15.333 -8.66699 -28.333 -22.167 -39 -40.5s-16 -39.166 -16 -62.499v-494
c0 -22.667 3.66699 -43.667 11 -63s20.666 -32.666 39.999 -39.999h-233zM248.001 869.997c16.667 0 30.834 -5.83301 42.501 -17.5s17.5 -26.167 17.5 -43.5c0 -16.667 -5.83301 -30.667 -17.5 -42s-25.834 -17 -42.501 -17s-30.834 5.66699 -42.501 17
s-17.5 25.333 -17.5 42c0 17.333 5.83301 31.833 17.5 43.5s25.834 17.5 42.501 17.5zM62.001 869.997c16.667 0 30.834 -5.66699 42.501 -17s17.5 -25.333 17.5 -42c0 -17.333 -5.83301 -31.833 -17.5 -43.5s-25.834 -17.5 -42.501 -17.5s-30.834 5.83301 -42.501 17.5
s-17.5 26.167 -17.5 43.5c0 16.667 5.83301 30.667 17.5 42s25.834 17 42.501 17z" />
    <glyph glyph-name="Jecy" unicode="&#x408;" horiz-adv-x="488" 
d="M446 700c-7.33301 -6 -13.8301 -14.1641 -19.4971 -24.4971s-10.5 -21.5 -14.5 -33.5s-7.16699 -24 -9.5 -36s-3.5 -22.667 -3.5 -32v-289c0 -24.667 0.5 -44.334 1.5 -59.001s2.83301 -26.667 5.5 -36s6.33398 -16.833 11.001 -22.5s10.334 -11.834 17.001 -18.501
c-4.66699 -21.333 -13.334 -41.833 -26.001 -61.5s-28.834 -37.167 -48.501 -52.5s-43 -27.5 -70 -36.5s-57.167 -13.5 -90.5 -13.5c-26.667 0 -51.834 3 -75.501 9s-44.5 14 -62.5 24s-32.167 21.667 -42.5 35s-15.5 27.333 -15.5 42c0 17.333 5.16699 31.166 15.5 41.499
s24.5 15.5 42.5 15.5c17.333 0 33.666 -5.83301 48.999 -17.5s29 -30.167 41 -55.5c6.66699 -13.333 14.667 -26.333 24 -39s20.666 -19 33.999 -19c19.333 0 33.333 9.16699 42 27.5s13 38.833 13 61.5v501c0 16 -3.5 31.667 -10.5 47s-19.833 29.333 -38.5 42h231z" />
    <glyph glyph-name="afii10062" unicode="&#x40e;" horiz-adv-x="669" 
d="M693 701c-15.333 -12.667 -28.6689 -24.502 -40.002 -35.502s-21.833 -22.5 -31.5 -34.5s-19 -25.5 -28 -40.5s-18.5 -32.833 -28.5 -53.5c-18.667 -37.333 -36.667 -75.666 -54 -114.999l-53.5 -119c-18.333 -40 -37.833 -79.833 -58.5 -119.5
s-43.667 -77.834 -69 -114.501c-22 -32 -47.667 -54.5 -77 -67.5s-59.666 -10.5 -90.999 7.5c-24 14.667 -40.167 33.334 -48.5 56.001s-10.5 44.5 -6.5 65.5s13.333 39.167 28 54.5s33.334 23.333 56.001 24c20 0.666992 35.667 -5.5 47 -18.5s17.333 -30.167 18 -51.5
c0 -18 2.33301 -29.167 7 -33.5s10.5 -4.16602 17.5 0.500977s14.5 12.5 22.5 23.5s15.667 23.167 23 36.5l-108 193l-74.5 135l-50 89.5c-13 23 -24 41.667 -33 56s-17 25.833 -24 34.5s-14.5 17 -22.5 25h252c-21.333 -13.333 -32 -28.666 -32 -45.999
c0 -6 0.166992 -12.167 0.5 -18.5s2.83301 -14.833 7.5 -25.5c0.666992 -2.66699 2.33398 -6.83398 5.00098 -12.501s9 -18 19 -37l46.5 -85.5l88.5 -158l29 64c9.33301 21.333 17.666 41.833 24.999 61.5s13.5 38 18.5 55s8.5 32.167 10.5 45.5
c5.33301 35.333 3.33301 65.5 -6 90.5s-22 47.5 -38 67.5zM193.997 843.998c0 16.667 5.50488 29.5 16.5049 38.5s22.833 13.5 35.5 13.5c22.667 0 38.167 -5.66699 46.5 -17s13.166 -24.333 14.499 -39c2.66699 -20.667 8.5 -35 17.5 -43s21.5 -12 37.5 -12
c33.333 0 52.666 18.333 57.999 55c1.33301 14 6.16602 26.833 14.499 38.5s25.166 17.5 50.499 17.5c11.333 0 22.166 -4.83301 32.499 -14.5s15.5 -22.167 15.5 -37.5c0 -17.333 -5.16699 -31.666 -15.5 -42.999s-24 -20.333 -41 -27s-35.5 -11.5 -55.5 -14.5
s-39.667 -4.5 -59 -4.5s-39 1.5 -59 4.5s-38 7.83301 -54 14.5s-29.167 15.667 -39.5 27s-15.5 25.666 -15.5 42.999z" />
    <glyph glyph-name="Acy" unicode="&#x410;" horiz-adv-x="692" 
d="M3 0c26.667 30.667 51.334 72.5 74.001 125.5s42.334 113.833 59.001 182.5l90 363c-4 1.33301 -7.33301 2 -10 2c-13.333 0 -27.833 -5.66699 -43.5 -17s-27.167 -25.666 -34.5 -42.999c-6.66699 -15.333 -13.834 -26.833 -21.501 -34.5s-18.5 -11.5 -32.5 -11.5
c-8.66699 0 -16.167 3.5 -22.5 10.5s-9.5 15.167 -9.5 24.5c0 14.667 5.16699 29.167 15.5 43.5s24 27 41 38s36 19.833 57 26.5s42.167 10 63.5 10c11.333 0 23.666 -1.16699 36.999 -3.5s26.833 -5.33301 40.5 -9s27.167 -8 40.5 -13s26 -10.167 38 -15.5
c14 -6.66699 26.667 -13 38 -19s22.666 -11.167 33.999 -15.5s23 -7.83301 35 -10.5s25.667 -4 41 -4h11v-9c-18.667 -14.667 -28 -37.334 -28 -68.001c0 -13.333 2 -29.333 6 -48l90 -381c4 -15.333 8 -28.833 12 -40.5s9 -22.334 15 -32.001s13 -18.667 21 -27
s17.667 -16.5 29 -24.5h-251c24 24 36 50 36 78c0 7.33301 -0.833008 16.833 -2.5 28.5s-4.16699 23.167 -7.5 34.5l-30 126h-254c-4 -13.333 -6.83301 -28.5 -8.5 -45.5s-2.5 -31.5 -2.5 -43.5c0 -32.667 4.83301 -65.167 14.5 -97.5s24.834 -59.166 45.501 -80.499h-226z
M420 320l-35.999 138.999c-14.667 56.667 -31.334 102.334 -50.001 137.001s-37.667 55.667 -57 63l-86 -339h229z" />
    <glyph glyph-name="Becy" unicode="&#x411;" horiz-adv-x="726" 
d="M224 422l55 0.00488281c22.667 0 49 -0.833008 79 -2.5s60.833 -5.16699 92.5 -10.5s62.834 -12.833 93.501 -22.5s58 -22.667 82 -39s43.333 -36.166 58 -59.499s22 -51.333 22 -84c0 -34 -8 -63.667 -24 -89s-37.333 -46.5 -64 -63.5s-57.334 -29.833 -92.001 -38.5
s-70.334 -13 -107.001 -13h-378c10 8.66699 18 17.667 24 27s10.833 20.666 14.5 33.999s6.16699 29.166 7.5 47.499s2 40.5 2 66.5v434c0 8.66699 -1.33301 17.667 -4 27s-6 18.166 -10 26.499s-8.16699 15.666 -12.5 21.999s-8.5 11.5 -12.5 15.5h408
c24 0 46.167 2.16699 66.5 6.5s37.833 12.166 52.5 23.499c3.33301 -19.333 8.16602 -39 14.499 -59s13.333 -39.167 21 -57.5s15.334 -34.833 23.001 -49.5s14.5 -26.334 20.5 -35.001c-8 -3.33301 -16.667 -5 -26 -5c-20 0 -43.333 5 -70 15s-52.667 25.333 -78 46
c-9.33301 8 -20 16 -32 24s-25.167 15.5 -39.5 22.5s-29.666 12.667 -45.999 17s-33.5 6.5 -51.5 6.5h-89v-233zM309 53.0049c42 0 78.333 3.33398 109 10.001s54.667 18.334 72 35.001c32.667 30.667 49 69.667 49 117c0 42 -13.833 75.667 -41.5 101
s-63.5 42.666 -107.5 51.999c-18 3.33301 -36.667 5.66602 -56 6.99902s-39.333 2 -60 2h-50v-324h85z" />
    <glyph glyph-name="Vecy" unicode="&#x412;" horiz-adv-x="726" 
d="M89 595c-10 -4 -19.4941 -9.99902 -28.4941 -17.999s-16.167 -15 -21.5 -21l-7 49c17.333 23.333 39.166 42.833 65.499 58.5s53.5 28.167 81.5 37.5s55.667 16 83 20s50.666 6 69.999 6c50.667 0 96.167 -5.16699 136.5 -15.5s74.666 -24 102.999 -41
s50.166 -36.5 65.499 -58.5s23 -44.333 23 -67c0 -36.667 -15.5 -67.667 -46.5 -93s-75.833 -41.666 -134.5 -48.999c28.667 -5.33301 56.5 -13 83.5 -23s51.167 -23 72.5 -39s38.5 -35.333 51.5 -58s19.5 -49 19.5 -79c0 -34 -8 -63.667 -24 -89s-37.333 -46.5 -64 -63.5
s-57.334 -29.833 -92.001 -38.5s-70.334 -13 -107.001 -13h-378c10 8.66699 18 17.667 24 27s10.833 20.666 14.5 33.999s6.16699 29.166 7.5 47.499s2 40.5 2 66.5v420zM309.006 53.001c42 0 78.333 3.33398 109 10.001s54.667 18.334 72 35.001
c32.667 30.667 49 69.667 49 117c0 42 -13.833 75.667 -41.5 101s-63.5 42.666 -107.5 51.999c-18 3.33301 -36.667 5.66602 -56 6.99902s-39.333 2 -60 2h-50v-324h85zM224.006 422.002l55.001 -0.00195312c23.333 0 47.166 1.16699 71.499 3.5s46.333 7.83301 66 16.5
s35.834 21.334 48.501 38.001s19 39 19 67c0 10 -2.33301 20.5 -7 31.5s-11.5 21.833 -20.5 32.5s-20.333 20.5 -34 29.5s-29.167 16.167 -46.5 21.5c-14 4.66699 -28.5 7.83398 -43.5 9.50098s-27.167 2.5 -36.5 2.5c-20 0 -36.333 -1.5 -49 -4.5
s-20.334 -5.83301 -23.001 -8.5v-239z" />
    <glyph glyph-name="Gecy" unicode="&#x413;" horiz-adv-x="661" 
d="M48 0c12 12.667 21.832 28.5039 29.499 47.5039s11.5 38.833 11.5 59.5v502c0 8.66699 -1.33301 17.667 -4 27s-6 18.166 -10 26.499s-8.16699 15.666 -12.5 21.999s-8.5 11.5 -12.5 15.5h408c24 0 46.167 2.16699 66.5 6.5s37.833 12.166 52.5 23.499
c3.33301 -19.333 8.16602 -39 14.499 -59s13.333 -39.167 21 -57.5s15.334 -34.833 23.001 -49.5s14.5 -26.334 20.5 -35.001c-8 -3.33301 -16.667 -5 -26 -5c-20 0 -43.333 5 -70 15s-52.667 25.333 -78 46c-9.33301 8 -20 16 -32 24s-25.167 15.5 -39.5 22.5
s-29.666 12.667 -45.999 17s-33.5 6.5 -51.5 6.5h-89v-558c0 -19.333 3.83301 -37.333 11.5 -54s20.167 -31 37.5 -43h-225z" />
    <glyph glyph-name="Decy" unicode="&#x414;" horiz-adv-x="686" 
d="M12 54c6.66699 -3.33301 14.834 -6.33594 24.501 -9.00293s21.5 -4 35.5 -4h7c18 46 33.667 94.833 47 146.5s24.5 102 33.5 151s15.667 94.167 20 135.5s6.5 74.333 6.5 99s-5 48.834 -15 72.501s-28.667 41.834 -56 54.501h504
c-10.667 -4.66699 -20.667 -10.834 -30 -18.501s-17.5 -18.334 -24.5 -32.001s-12.5 -31.167 -16.5 -52.5s-6 -48 -6 -80v-407c1.33301 -25.333 6.5 -43.666 15.5 -54.999s19.667 -18.166 32 -20.499s25.333 -1.16602 39 3.50098s25.5 10.667 35.5 18l5 -2
c-3.33301 -17.333 -5.83301 -35.5 -7.5 -54.5s-1.83398 -38 -0.500977 -57s4.5 -37.5 9.5 -55.5s12.5 -34.333 22.5 -49v-5c-28 6 -50.833 14.333 -68.5 25s-32.5 22.167 -44.5 34.5s-21.833 24.833 -29.5 37.5s-15 24.167 -22 34.5s-15 18.833 -24 25.5s-20.5 10 -34.5 10
h-291c-14 0 -25.167 -3.33301 -33.5 -10s-15.833 -15.167 -22.5 -25.5s-13.334 -21.833 -20.001 -34.5s-15.667 -25.167 -27 -37.5s-25.666 -23.833 -42.999 -34.5s-40 -19 -68 -25v5c20 34 31 70.167 33 108.5s-1 77.833 -9 118.5l5 2c6 -6 12 -10.333 18 -13zM238 565.997
c-4 -54.667 -9.00098 -104.834 -15.001 -150.501s-13.167 -89.167 -21.5 -130.5s-18.166 -81.666 -29.499 -120.999s-24.333 -80.333 -39 -123l274 1v613h-86c-23.333 0 -42.5 -8.16699 -57.5 -24.5s-23.5 -37.833 -25.5 -64.5z" />
    <glyph glyph-name="Iecy" unicode="&#x415;" horiz-adv-x="691" 
d="M224 43l37.9961 0.000976562c32.667 0 61.5 3 86.5 9s47.5 13.5 67.5 22.5s38.167 18.667 54.5 29s32.666 20 48.999 29s33.166 16.5 50.499 22.5s37 9 59 9c6.66699 0 14.667 -1.16699 24 -3.5s15.333 -5.5 18 -9.5c-18 -25.333 -35.5 -53.333 -52.5 -84
s-32.167 -63 -45.5 -97c-14 7.33301 -29.5 13 -46.5 17s-34.833 7 -53.5 9s-37.667 3.16699 -57 3.5s-38.333 0.5 -57 0.5h-312c8.66699 4.66699 17.834 13 27.501 25s14.5 27.333 14.5 46v541c0 21.333 -5 39.666 -15 54.999s-20.333 26.333 -31 33h184
c22.667 0 52.834 0.333008 90.501 1s72.334 2 104.001 4s59 4.66699 82 8s38.5 8 46.5 14c5.33301 -16 11.833 -32.333 19.5 -49s15.667 -33 24 -49s17 -31 26 -45s17.5 -26 25.5 -36c-7.33301 -4.66699 -14.666 -8 -21.999 -10s-18.333 -3 -33 -3
c-22 0 -44.5 4.5 -67.5 13.5s-41.167 19.833 -54.5 32.5c-16 14.667 -32.167 26.834 -48.5 36.501s-34.5 17.5 -54.5 23.5s-43.167 10.5 -69.5 13.5s-50.166 4.83301 -71.499 5.5v-234h69c17.333 0 36 1.16699 56 3.5s39.833 6.5 59.5 12.5s38.5 13.833 56.5 23.5
s33.333 21.834 46 36.501c3.33301 -40 13 -79.833 29 -119.5s36.333 -74.5 61 -104.5l-26 -22c-16 14.667 -33.833 28.167 -53.5 40.5s-40 23.166 -61 32.499s-41.667 17.166 -62 23.499s-39.166 10.5 -56.499 12.5c-13.333 1.33301 -30 2.5 -50 3.5s-31.333 1.5 -34 1.5
h-18.5c-5 0 -10.167 -0.333008 -15.5 -1v-326z" />
    <glyph glyph-name="afii10024" unicode="&#x416;" horiz-adv-x="1039" 
d="M587 348l0.000976562 -264.999c-1.33301 -16 2 -31.5 10 -46.5s18.333 -27.167 31 -36.5h-217c27.333 15.333 41 44.666 41 87.999v260h-57l-128 -221c-8 -15.333 -13.667 -28 -17 -38s-5 -19.333 -5 -28c0 -20 9.33301 -40.333 28 -61h-267
c14.667 11.333 30.167 25.833 46.5 43.5s31.166 38.167 44.499 61.5l106 187c8 14.667 15.333 27.5 22 38.5s14.167 20 22.5 27s18.5 12 30.5 15s27.333 3.83301 46 2.5c-14.667 8 -27 18.833 -37 32.5s-18.833 28.334 -26.5 44.001s-14.5 31.334 -20.5 47.001
s-12 30 -18 43s-12.667 23.833 -20 32.5s-15.666 13.334 -24.999 14.001c-11.333 1.33301 -21.833 -0.5 -31.5 -5.5s-19.167 -7.5 -28.5 -7.5c-19.333 0 -37 6.16699 -53 18.5s-24 32.166 -24 59.499c0 25.333 7.66699 45.333 23 60s37.333 22 66 22
c18 0 33.333 -3.5 46 -10.5s23.667 -16.5 33 -28.5s17.666 -26 24.999 -42s14 -32.667 20 -50l25.5 -73.5c8.33301 -25 18.166 -47.667 29.499 -68s24.666 -37 39.999 -50s34.666 -19.833 57.999 -20.5h46v223c0 28 -3.66699 49 -11 63s-18.333 24.667 -33 32h221
c-28 -22 -42 -47 -42 -75v-243h48c22.667 0.666992 41.834 7.5 57.501 20.5s29.167 29.667 40.5 50s21.166 43 29.499 68l25.5 73.5c6 17.333 12.5 34 19.5 50s15.333 30 25 42s20.834 21.5 33.501 28.5s28 10.5 46 10.5c28.667 0 50.667 -7.33301 66 -22s23 -34.667 23 -60
c0 -27.333 -8 -47.166 -24 -59.499s-33.667 -18.5 -53 -18.5c-9.33301 0 -18.833 2.5 -28.5 7.5s-20.167 6.83301 -31.5 5.5c-10 -0.666992 -18.5 -5.33398 -25.5 -14.001s-13.5 -19.5 -19.5 -32.5s-12 -27.333 -18 -43s-12.833 -31.334 -20.5 -47.001
s-16.5 -30.334 -26.5 -44.001s-22.333 -24.5 -37 -32.5c18.667 1.33301 33.834 0.5 45.501 -2.5s21.834 -8 30.501 -15s16.334 -16 23.001 -27s14 -23.833 22 -38.5l106 -187c13.333 -23.333 28.166 -43.833 44.499 -61.5s31.833 -32.167 46.5 -43.5h-267
c18.667 20.667 28 41 28 61c0 8.66699 -1.66699 18 -5 28s-9 22.667 -17 38l-128 221h-59z" />
    <glyph glyph-name="Zecy" unicode="&#x417;" horiz-adv-x="606" 
d="M272 -14c-36 0 -69.167 4.33496 -99.5 13.002s-56.666 20.667 -78.999 36s-39.833 34 -52.5 56s-19 46 -19 72c0 30.667 8.33301 56.167 25 76.5s40 30.5 70 30.5c19.333 0 36.833 -6.33301 52.5 -19s23.5 -29 23.5 -49c0 -16 -2.83301 -28.667 -8.5 -38
s-11.667 -17.666 -18 -24.999s-12.333 -14.833 -18 -22.5s-8.5 -17.834 -8.5 -30.501c0 -8.66699 2.83301 -16.667 8.5 -24s13 -13.833 22 -19.5s19 -10 30 -13s21.833 -4.5 32.5 -4.5c32 0 59.5 6.16699 82.5 18.5s42 28.166 57 47.499s26.167 40.666 33.5 63.999
s11 46.333 11 69c0 17.333 -2.66699 34.333 -8 51s-13.5 31.334 -24.5 44.001s-25.167 22.834 -42.5 30.501s-38 11.5 -62 11.5h-78v38h81c28.667 0 53.167 12.833 73.5 38.5s30.5 62.834 30.5 111.501c0 34 -6.83301 62.5 -20.5 85.5s-36.167 34.5 -67.5 34.5
c-17.333 0 -31.333 -2.66699 -42 -8s-20.167 -12 -28.5 -20s-16 -16.5 -23 -25.5s-15.5 -17.5 -25.5 -25.5s-22 -14.667 -36 -20s-32 -8 -54 -8c-22.667 0 -41.667 5.33301 -57 16c17.333 20 35.333 43.167 54 69.5s33.667 55.833 45 88.5
c12 -5.33301 26.667 -9.66602 44 -12.999s34.166 -6 50.499 -8s30.666 -3.5 42.999 -4.5s19.5 -1.5 21.5 -1.5c86.667 0 149.334 -14 188.001 -42s58 -66.333 58 -115c0 -16 -2.5 -32.333 -7.5 -49s-13 -32.334 -24 -47.001s-25.667 -28 -44 -40s-40.5 -21.333 -66.5 -28
c27.333 -4.66699 52.833 -11.5 76.5 -20.5s44.167 -21 61.5 -36s30.833 -33.5 40.5 -55.5s14.5 -48.333 14.5 -79s-7.5 -58.834 -22.5 -84.501s-36.167 -47.834 -63.5 -66.501s-60.5 -33.334 -99.5 -44.001s-82.5 -16 -130.5 -16z" />
    <glyph glyph-name="afii10026" unicode="&#x418;" horiz-adv-x="722" 
d="M509 605c-0.666992 20 -3.66602 37.3281 -8.99902 51.9951s-15.666 29 -30.999 43h230c-15.333 -8.66699 -28.333 -22.167 -39 -40.5s-16 -39.166 -16 -62.499v-494c0 -22.667 3.66699 -43.667 11 -63s20.666 -32.666 39.999 -39.999h-233
c9.33301 8.66699 17 16.5 23 23.5s10.833 14.833 14.5 23.5s6.16699 18.834 7.5 30.501s2 26.5 2 44.5v378l-285 -401c0 -21.333 3.66699 -41.333 11 -60s20.666 -31.667 39.999 -39h-233c9.33301 8.66699 17 16.5 23 23.5s10.833 14.833 14.5 23.5
s6.16699 18.834 7.5 30.501s2 26.5 2 44.5v479c0 21.333 -2.66699 39.5 -8 54.5s-16 29.833 -32 44.5h230c-15.333 -8.66699 -28.333 -22.167 -39 -40.5s-16 -39.166 -16 -62.499v-399l285 401v6z" />
    <glyph glyph-name="Ishortcy" unicode="&#x419;" horiz-adv-x="722" 
d="M509 605c-0.666992 20 -3.66602 37.3281 -8.99902 51.9951s-15.666 29 -30.999 43h230c-15.333 -8.66699 -28.333 -22.167 -39 -40.5s-16 -39.166 -16 -62.499v-494c0 -22.667 3.66699 -43.667 11 -63s20.666 -32.666 39.999 -39.999h-233
c9.33301 8.66699 17 16.5 23 23.5s10.833 14.833 14.5 23.5s6.16699 18.834 7.5 30.501s2 26.5 2 44.5v378l-285 -401c0 -21.333 3.66699 -41.333 11 -60s20.666 -31.667 39.999 -39h-233c9.33301 8.66699 17 16.5 23 23.5s10.833 14.833 14.5 23.5
s6.16699 18.834 7.5 30.501s2 26.5 2 44.5v479c0 21.333 -2.66699 39.5 -8 54.5s-16 29.833 -32 44.5h230c-15.333 -8.66699 -28.333 -22.167 -39 -40.5s-16 -39.166 -16 -62.499v-399l285 401v6zM208.001 843.995c0 16.667 5.50488 29.5 16.5049 38.5
s22.833 13.5 35.5 13.5c22.667 0 38.167 -5.66699 46.5 -17s13.166 -24.333 14.499 -39c2.66699 -20.667 8.5 -35 17.5 -43s21.5 -12 37.5 -12c33.333 0 52.666 18.333 57.999 55c1.33301 14 6.16602 26.833 14.499 38.5s25.166 17.5 50.499 17.5
c11.333 0 22.166 -4.83301 32.499 -14.5s15.5 -22.167 15.5 -37.5c0 -17.333 -5.16699 -31.666 -15.5 -42.999s-24 -20.333 -41 -27s-35.5 -11.5 -55.5 -14.5s-39.667 -4.5 -59 -4.5s-39 1.5 -59 4.5s-38 7.83301 -54 14.5s-29.167 15.667 -39.5 27
s-15.5 25.666 -15.5 42.999z" />
    <glyph glyph-name="afii10028" unicode="&#x41a;" horiz-adv-x="674" 
d="M201 348l-0.00195312 -264.992c-1.33301 -16 2 -31.5 10 -46.5s18.333 -27.167 31 -36.5h-217c27.333 15.333 41 44.666 41 87.999v527c0 28 -3.66699 49 -11 63s-18.333 24.667 -33 32h221c-28 -22 -42 -47 -42 -75v-243h66c22.667 0.666992 41.834 7.5 57.501 20.5
s29.167 29.667 40.5 50s21.166 43 29.499 68l25.5 73.5c6 17.333 12.5 34 19.5 50s15.333 30 25 42s20.834 21.5 33.501 28.5s28 10.5 46 10.5c28.667 0 50.167 -8.5 64.5 -25.5s21.5 -38.167 21.5 -63.5c0 -18.667 -3.83301 -34.334 -11.5 -47.001s-17 -21.834 -28 -27.501
s-22.667 -7.83398 -35 -6.50098s-23.5 6.66602 -33.5 15.999c-6.66699 6 -15.334 8.33301 -26.001 7c-10 -0.666992 -18.5 -5.33398 -25.5 -14.001s-13.5 -19.5 -19.5 -32.5s-12 -27.333 -18 -43s-12.833 -31.334 -20.5 -47.001s-16.667 -30.334 -27 -44.001
s-22.5 -24.5 -36.5 -32.5c18.667 1.33301 33.834 0.5 45.501 -2.5s21.834 -8 30.501 -15s16.334 -16 23.001 -27s14 -23.833 22 -38.5l106 -187c13.333 -23.333 28.166 -43.833 44.499 -61.5s31.833 -32.167 46.5 -43.5h-267c18.667 20.667 28 41 28 61
c0 8.66699 -1.66699 18 -5 28s-9 22.667 -17 38l-128 221h-77z" />
    <glyph glyph-name="afii10029" unicode="&#x41b;" horiz-adv-x="721" 
d="M482 122l0.000976562 525l-91 1c-23.333 0 -42.5 -7 -57.5 -21s-23.5 -34.333 -25.5 -61c-4 -56 -8.83301 -113.333 -14.5 -172s-13.667 -113.5 -24 -164.5s-23.666 -95.667 -39.999 -134s-37.166 -65.5 -62.499 -81.5c-18 -14 -37.167 -21.5 -57.5 -22.5
s-39.333 3 -57 12s-32.167 21.667 -43.5 38s-17 35.166 -17 56.499c0 29.333 9 53.5 27 72.5s39.667 28.5 65 28.5c21.333 0 38 -5.83301 50 -17.5s18 -27.834 18 -48.501c0 -9.33301 0.166992 -18.333 0.5 -27s3.83301 -13 10.5 -13c11.333 10.667 21.666 27.667 30.999 51
s17.333 50 24 80s12.5 62 17.5 96s9.16699 67 12.5 99s5.66602 61.5 6.99902 88.5s2 48.833 2 65.5c0 24.667 -5 48.834 -15 72.501s-28.667 41.834 -56 54.501h508c-10.667 -4.66699 -20.667 -10.834 -30 -18.501s-17.5 -18.334 -24.5 -32.001s-12.5 -31.167 -16.5 -52.5
s-6 -48 -6 -80v-414c0 -22.667 3.66699 -43.667 11 -63s20.666 -32.666 39.999 -39.999h-233c9.33301 8.66699 17 16.5 23 23.5s10.833 14.833 14.5 23.5s6.16699 18.834 7.5 30.501s2 26.5 2 44.5z" />
    <glyph glyph-name="Emcy" unicode="&#x41c;" horiz-adv-x="841" 
d="M353 700c-9.33301 -8.66699 -17.001 -18.666 -23.001 -29.999s-9 -24.333 -9 -39c0 -7.33301 0.5 -13.5 1.5 -18.5s2.83301 -11.167 5.5 -18.5l103 -267l104 329c-2.66699 6.66699 -8.33398 13.834 -17.001 21.501s-19.334 15.167 -32.001 22.5h273
c-19.333 -8.66699 -32.833 -20.667 -40.5 -36s-11.5 -32 -11.5 -50c0 -4 0.166992 -9.66699 0.5 -17s0.5 -12.666 0.5 -15.999l53 -398c6 -48 14.167 -86.167 24.5 -114.5s27.833 -51.166 52.5 -68.499h-249c12 11.333 21.5 24.833 28.5 40.5s10.5 32.834 10.5 51.501
c0 4 -0.166992 8 -0.5 12s-0.5 7.66699 -0.5 11l-67 467l-167 -534l-206 511l-25 -201c-1.33301 -10 -2.66602 -21 -3.99902 -33s-2.5 -24 -3.5 -36s-1.83301 -23.333 -2.5 -34s-1 -19.334 -1 -26.001c0 -16.667 1.16699 -35.834 3.5 -57.501s5.83301 -43.334 10.5 -65.001
s10.334 -42 17.001 -61s14.334 -34.167 23.001 -45.5h-202l27 53.5c9.33301 19 18.5 42.167 27.5 69.5s18 60.666 27 99.999s17.5 87.666 25.5 144.999l39 266c-19.333 24 -41.333 46 -66 66h270z" />
    <glyph glyph-name="Ency" unicode="&#x41d;" horiz-adv-x="705" 
d="M486 315l-25.9971 286.002c-2.66699 38.667 -18.334 71.667 -47.001 99h224c-16.667 -18.667 -27.334 -37.667 -32.001 -57s-7 -36 -7 -50v-4l42 -488c0.666992 -6.66699 2.16699 -14.667 4.5 -24s5.5 -19 9.5 -29s8.83301 -19.333 14.5 -28
s11.834 -15.334 18.501 -20.001h-222c11.333 9.33301 20.666 23 27.999 41s11 35 11 51v7l-14 163h-276l-13 -145c-0.666992 -2 -1 -7 -1 -15c0 -22.667 4 -43 12 -61s17.667 -31.667 29 -41h-222c7.33301 9.33301 15.666 22.5 24.999 39.5s15.333 37.5 18 61.5l46 488
c0 2.66699 0.166992 5.16699 0.5 7.5s0.5 4.83301 0.5 7.5c0 13.333 -2 28.166 -6 44.499s-14.667 33.5 -32 51.5h224c-7.33301 -7.33301 -13.5 -14.333 -18.5 -21s-9.5 -14 -13.5 -22s-7.33301 -17 -10 -27s-5 -22 -7 -36l-28 -279h268z" />
    <glyph glyph-name="Ocy" unicode="&#x41e;" horiz-adv-x="764" 
d="M25 322c0 56.667 8.49902 107.826 25.499 153.493s43.5 85.5 79.5 119.5c9.33301 9.33301 20.5 19.5 33.5 30.5l35.5 29.5c6.66699 6 13 9 19 9s10.667 -1.33301 14 -4c-0.666992 -1.33301 -3 -4.33301 -7 -9s-7.66699 -8.66699 -11 -12
c-19.333 -22 -35.166 -48.333 -47.499 -79s-18.5 -70 -18.5 -118c0 -44 8.33301 -89.667 25 -137s39.334 -90.5 68.001 -129.5s61.834 -71.167 99.501 -96.5s77.5 -38 119.5 -38c18.667 0 39.334 3.66699 62.001 11s43.5 19.5 62.5 36.5s35 39.333 48 67
s19.5 61.834 19.5 102.501c0 36.667 -5.83301 74.334 -17.5 113.001s-28.834 73.834 -51.501 105.501s-50.667 57.667 -84 78s-71.666 30.5 -114.999 30.5c-22 0 -41.333 -3.33301 -58 -10s-30.667 -15.667 -42 -27s-19.833 -24.5 -25.5 -39.5s-8.5 -30.833 -8.5 -47.5
c0 -11.333 1.83301 -22.666 5.5 -33.999s9 -21.5 16 -30.5s15.5 -16.333 25.5 -22s21.667 -8.5 35 -8.5c19.333 0 35.333 5.5 48 16.5s19 26.167 19 45.5c0 6 -1.66699 11.5 -5 16.5s-7.33301 7.83301 -12 8.5c-1.33301 -6.66699 -4 -12.334 -8 -17.001s-9.66699 -7 -17 -7
c-8.66699 0 -16.167 3.33301 -22.5 10s-9.5 14.334 -9.5 23.001c0 11.333 4.66699 21.5 14 30.5s20 13.5 32 13.5c10 0 19.333 -2.33301 28 -7s16.167 -10.834 22.5 -18.501s11.333 -16.334 15 -26.001s5.5 -19.5 5.5 -29.5c0 -15.333 -3.16699 -29 -9.5 -41
s-14.666 -22.5 -24.999 -31.5s-21.833 -15.833 -34.5 -20.5s-25.334 -7 -38.001 -7c-22.667 0 -43.334 4.83301 -62.001 14.5s-34.834 22.334 -48.501 38.001s-24.167 33.5 -31.5 53.5s-11 40.333 -11 61c0 30.667 6.83301 59.834 20.5 87.501s31.667 51.834 54 72.501
s47.5 37.167 75.5 49.5s56.333 18.5 85 18.5c48.667 0 92.667 -9.66699 132 -29s73 -45.5 101 -78.5s49.5 -71 64.5 -114s22.5 -88.5 22.5 -136.5c0 -38 -5.83301 -79.167 -17.5 -123.5s-31.334 -85.666 -59.001 -123.999s-64.5 -70.166 -110.5 -95.499
s-103.333 -38 -172 -38c-53.333 0 -101.5 9.66699 -144.5 29s-79.833 45 -110.5 77s-54.5 68.333 -71.5 109s-25.833 82.667 -26.5 126z" />
    <glyph glyph-name="afii10033" unicode="&#x41f;" horiz-adv-x="685" 
d="M209 654l-0.996094 -555.004c0 -21.333 3.66699 -41.333 11 -60s20.666 -31.667 39.999 -39h-233c9.33301 8.66699 17 16.5 23 23.5s10.833 14.833 14.5 23.5s6.16699 18.834 7.5 30.501s2 26.5 2 44.5v479c0 21.333 -2.66699 39.5 -8 54.5s-16 29.833 -32 44.5h634
c-15.333 -8.66699 -28.333 -22.167 -39 -40.5s-16 -39.166 -16 -62.499v-494c0 -22.667 3.66699 -43.667 11 -63s20.666 -32.666 39.999 -39.999h-233c9.33301 8.66699 17.166 16.5 23.499 23.5s11.333 14.833 15 23.5s6.16699 18.834 7.5 30.501
s1.66602 26.5 0.999023 44.5v532h-268z" />
    <glyph glyph-name="Ercy" unicode="&#x420;" horiz-adv-x="633" 
d="M395 700c36.667 0 69.168 -4.66504 97.501 -13.998s52.166 -21.833 71.499 -37.5s34 -33.834 44 -54.501s15 -42.334 15 -65.001c0 -26 -4.33301 -48.667 -13 -68s-19.834 -36.166 -33.501 -50.499s-28.5 -26.166 -44.5 -35.499s-31 -16.666 -45 -21.999l-77 -29.5
c-26 -10.333 -49.667 -24.5 -71 -42.5c-15.333 -13.333 -25.833 -26 -31.5 -38s-8.5 -23.667 -8.5 -35c8 6 18.667 9 32 9c12.667 0 23.5 -4.33301 32.5 -13s13.5 -18.667 13.5 -30c0 -13.333 -5 -24.666 -15 -33.999s-23 -14 -39 -14c-18.667 0 -34.667 8.33301 -48 25
s-20 37.667 -20 63c0 27.333 8.5 51.666 25.5 72.999s45.5 45 85.5 71c16.667 11.333 31.334 22 44.001 32s23.5 20.833 32.5 32.5s15.833 24.834 20.5 39.501s7 32 7 52c0 20.667 -5 40.167 -15 58.5s-23.667 34.166 -41 47.499s-37.833 23.833 -61.5 31.5
s-49.5 11.5 -77.5 11.5c-18.667 0 -35.667 -1.33301 -51 -4v-507c0 -24.667 1.33301 -45.334 4 -62.001s6.66699 -30.834 12 -42.501s12.166 -21 20.499 -28s18.5 -13.5 30.5 -19.5h-254c17.333 8 30.333 22.5 39 43.5s13 45.5 13 73.5v472
c0 25.333 -3.16699 47.666 -9.5 66.999s-17.166 34 -32.499 44h348z" />
    <glyph glyph-name="Escy" unicode="&#x421;" horiz-adv-x="706" 
d="M391 -20c-40.667 0 -82.4961 6.33887 -125.496 19.0059s-82.333 33.667 -118 63s-64.834 67.833 -87.501 115.5s-34 106.5 -34 176.5c0 42.667 7.33301 85.667 22 129s36 82.5 64 117.5s62 63.667 102 86s85.333 33.5 136 33.5c23.333 0 44.333 -2 63 -6
s35.5 -9 50.5 -15s28.333 -12.5 40 -19.5s21.834 -13.5 30.501 -19.5c21.333 -15.333 39.166 -26.333 53.499 -33s29.5 -10 45.5 -10c8.66699 0 18 1.66699 28 5c2 -4.66699 4 -12.167 6 -22.5s3 -21.833 3 -34.5c0 -30.667 -4.33301 -61.334 -13 -92.001
s-22 -58.334 -40 -83.001s-40.667 -44.667 -68 -60s-60 -23 -98 -23c-24 0 -46 3.66699 -66 11s-37.333 17.333 -52 30s-26 27.5 -34 44.5s-12 35.167 -12 54.5c0 23.333 5.83301 44.166 17.5 62.499s29.167 27.5 52.5 27.5c16.667 0 30 -5 40 -15s15 -22.667 15 -38
s-4.66699 -27.5 -14 -36.5s-20.666 -13.5 -33.999 -13.5c-6 0 -12 1 -18 3s-10.667 3.66699 -14 5c0 -22 7 -39.5 21 -52.5s32.667 -19.5 56 -19.5c17.333 0 32.666 3.66699 45.999 11s24.5 17.166 33.5 29.499s15.833 26.666 20.5 42.999s7 33.5 7 51.5
c0 25.333 -4 48.5 -12 69.5s-19.333 39.167 -34 54.5s-32.334 27.166 -53.001 35.499s-43.334 12.5 -68.001 12.5c-32 0 -60.5 -7.33301 -85.5 -22s-46.167 -34.167 -63.5 -58.5s-30.5 -52.666 -39.5 -84.999s-13.5 -66.166 -13.5 -101.499
c0 -45.333 8.33301 -87.333 25 -126s39.5 -72.334 68.5 -101.001s62.667 -51.167 101 -67.5s79.5 -24.5 123.5 -24.5c15.333 0 32.666 1.33301 51.999 4s39.333 7.66699 60 15s41.5 17.166 62.5 29.499s40.833 28.5 59.5 48.5c-6 -28.667 -18.167 -55.5 -36.5 -80.5
s-41.166 -47 -68.499 -66s-58.333 -34 -93 -45s-71.334 -16.5 -110.001 -16.5z" />
    <glyph glyph-name="Tecy" unicode="&#x422;" horiz-adv-x="662" 
d="M452 700c32 0 60.3379 3.49805 85.0049 10.498s44.334 15.5 59.001 25.5c0.666992 -14 3.16699 -30.333 7.5 -49s9.5 -37.334 15.5 -56.001s12.5 -36.5 19.5 -53.5s13.833 -31.5 20.5 -43.5c-8.66699 -3.33301 -16.334 -5 -23.001 -5c-10 0 -20.5 1.66699 -31.5 5
s-22.167 8 -33.5 14s-22 12.833 -32 20.5s-19 16.167 -27 25.5c-19.333 22.667 -39 40.334 -59 53.001s-36.667 19 -50 19v-570c0 -15.333 3.33301 -32.833 10 -52.5s17.667 -34.167 33 -43.5h-235c18 12.667 32 27.334 42 44.001s15 34.334 15 53.001v569
c-10 0 -20.833 -2.66699 -32.5 -8s-23.334 -12.166 -35.001 -20.499s-23.334 -17.666 -35.001 -27.999s-22.834 -20.833 -33.501 -31.5c-16.667 -16 -35.334 -28.167 -56.001 -36.5s-39 -12.5 -55 -12.5c-7.33301 0 -13.333 2 -18 6c7.33301 12.667 15.166 27.667 23.499 45
s16.166 35.166 23.499 53.499s14 36.666 20 54.999s10.333 34.5 13 48.5c10 -6.66699 26.333 -14.5 49 -23.5s49.334 -13.5 80.001 -13.5h240z" />
    <glyph glyph-name="Ucy" unicode="&#x423;" horiz-adv-x="669" 
d="M693 701c-15.333 -12.667 -28.6689 -24.502 -40.002 -35.502s-21.833 -22.5 -31.5 -34.5s-19 -25.5 -28 -40.5s-18.5 -32.833 -28.5 -53.5c-18.667 -37.333 -36.667 -75.666 -54 -114.999l-53.5 -119c-18.333 -40 -37.833 -79.833 -58.5 -119.5
s-43.667 -77.834 -69 -114.501c-22 -32 -47.667 -54.5 -77 -67.5s-59.666 -10.5 -90.999 7.5c-24 14.667 -40.167 33.334 -48.5 56.001s-10.5 44.5 -6.5 65.5s13.333 39.167 28 54.5s33.334 23.333 56.001 24c20 0.666992 35.667 -5.5 47 -18.5s17.333 -30.167 18 -51.5
c0 -18 2.33301 -29.167 7 -33.5s10.5 -4.16602 17.5 0.500977s14.5 12.5 22.5 23.5s15.667 23.167 23 36.5l-108 193l-74.5 135l-50 89.5c-13 23 -24 41.667 -33 56s-17 25.833 -24 34.5s-14.5 17 -22.5 25h252c-21.333 -13.333 -32 -28.666 -32 -45.999
c0 -6 0.166992 -12.167 0.5 -18.5s2.83301 -14.833 7.5 -25.5c0.666992 -2.66699 2.33398 -6.83398 5.00098 -12.501s9 -18 19 -37l46.5 -85.5l88.5 -158l29 64c9.33301 21.333 17.666 41.833 24.999 61.5s13.5 38 18.5 55s8.5 32.167 10.5 45.5
c5.33301 35.333 3.33301 65.5 -6 90.5s-22 47.5 -38 67.5z" />
    <glyph glyph-name="Efcy" unicode="&#x424;" horiz-adv-x="902" 
d="M335 0c8.66699 8 16 15.498 22 22.498s10.833 14.833 14.5 23.5s6.33398 18.667 8.00098 30s2.5 25.333 2.5 42v11c-11.333 -9.33301 -27 -18.333 -47 -27s-45.333 -13 -76 -13c-32 0 -61.667 6.66699 -89 20s-51 31.833 -71 55.5s-35.667 51.334 -47 83.001
s-17 65.834 -17 102.501s5.66699 70.667 17 102s27 58.5 47 81.5s43.667 41 71 54s57 19.5 89 19.5c29.333 0 54.333 -4.33301 75 -13s36.667 -17.667 48 -27v34c0 21.333 -2.66699 39.5 -8 54.5s-16 29.833 -32 44.5h230c-15.333 -8.66699 -28.333 -22.167 -39 -40.5
s-16 -39.166 -16 -62.499v-28c11.333 9.33301 27 18.833 47 28.5s46.333 14.5 79 14.5c32 0 61.667 -6.83301 89 -20.5s51 -32.167 71 -55.5s35.667 -50.833 47 -82.5s17 -65.834 17 -102.501s-5.66699 -70.667 -17 -102s-27 -58.5 -47 -81.5s-43.667 -41 -71 -54
s-57 -19.5 -89 -19.5c-30.667 0 -56.5 4.66699 -77.5 14s-37.167 18.666 -48.5 27.999v-33c0 -22.667 3.66699 -43.667 11 -63s20.666 -32.666 39.999 -39.999h-233zM603 560.998c-20 0 -37.5 -3.66699 -52.5 -11s-26.167 -14 -33.5 -20v-358
c7.33301 -6 18.5 -12.333 33.5 -19s32.5 -10 52.5 -10c39.333 0 69.333 17.5 90 52.5s31 86.833 31 155.5c0 68 -10.333 120 -31 156s-50.667 54 -90 54zM299 138.998c18.667 0 35 3.16797 49 9.50098s25.333 12.5 34 18.5v363c-8 6 -19.167 12 -33.5 18s-30.833 9 -49.5 9
c-39.333 0 -69.333 -17.333 -90 -52s-31 -86.334 -31 -155.001c0 -68 10.333 -120.167 31 -156.5s50.667 -54.5 90 -54.5z" />
    <glyph glyph-name="Hacy" unicode="&#x425;" horiz-adv-x="713" 
d="M311 700l2.00195 -3.99902c-15.333 -9.33301 -23 -23 -23 -41c0 -7.33301 1.5 -15.333 4.5 -24s6.83301 -16.667 11.5 -24l93 -153l32 42c20 28 34 53.833 42 77.5s12 42.167 12 55.5c0 11.333 -1.83301 23 -5.5 35s-9.16699 23 -16.5 33l2 3h230l2 -4l-36 -29.5l-43 -37
c-14.667 -13 -28.834 -26.333 -42.501 -40s-25.5 -26.5 -35.5 -38.5l-115 -138l171 -280c16 -26.667 33.667 -51.334 53 -74.001s39.666 -42.334 60.999 -59.001h-274c6 6.66699 11.833 14.5 17.5 23.5s8.5 20.167 8.5 33.5c0 11.333 -2 22.333 -6 33s-10.667 23.667 -20 39
l-103 168c-17.333 -18.667 -33 -38.667 -47 -60s-26.667 -42.333 -38 -63c-7.33301 -14 -12.833 -28.5 -16.5 -43.5s-5.5 -29.5 -5.5 -43.5c0 -15.333 3.83301 -30.666 11.5 -45.999s15.834 -29 24.501 -41h-259l67 67.5l69 74.5l76.5 88.5l89.5 109.5l-117 190
c-20.667 34 -41.334 65.5 -62.001 94.5s-45 52.5 -73 70.5v5h258z" />
    <glyph glyph-name="afii10040" unicode="&#x426;" horiz-adv-x="748" 
d="M33 0c16 14.667 26.6641 29.498 31.9971 44.498s8 33.167 8 54.5v479c0 18 -0.666992 32.833 -2 44.5s-3.83301 21.834 -7.5 30.501s-8.5 16.5 -14.5 23.5s-13.667 14.833 -23 23.5h233c-19.333 -7.33301 -32.666 -20.333 -39.999 -39s-11 -38.667 -11 -60l1 -555h268
v532c0.666992 18 0.333984 32.833 -0.999023 44.5s-3.83301 21.834 -7.5 30.501s-8.66699 16.5 -15 23.5s-14.166 14.833 -23.499 23.5h233c-19.333 -7.33301 -32.666 -20.666 -39.999 -39.999s-11 -40.333 -11 -63v-494c1.33301 -25.333 6.5 -43.333 15.5 -54
s19.667 -16.834 32 -18.501s25.333 0.333008 39 6s25.5 12.167 35.5 19.5l5 -2c-3.33301 -17.333 -5.83301 -35.5 -7.5 -54.5s-1.83398 -38 -0.500977 -57s4.5 -37.5 9.5 -55.5s12.5 -34.333 22.5 -49v-5c-28 6 -50.833 14.333 -68.5 25s-32.5 22.167 -44.5 34.5
s-21.833 24.833 -29.5 37.5s-15 24.167 -22 34.5s-15 18.833 -24 25.5s-20.5 10 -34.5 10h-507z" />
    <glyph glyph-name="Checy" unicode="&#x427;" horiz-adv-x="654" 
d="M400 0c9.33301 8.66699 17.0029 16.5 23.0029 23.5s10.833 14.833 14.5 23.5s6.16699 18.834 7.5 30.501s2 26.5 2 44.5v205c-19.333 -5.33301 -40.333 -9 -63 -11s-45.667 -3 -69 -3c-38 0 -73.167 3.33301 -105.5 10s-60.333 16.667 -84 30s-42 30 -55 50
s-19.167 43 -18.5 69c0.666992 25.333 2.66699 49.166 6 71.499s5.66602 48.166 6.99902 77.499c1.33301 36.667 -13.334 62.667 -44.001 78h247c-17.333 -10 -29.833 -22.5 -37.5 -37.5s-14.167 -35.167 -19.5 -60.5c-2 -15.333 -4.5 -32.833 -7.5 -52.5
s-4.5 -40.834 -4.5 -63.501c0 -40 14.167 -70.667 42.5 -92s66.833 -32 115.5 -32c15.333 0 30.833 1 46.5 3s30.167 5.33301 43.5 10v226c0 21.333 -2.66699 39.5 -8 54.5s-16 29.833 -32 44.5h230c-15.333 -8.66699 -28.333 -22.167 -39 -40.5s-16 -39.166 -16 -62.499
v-493c0 -22.667 3.66699 -43.667 11 -63s20.666 -32.666 39.999 -39.999h-233z" />
    <glyph glyph-name="afii10042" unicode="&#x428;" horiz-adv-x="1046" 
d="M38 0c16 14.667 26.6602 29.4961 31.9932 44.4961s8 33.167 8 54.5v479c0 18 -0.666992 32.833 -2 44.5s-3.83301 21.834 -7.5 30.501s-8.5 16.5 -14.5 23.5s-13.667 14.833 -23 23.5h234c-19.333 -7.33301 -32.666 -20.333 -39.999 -39s-11 -38.667 -11 -60v-555h243
v532c0.666992 18 0.333984 32.833 -0.999023 44.5s-3.83301 21.834 -7.5 30.501s-8.66699 16.5 -15 23.5s-14.166 14.833 -23.499 23.5h233c-19.333 -7.33301 -32.666 -20.333 -39.999 -39s-11 -38.667 -11 -60l1 -555h243v532c0.666992 18 0.333984 32.833 -0.999023 44.5
s-3.83301 21.834 -7.5 30.501s-8.66699 16.5 -15 23.5s-14.166 14.833 -23.499 23.5h233c-19.333 -7.33301 -32.666 -20.666 -39.999 -39.999s-11 -40.333 -11 -63v-498c0 -21.333 2.66699 -39.5 8 -54.5s16 -29.833 32 -44.5h-973z" />
    <glyph glyph-name="afii10043" unicode="&#x429;" horiz-adv-x="1113" 
d="M38 0c16 14.667 26.6611 29.4971 31.9941 44.4971s8 33.167 8 54.5v479c0 18 -0.666992 32.833 -2 44.5s-3.83301 21.834 -7.5 30.501s-8.5 16.5 -14.5 23.5s-13.667 14.833 -23 23.5h234c-19.333 -7.33301 -32.666 -20.333 -39.999 -39s-11 -38.667 -11 -60v-555h243
v532c0.666992 18 0.333984 32.833 -0.999023 44.5s-3.83301 21.834 -7.5 30.501s-8.66699 16.5 -15 23.5s-14.166 14.833 -23.499 23.5h233c-19.333 -7.33301 -32.666 -20.333 -39.999 -39s-11 -38.667 -11 -60l1 -555h243v532c0.666992 18 0.333984 32.833 -0.999023 44.5
s-3.83301 21.834 -7.5 30.501s-8.66699 16.5 -15 23.5s-14.166 14.833 -23.499 23.5h233c-19.333 -7.33301 -32.666 -20.666 -39.999 -39.999s-11 -40.333 -11 -63v-494c1.33301 -25.333 6.5 -43.333 15.5 -54s19.667 -16.834 32 -18.501s25.333 0.333008 39 6
s25.5 12.167 35.5 19.5l5 -2c-3.33301 -17.333 -5.83301 -35.5 -7.5 -54.5s-1.83398 -38 -0.500977 -57s4.5 -37.5 9.5 -55.5s12.5 -34.333 22.5 -49v-5c-28 6 -50.833 14.333 -68.5 25s-32.5 22.167 -44.5 34.5s-21.833 24.833 -29.5 37.5s-15 24.167 -22 34.5
s-15 18.833 -24 25.5s-20.5 10 -34.5 10h-861z" />
    <glyph glyph-name="Hardsigncy" unicode="&#x42a;" horiz-adv-x="937" 
d="M320 609c0 2 -0.166016 5.50098 -0.499023 10.501s-1.16602 10.167 -2.49902 15.5s-3 10 -5 14s-4.66699 6 -8 6c-10.667 0 -22 -2.33301 -34 -7s-23.833 -10.5 -35.5 -17.5s-22.334 -14.667 -32.001 -23s-17.5 -15.833 -23.5 -22.5c-25.333 -20.667 -51.333 -36 -78 -46
s-50 -15 -70 -15c-8.66699 0 -17.334 1.66699 -26.001 5c6 8 13 19.333 21 34s15.833 31.334 23.5 50.001s14.667 38 21 58s10.833 39.667 13.5 59c14.667 -11.333 32.167 -19.166 52.5 -23.499s42.5 -6.5 66.5 -6.5h285c-7.33301 -7.33301 -14.666 -18.833 -21.999 -34.5
s-11 -37.5 -11 -65.5v-169h35c22.667 0 49 -1 79 -3s60.833 -6 92.5 -12s62.834 -14.333 93.501 -25s58 -24.334 82 -41.001s43.333 -37 58 -61s22 -52.333 22 -85c0 -34 -8 -63.667 -24 -89s-37.333 -46.5 -64 -63.5s-57.334 -29.833 -92.001 -38.5
s-70.334 -13 -107.001 -13h-358c10 8.66699 18 17.667 24 27s10.833 20.666 14.5 33.999s6.16699 29.166 7.5 47.499s2 40.5 2 66.5v434zM520.001 53.001c32.667 0 62.999 2.5 90.999 7.5s52.333 13.667 73 26s36.834 28.833 48.501 49.5s17.5 47 17.5 79
c0 34 -8.5 61.5 -25.5 82.5s-38.5 37.333 -64.5 49s-54.5 19.667 -85.5 24s-60.833 6.5 -89.5 6.5h-30v-324h65z" />
    <glyph glyph-name="Yerucy" unicode="&#x42b;" horiz-adv-x="961" 
d="M206 422l47.999 0.00292969c19.333 0 42.833 -0.833008 70.5 -2.5s56.667 -5.16699 87 -10.5s60.333 -12.833 90 -22.5s56.334 -22.667 80.001 -39s42.834 -36.166 57.501 -59.499s22 -51.333 22 -84c0 -34 -8 -63.667 -24 -89s-37.333 -46.5 -64 -63.5
s-57.334 -29.833 -92.001 -38.5s-70.334 -13 -107.001 -13h-351c10 8.66699 18 17.667 24 27s10.833 20.666 14.5 33.999s6.16699 29.166 7.5 47.499s2 40.5 2 66.5v434c0 8.66699 -1.33301 17.667 -4 27s-6 18.166 -10 26.499s-8.16699 15.666 -12.5 21.999
s-8.5 11.5 -12.5 15.5h207c-7.33301 -7.33301 -14.666 -18.833 -21.999 -34.5s-11 -37.5 -11 -65.5v-178zM696.999 0.00292969c9.33301 8.66699 17.001 16.4971 23.001 23.4971s10.833 14.833 14.5 23.5s6.16699 18.834 7.5 30.501s2 26.5 2 44.5v479
c0 21.333 -2.66699 39.5 -8 54.5s-16 29.833 -32 44.5h230c-15.333 -8.66699 -28.333 -22.167 -39 -40.5s-16 -39.166 -16 -62.499v-494c0 -22.667 3.66699 -43.667 11 -63s20.666 -32.666 39.999 -39.999h-233zM264 53c42 0 78.333 3.33398 109 10.001
s54.667 18.334 72 35.001c32.667 30.667 49 69.667 49 117c0 42 -13.833 75.667 -41.5 101s-63.5 42.666 -107.5 51.999c-18 3.33301 -34.667 5.66602 -50 6.99902s-39.333 2 -72 2h-17v-324h58z" />
    <glyph glyph-name="Softsigncy" unicode="&#x42c;" horiz-adv-x="726" 
d="M217 431l55 0.00488281c22.667 0 49 -1 79 -3s60.833 -6 92.5 -12s62.834 -14.333 93.501 -25s58 -24.334 82 -41.001s43.333 -37 58 -61s22 -52.333 22 -85c0 -34 -8 -63.667 -24 -89s-37.333 -46.5 -64 -63.5s-57.334 -29.833 -92.001 -38.5s-70.334 -13 -107.001 -13
h-378c10 8.66699 18 17.667 24 27s10.833 20.666 14.5 33.999s6.16699 29.166 7.5 47.499s2 40.5 2 66.5v434c0 8.66699 -1.33301 17.667 -4 27s-6 18.166 -10 26.499s-8.16699 15.666 -12.5 21.999s-8.5 11.5 -12.5 15.5h207
c-7.33301 -7.33301 -14.666 -18.833 -21.999 -34.5s-11 -37.5 -11 -65.5v-169zM302 53.0049c32.667 0 62.999 2.5 90.999 7.5s52.333 13.667 73 26s36.834 28.833 48.501 49.5s17.5 47 17.5 79c0 34 -8.5 61.5 -25.5 82.5s-38.5 37.333 -64.5 49s-54.5 19.667 -85.5 24
s-60.833 6.5 -89.5 6.5h-50v-324h85z" />
    <glyph glyph-name="Ereversedcy" unicode="&#x42d;" horiz-adv-x="669" 
d="M338 674c-16.667 0 -31.5039 -1.33105 -44.5039 -3.99805s-25.333 -7 -37 -13s-23 -13.5 -34 -22.5s-22.5 -19.833 -34.5 -32.5c-20.667 -21.333 -42.667 -37 -66 -47s-43.333 -15 -60 -15c-5.33301 0 -12.5 0.5 -21.5 1.5s-17.167 3.16699 -24.5 6.5
c15.333 16 31.833 39.667 49.5 71s31.167 65 40.5 101c9.33301 -7.33301 18.833 -13 28.5 -17s20.5 -6 32.5 -6s23.667 1 35 3s23.5 4.33301 36.5 7s27.333 5 43 7s34.167 3 55.5 3c52 0 97.167 -10.167 135.5 -30.5s69.833 -47.333 94.5 -81s43 -72.5 55 -116.5
s18 -89.333 18 -136c0 -74 -10.167 -135 -30.5 -183s-46.833 -85.833 -79.5 -113.5s-69.167 -47 -109.5 -58s-80.833 -16.5 -121.5 -16.5c-36 0 -70.167 5 -102.5 15s-61.333 23.667 -87 41s-47.167 38.166 -64.5 62.499s-28.666 50.5 -33.999 78.5
c17.333 -19.333 35.5 -35.333 54.5 -48s38.333 -22.5 58 -29.5s38.834 -11.833 57.501 -14.5s36.334 -4 53.001 -4c46.667 0 88.834 7.83301 126.501 23.5s69.5 37.5 95.5 65.5s46 61.333 60 100s21 81 21 127v14c-7.33301 -16 -16 -30.833 -26 -44.5
s-21.333 -25.834 -34 -36.501s-26 -19 -40 -25s-28.667 -9 -44 -9c-17.333 0 -33.833 3.16699 -49.5 9.5s-30.5 13.333 -44.5 21l-40 21.5c-12.667 6.66699 -25.167 10.667 -37.5 12s-24.333 -1.16699 -36 -7.5s-23.167 -18.833 -34.5 -37.5l-19 8
c6.66699 13.333 14.667 28.166 24 44.499s20.166 31.5 32.499 45.5s26.833 25.833 43.5 35.5s35.667 14.5 57 14.5c18 0 34.667 -3.33301 50 -10s30 -14.167 44 -22.5s27.5 -15.833 40.5 -22.5s26.167 -10 39.5 -10c18.667 0 34.334 7.33301 47.001 22s19 37.667 19 69
c-11.333 56.667 -33 101.334 -65 134.001s-74 49 -126 49z" />
    <glyph glyph-name="Iucy" unicode="&#x42e;" horiz-adv-x="990" 
d="M214 103c0 -22.667 3.66992 -43.666 11.0029 -62.999s20.666 -32.666 39.999 -39.999h-223c9.33301 8.66699 17 16.5 23 23.5s10.833 14.833 14.5 23.5s6.16699 18.834 7.5 30.501s2 26.5 2 44.5v479c0 21.333 -2.66699 39.5 -8 54.5s-16 29.833 -32 44.5h220
c-15.333 -8.66699 -28.333 -22.167 -39 -40.5s-16 -39.166 -16 -62.499v-170h88c1.33301 10 3.16602 19.833 5.49902 29.5s5.16602 19.5 8.49902 29.5c13.333 44.667 34.166 84.667 62.499 120s65.5 65.666 111.5 90.999l15 -13c-31.333 -32 -53 -67.833 -65 -107.5
s-18 -83.834 -18 -132.501c0 -63.333 8.66699 -119.833 26 -169.5s39.166 -91.667 65.499 -126s55 -60.5 86 -78.5s60.167 -27 87.5 -27c30.667 0 57.834 5.16699 81.501 15.5s43.334 24.666 59.001 42.999s27.5 40 35.5 65s12 51.833 12 80.5
c0 54.667 -6.33301 103.834 -19 147.501s-30.334 80.834 -53.001 111.501s-49.5 54 -80.5 70s-64.5 24 -100.5 24c-21.333 0 -39.5 -1.33301 -54.5 -4s-28 -6.5 -39 -11.5s-21 -11.333 -30 -19s-18.5 -16.834 -28.5 -27.501l-7 5c1.33301 17.333 5.83301 36.666 13.5 57.999
s19.667 41.333 36 60s37.333 34.334 63 47.001s57.5 19 95.5 19c48 0 90.833 -11.667 128.5 -35s69.167 -54 94.5 -92s44.166 -80.833 56.499 -128.5s17.5 -95.834 15.5 -144.501s-11.5 -95.834 -28.5 -141.501s-42.167 -84.834 -75.5 -117.501
c-28.667 -28 -63 -49.833 -103 -65.5s-86 -23.5 -138 -23.5c-53.333 0 -100.666 11.167 -141.999 33.5s-75.666 51.833 -102.999 88.5s-47.833 78.334 -61.5 125.001s-19.5 94.667 -17.5 144h-83v-267z" />
    <glyph glyph-name="Iacy" unicode="&#x42f;" horiz-adv-x="693" 
d="M25 0c16.667 10.667 34.002 26 52.002 46s37 50 57 90l120 236c-28 1.33301 -55.5 4.83301 -82.5 10.5s-51 15 -72 28s-38 29.833 -51 50.5s-19.5 46.667 -19.5 78c0 22.667 5.16699 43.834 15.5 63.501s26.5 36.667 48.5 51s50 25.666 84 33.999s74.667 12.5 122 12.5
h353c-8 -6 -14.333 -11.667 -19 -17s-8.33398 -11.333 -11.001 -18s-4.33398 -14.834 -5.00098 -24.501s-1 -21.5 -1 -35.5v-497c0 -28 4.83301 -51.167 14.5 -69.5s20.5 -31.166 32.5 -38.499h-226c14.667 10 25.667 22.333 33 37s11 37.667 11 69v266h-75l-120 -248
c-7.33301 -15.333 -12 -27.5 -14 -36.5s-3 -17.833 -3 -26.5c0 -20 9.33301 -40.333 28 -61h-272zM481.002 654l-76.001 -0.000976562c-66.667 0 -117.334 -8.33301 -152.001 -25s-52 -46 -52 -88c0 -20.667 4.16699 -38.667 12.5 -54s21.833 -28.166 40.5 -38.499
s43.334 -18 74.001 -23s68.334 -7.5 113.001 -7.5h40v236z" />
    <glyph glyph-name="acy" unicode="&#x430;" horiz-adv-x="521" 
d="M74 362c-1.33301 -3.33301 -4.00586 -5.00195 -8.00586 -5.00195c-1.33301 0 -2.66602 1 -3.99902 3s-2 4 -2 6c0 12.667 4 28 12 46s20.333 35.333 37 52s37.667 31 63 43s55.666 18 90.999 18c20.667 0 40.834 -2.16699 60.501 -6.5s37.5 -11.333 53.5 -21
s29.167 -22 39.5 -37s16.5 -32.833 18.5 -53.5l30 -309c0.666992 -8.66699 2.33398 -18 5.00098 -28s6.33398 -19.5 11.001 -28.5s10 -17 16 -24s13 -11.5 21 -13.5l-1 -4h-172l-8 19c-25.333 -14.667 -46.666 -24.5 -63.999 -29.5s-36 -7.5 -56 -7.5
c-28.667 0 -54.667 4 -78 12s-43.166 19 -59.499 33s-29 30.167 -38 48.5s-13.5 38.166 -13.5 59.499c0 28.667 6 54.334 18 77.001s29.333 43.834 52 63.501s50 38.334 82 56.001s68 36.167 108 55.5c-5.33301 15.333 -16.833 26.833 -34.5 34.5s-35.834 11.5 -54.501 11.5
c-25.333 0 -49.666 -7 -72.999 -21s-40.666 -30.667 -51.999 -50zM302.994 343.998c-23.333 -14 -43 -27.665 -59 -40.998s-29 -27.333 -39 -42s-17.167 -30.334 -21.5 -47.001s-6.5 -35.334 -6.5 -56.001c0 -12 2.16699 -24.833 6.5 -38.5s10.5 -26.5 18.5 -38.5
s17.667 -22 29 -30s24.333 -12 39 -12c26 0 47 8.66699 63 26z" />
    <glyph glyph-name="afii10066" unicode="&#x431;" horiz-adv-x="545" 
d="M279 749c19.333 2.66699 39.3369 4.33105 60.0039 4.99805s40.167 2.5 58.5 5.5s34.666 8.66699 48.999 17s25.166 22.166 32.499 41.499h7c-1.33301 -40 -7.16602 -73.833 -17.499 -101.5s-24 -49.834 -41 -66.501s-36.833 -28.667 -59.5 -36s-47 -11 -73 -11
c-40.667 0 -74 -5.16699 -100 -15.5s-46.833 -24.833 -62.5 -43.5s-26.834 -41.167 -33.501 -67.5s-11 -55.5 -13 -87.5c20 40.667 45.833 73.167 77.5 97.5s69.167 36.5 112.5 36.5c32 0 62.167 -7 90.5 -21s53.166 -33.167 74.499 -57.5s38.333 -52.833 51 -85.5
s19 -67.667 19 -105c0 -36.667 -6.33301 -71.167 -19 -103.5s-29.834 -60.666 -51.501 -84.999s-46.667 -43.5 -75 -57.5s-58.166 -21 -89.499 -21c-30 0 -58.5 5.66699 -85.5 17s-50.5 27.333 -70.5 48c-18 18.667 -32.5 40.834 -43.5 66.501s-19.333 53 -25 82
s-8.83398 59.333 -9.50098 91s0.333008 63.167 3 94.5c4 48 11.167 93.333 21.5 136s24.5 78.334 42.5 107.001c21.333 34 46.5 61.333 75.5 82s60.5 33.334 94.5 38.001zM198.004 133.997c0 -22.667 2.16895 -41.499 6.50195 -56.499s10.166 -26.833 17.499 -35.5
s15.666 -14.834 24.999 -18.501s19 -5.5 29 -5.5c9.33301 0 18.666 2 27.999 6s17.833 10.5 25.5 19.5s13.834 20.833 18.501 35.5s7 33 7 55v30.5v48.5c0 18 -0.166992 37 -0.5 57s-0.5 38.5 -0.5 55.5v43.5v22c0 28 -6 51 -18 69s-32 27 -60 27c-26 0 -45.5 -9 -58.5 -27
s-19.5 -41 -19.5 -69v-257z" />
    <glyph glyph-name="vecy" unicode="&#x432;" horiz-adv-x="579" 
d="M67 404c-7.33301 -3.33301 -14 -7.83301 -20 -13.5s-11 -10.834 -15 -15.501l-5 45c12.667 16.667 28.5 31.167 47.5 43.5s39.833 22.5 62.5 30.5s46.167 14 70.5 18s48.166 6 71.499 6c36 0 68.333 -3.33301 97 -10s53 -15.667 73 -27s35.333 -24.5 46 -39.5
s16 -30.833 16 -47.5c0 -60 -41.667 -95.667 -125 -107c20 -4 39.5 -9.5 58.5 -16.5s35.833 -16.167 50.5 -27.5s26.5 -25 35.5 -41s13.5 -35 13.5 -57c0 -26 -6 -48.167 -18 -66.5s-27.833 -33.333 -47.5 -45s-42.167 -20.167 -67.5 -25.5s-51.333 -8 -78 -8h-300
c6.66699 6 12.334 12.333 17.001 19s8.16699 14.834 10.5 24.501s4 21 5 34s1.5 28.833 1.5 47.5v279zM245 48c22.667 0 43.001 1.33301 61.001 4s33.167 8 45.5 16s21.666 19 27.999 33s9.5 32.667 9.5 56c0 20 -5.16699 36.833 -15.5 50.5s-23.5 24.667 -39.5 33
s-34 14.333 -54 18s-40 5.5 -60 5.5h-21v-216h46zM199.001 306l24.999 0.000976562c16.667 0 33 1 49 3s30.5 6 43.5 12s23.5 14.667 31.5 26s12 26.666 12 45.999c0 14 -3.66699 25.833 -11 35.5s-16.666 17.667 -27.999 24s-23.833 10.833 -37.5 13.5s-26.5 4 -38.5 4
c-14 0 -24.833 -1 -32.5 -3s-12.167 -4 -13.5 -6v-155z" />
    <glyph glyph-name="gecy" unicode="&#x433;" horiz-adv-x="521" 
d="M67 437c0 17.333 -3.83008 33.4971 -11.4971 48.4971s-20.167 26.167 -37.5 33.5h350c17.333 0 33 1.33301 47 4s27.333 8 40 16c2 -14 5.66699 -28.667 11 -44s11.166 -30.166 17.499 -44.499s12.666 -27.166 18.999 -38.499s11.5 -20 15.5 -26
c-3.33301 -1.33301 -7.33301 -2.33301 -12 -3s-8.66699 -1 -12 -1c-14.667 0 -31.5 3.5 -50.5 10.5s-37.833 18.167 -56.5 33.5c-14 11.333 -31.333 22.666 -52 33.999s-44 17 -70 17h-66v-370c0 -27.333 4.16699 -48.666 12.5 -63.999s21.166 -29.666 38.499 -42.999h-235
v4c14.667 7.33301 27 17.833 37 31.5s15 28.167 15 43.5v358z" />
    <glyph glyph-name="decy" unicode="&#x434;" horiz-adv-x="575" 
d="M522 519c-8 -3.33301 -15.666 -8.00684 -22.999 -14.0068s-13.666 -14.167 -18.999 -24.5s-9.5 -23.5 -12.5 -39.5s-4.5 -36 -4.5 -60l-1 -272c1.33301 -25.333 5.33301 -43.666 12 -54.999s14.834 -18.166 24.501 -20.499s19.667 -1.16602 30 3.50098
s20.166 10.667 29.499 18l5 -2c-3.33301 -17.333 -5.83301 -35.5 -7.5 -54.5s-1.83398 -38 -0.500977 -57s4.16602 -37.5 8.49902 -55.5s11.166 -34.333 20.499 -49v-5c-24.667 6 -45 14.333 -61 25s-29.167 22.167 -39.5 34.5s-18.666 25 -24.999 38
s-12.666 24.667 -18.999 35s-13.333 18.833 -21 25.5s-17.834 10 -30.501 10h-226c-12.667 0 -22.667 -3.33301 -30 -10s-13.833 -15.167 -19.5 -25.5s-11.667 -22 -18 -35s-14.333 -25.667 -24 -38s-22.334 -23.666 -38.001 -33.999s-35.834 -18.5 -60.501 -24.5v5
c18 33.333 27.833 70.5 29.5 111.5s-1.16602 81.5 -8.49902 121.5l5 2c4.66699 -5.33301 10 -9.66602 16 -12.999c5.33301 -3.33301 12 -6.33301 20 -9s17.667 -4 29 -4c13.333 20.667 25.333 45.834 36 75.501s19.834 60.334 27.501 92.001s13.5 63 17.5 94s6 58.5 6 82.5
c0 24.667 -5 49.167 -15 73.5s-28.667 42.833 -56 55.5zM202.001 383.993c-4 -48.667 -9.16797 -91.5 -15.501 -128.5s-13.166 -69 -20.499 -96s-15 -49.667 -23 -68s-15.333 -33.166 -22 -44.499l210 1v423h-47c-23.333 0 -42.333 -7.83301 -57 -23.5
s-23 -36.834 -25 -63.501z" />
    <glyph glyph-name="iecy" unicode="&#x435;" horiz-adv-x="513" 
d="M37 259c0 32 5.16992 64 15.5029 96s25.166 60.833 44.499 86.5s42.666 46.667 69.999 63s58 24.5 92 24.5c31.333 0 60 -6.66699 86 -20s48.167 -31 66.5 -53s32.666 -47.333 42.999 -76s15.5 -58 15.5 -88c0 -9.33301 -0.333008 -15 -1 -17h-306
c7.33301 -30.667 19.166 -58.167 35.499 -82.5s35 -45 56 -62s43.333 -30.167 67 -39.5s46.834 -14 69.501 -14c21.333 0 41.166 3.16699 59.499 9.5s35.166 14.833 50.499 25.5c-10 -22.667 -25.667 -43 -47 -61s-45 -31.667 -71 -41
c-15.333 -5.33301 -31.166 -10.166 -47.499 -14.499s-32.166 -6.5 -47.499 -6.5c-36.667 0 -70.334 7.5 -101.001 22.5s-57.167 35 -79.5 60s-39.666 53.667 -51.999 86s-18.5 66.166 -18.5 101.499zM148.003 376c0 -24 1.66699 -43.332 5 -57.999v-4h169
c0 18 -1.66699 36.5 -5 55.5s-8.5 36.333 -15.5 52s-16 28.5 -27 38.5s-24.167 15 -39.5 15c-22 0 -42 -8.33301 -60 -25s-27 -41.334 -27 -74.001z" />
    <glyph glyph-name="afii10072" unicode="&#x436;" horiz-adv-x="862" 
d="M312 0c17.333 13.333 30.1719 27.666 38.5049 42.999s12.5 36.666 12.5 63.999v143h-45l-82 -156c-6.66699 -11.333 -11.334 -20.666 -14.001 -27.999s-4 -14.333 -4 -21c0 -15.333 7.66699 -30.333 23 -45h-232c6 4 12.333 10.167 19 18.5s15.334 20.833 26.001 37.5
l40.5 66.5l63.5 105.5c6.66699 11.333 12.334 20.333 17.001 27s10.167 11.5 16.5 14.5s14 4.83301 23 5.5s21.5 0.666992 37.5 0c-14 14.667 -24.333 30.5 -31 47.5s-12.334 32.833 -17.001 47.5s-9.33398 27.167 -14.001 37.5s-11.667 16.5 -21 18.5
c-5.33301 2.66699 -9 1.66699 -11 -3l-7 -17c-7.33301 -14.667 -17.666 -24.334 -30.999 -29.001s-28 -3.33398 -44 3.99902c-20.667 8.66699 -34.5 22.667 -41.5 42s-5.83301 39 3.5 59c9.33301 19.333 23.333 32.833 42 40.5s38 9.16699 58 4.5
c13.333 -2.66699 24.666 -7.5 33.999 -14.5s17.166 -14.833 23.499 -23.5s11.666 -17.5 15.999 -26.5s7.83301 -16.833 10.5 -23.5c7.33301 -17.333 13.5 -34.833 18.5 -52.5s10.5 -33.834 16.5 -48.501s13.667 -26.5 23 -35.5s22.666 -13.833 39.999 -14.5h43v156
c0 14 -2.66699 28.5 -8 43.5s-14.333 29.5 -27 43.5h205c-12.667 -14 -21.667 -28.5 -27 -43.5s-8 -29.5 -8 -43.5v-156h43c16.667 0.666992 29.834 5.5 39.501 14.5s17.5 20.833 23.5 35.5s11.5 30.834 16.5 48.501s11.167 35.167 18.5 52.5
c2.66699 6.66699 6 14.5 10 23.5s9.33301 17.833 16 26.5s14.667 16.5 24 23.5s20.666 11.833 33.999 14.5c20 4.66699 39.333 3.16699 58 -4.5s32.667 -21.167 42 -40.5c9.33301 -20 10.5 -39.667 3.5 -59s-20.833 -33.333 -41.5 -42
c-16 -7.33301 -30.667 -8.66602 -44 -3.99902s-23.666 14.334 -30.999 29.001l-7 17c-2 4.66699 -5.66699 5.66699 -11 3c-9.33301 -2 -16.333 -8.16699 -21 -18.5s-9.33398 -22.833 -14.001 -37.5s-10.334 -30.5 -17.001 -47.5s-17 -32.833 -31 -47.5
c16 0.666992 28.5 0.666992 37.5 0s16.667 -2.5 23 -5.5s11.833 -7.83301 16.5 -14.5s10.334 -15.667 17.001 -27l63.5 -105.5l40.5 -66.5c10.667 -16.667 19.334 -29.167 26.001 -37.5s13 -14.5 19 -18.5h-232c15.333 14.667 23 29.667 23 45
c0 6.66699 -1.33301 13.667 -4 21s-7.33398 16.666 -14.001 27.999l-82 156h-45v-143c0 -27.333 4.16699 -48.666 12.5 -63.999s21.166 -29.666 38.499 -42.999h-235h-2z" />
    <glyph glyph-name="zecy" unicode="&#x437;" horiz-adv-x="502" 
d="M334 297c18.667 -3.33301 36.499 -8.66797 53.499 -16.001s31.833 -17 44.5 -29s22.667 -26.5 30 -43.5s11 -36.5 11 -58.5c0 -24 -6.33301 -45.833 -19 -65.5s-29.667 -36.334 -51 -50.001s-46.166 -24.167 -74.499 -31.5s-57.833 -11 -88.5 -11
c-31.333 0 -59.833 3.16699 -85.5 9.5s-47.834 15.333 -66.501 27s-33 25.834 -43 42.501s-15 35.667 -15 57c0 26 6.16699 46.833 18.5 62.5s30.5 23.5 54.5 23.5c23.333 0 41 -6.83301 53 -20.5s18 -29.167 18 -46.5c0 -12 -2.16699 -21.333 -6.5 -28
s-9.33301 -12.5 -15 -17.5s-10.667 -10.167 -15 -15.5s-6.5 -12.666 -6.5 -21.999c0 -12.667 6.83301 -21.5 20.5 -26.5s27.834 -7.5 42.501 -7.5c22 0 40.833 4.16699 56.5 12.5s28.667 18.666 39 30.999s18 25.833 23 40.5s7.5 28.334 7.5 41.001
c0 32 -6.5 57.333 -19.5 76s-37.5 28 -73.5 28h-64v42h57c22 0 41.167 7.5 57.5 22.5s24.5 40.833 24.5 77.5c0 24 -4.5 43.333 -13.5 58s-22.5 22 -40.5 22s-31.5 -4.66699 -40.5 -14s-17.833 -19.833 -26.5 -31.5s-19.667 -22.167 -33 -31.5s-34 -14 -62 -14
c-14 0 -27 4.33301 -39 13c17.333 19.333 33 41 47 65s24.667 48.333 32 73c8.66699 -4 19 -7.5 31 -10.5s24.167 -5.16699 36.5 -6.5s24 -2.33301 35 -3s19.5 -1 25.5 -1c56 0 101.333 -9.5 136 -28.5s52 -47.5 52 -85.5c0 -50.667 -36 -87 -108 -109z" />
    <glyph glyph-name="afii10074" unicode="&#x438;" horiz-adv-x="621" 
d="M360 0c17.333 9.33301 29.8301 21.8291 37.4971 37.4961s11.5 36.167 11.5 61.5v250l-199 -279c2.66699 -17.333 7.83398 -31.5 15.501 -42.5s18.5 -20.167 32.5 -27.5h-230c17.333 9.33301 29.833 21.833 37.5 37.5s11.5 36.167 11.5 61.5v337
c0 23.333 -5 42.333 -15 57s-21 24.667 -33 30h225c-13.333 -15.333 -24.166 -30.166 -32.499 -44.499s-12.5 -29.166 -12.5 -44.499v-274l200 281c-1.33301 22 -6.83301 39.833 -16.5 53.5s-20.167 23.167 -31.5 28.5h225c-13.333 -15.333 -24.166 -30.166 -32.499 -44.499
s-12.5 -29.166 -12.5 -44.499v-335c0 -25.333 3.83301 -45.833 11.5 -61.5s20.167 -28.167 37.5 -37.5h-230z" />
    <glyph glyph-name="ishortcy" unicode="&#x439;" horiz-adv-x="621" 
d="M590 0c-17.333 9.33301 -29.8301 21.8369 -37.4971 37.5039s-11.5 36.167 -11.5 61.5v335c0 15.333 4.16699 30.166 12.5 44.499s19.166 29.166 32.499 44.499h-225c11.333 -5.33301 21.833 -14.833 31.5 -28.5s15.167 -31.5 16.5 -53.5l-200 -281v274
c0 15.333 4.16699 30.166 12.5 44.499s19.166 29.166 32.499 44.499h-225c12 -5.33301 23 -15.333 33 -30s15 -33.667 15 -57v-337c0 -25.333 -3.83301 -45.833 -11.5 -61.5s-20.167 -28.167 -37.5 -37.5h230c-14 7.33301 -24.833 16.5 -32.5 27.5
s-12.834 25.167 -15.501 42.5l199 279v-250c0 -25.333 -3.83301 -45.833 -11.5 -61.5s-20.167 -28.167 -37.5 -37.5h230zM139.003 678.004c0 16.667 5.50488 29.5 16.5049 38.5s22.833 13.5 35.5 13.5c22.667 0 38.167 -5.66699 46.5 -17s13.166 -24.333 14.499 -39
c2.66699 -20.667 8.5 -35 17.5 -43s21.5 -12 37.5 -12c33.333 0 52.666 18.333 57.999 55c1.33301 14 6.16602 26.833 14.499 38.5s25.166 17.5 50.499 17.5c11.333 0 22.166 -4.83301 32.499 -14.5s15.5 -22.167 15.5 -37.5c0 -17.333 -5.16699 -31.666 -15.5 -42.999
s-24 -20.333 -41 -27s-35.5 -11.5 -55.5 -14.5s-39.667 -4.5 -59 -4.5s-39 1.5 -59 4.5s-38 7.83301 -54 14.5s-29.167 15.667 -39.5 27s-15.5 25.666 -15.5 42.999z" />
    <glyph glyph-name="afii10076" unicode="&#x43a;" horiz-adv-x="581" 
d="M17 0c17.333 13.333 30.1699 27.666 38.5029 42.999s12.5 36.666 12.5 63.999v337c0 14 -2.66699 28.5 -8 43.5s-14.333 29.5 -27 43.5h205c-12.667 -14 -21.667 -28.5 -27 -43.5s-8 -29.5 -8 -43.5v-147h46c16.667 0.666992 29.834 5.66699 39.501 15
s17.5 21.166 23.5 35.499s11.5 30.333 16.5 48s11.167 35.167 18.5 52.5c2.66699 6.66699 6 14.5 10 23.5s9.33301 17.833 16 26.5s14.667 16.5 24 23.5s20.666 11.833 33.999 14.5c20 4.66699 39.333 3.16699 58 -4.5s32.667 -21.167 42 -40.5
c9.33301 -20 10.166 -40.5 2.49902 -61.5s-21.834 -35.833 -42.501 -44.5c-16 -7.33301 -30.667 -8.66602 -44 -3.99902s-23.666 14.334 -30.999 29.001l-7 17c-2 4.66699 -5.66699 5.66699 -11 3c-10 -2 -17.167 -7.83301 -21.5 -17.5s-8.5 -21.5 -12.5 -35.5
s-9.33301 -29.167 -16 -45.5s-17 -31.833 -31 -46.5c16 0.666992 29.167 0.666992 39.5 0s19.166 -2.5 26.499 -5.5s14 -7.83301 20 -14.5s12.333 -15.667 19 -27l63.5 -107l40.5 -70c10.667 -18 19.334 -31.667 26.001 -41s13 -16 19 -20h-232
c15.333 15.333 23 30.333 23 45c0 6.66699 -1.33301 13.667 -4 21s-7.33398 16.666 -14.001 27.999l-82 165h-59v-152c0 -27.333 4.16699 -48.666 12.5 -63.999s21.166 -29.666 38.499 -42.999h-235h-2z" />
    <glyph glyph-name="elcy" unicode="&#x43b;" horiz-adv-x="611" 
d="M357 477c-23.333 0 -41.333 -7.16211 -54 -21.4951s-20 -34.833 -22 -61.5c-1.33301 -15.333 -2.66602 -33 -3.99902 -53s-3 -41.167 -5 -63.5s-4.83301 -45.333 -8.5 -69s-8.16699 -46.834 -13.5 -69.501s-12.5 -43.667 -21.5 -63s-19.833 -35.666 -32.5 -48.999
s-27.5 -22.833 -44.5 -28.5s-36.5 -6.16699 -58.5 -1.5c-21.333 4 -39.5 14 -54.5 30s-22.5 35.667 -22.5 59c0 25.333 7.83301 46.166 23.5 62.499s34.834 24.5 57.501 24.5c19.333 0 34.166 -5.16699 44.499 -15.5s15.5 -24.166 15.5 -41.499c0 -8 1 -16 3 -24
s6 -12 12 -12c10 9.33301 18.5 22.5 25.5 39.5s12.833 35.667 17.5 56s8.5 41.666 11.5 63.999s5.16699 43.333 6.5 63s2.16602 37.167 2.49902 52.5s0.5 26.666 0.5 33.999c0 12 -1.16699 24.667 -3.5 38s-6.33301 26.166 -12 38.499s-13 23.666 -22 33.999
s-20.5 18.5 -34.5 24.5h428c-16.667 -11.333 -29 -27.166 -37 -47.499s-12 -49.5 -12 -87.5v-314c0 -16.667 2.66699 -32 8 -46s15 -23.667 29 -29h-202c6.66699 6 12.167 11.667 16.5 17s7.83301 11.166 10.5 17.499s4.5 13.666 5.5 21.999s1.5 18.833 1.5 31.5v389h-55z
" />
    <glyph glyph-name="emcy" unicode="&#x43c;" horiz-adv-x="709" 
d="M307 521c-7.33301 -6 -12.8369 -12.502 -16.5039 -19.502s-5.5 -15.833 -5.5 -26.5c0 -13.333 2 -24.333 6 -33l75 -176l75 223c-1.33301 5.33301 -5.16602 10.666 -11.499 15.999s-14.166 10.666 -23.499 15.999h232c-14 -6 -23.667 -14.667 -29 -26s-8 -24 -8 -38
c0 -3.33301 0.166992 -7.83301 0.5 -13.5s0.5 -9.5 0.5 -11.5l37 -295c4.66699 -35.333 10.667 -63.666 18 -84.999s20 -38.666 38 -51.999h-205c8.66699 8.66699 15.5 18.834 20.5 30.501s7.5 24.5 7.5 38.5c0 2.66699 -0.166992 5.66699 -0.5 9s-0.5 6 -0.5 8l-48 347
l-139 -416l-170 399l-18 -150c-0.666992 -6.66699 -1.5 -14.5 -2.5 -23.5s-1.83301 -18.167 -2.5 -27.5s-1.33398 -17.833 -2.00098 -25.5s-1 -13.834 -1 -18.501c0 -12 0.833008 -26.167 2.5 -42.5s4.16699 -32.666 7.5 -48.999s7.33301 -31.666 12 -45.999
s10.334 -25.5 17.001 -33.5h-155c6.66699 12 13.334 25 20.001 39s13.334 31.333 20.001 52s13.167 45.5 19.5 74.5s12.5 65.167 18.5 108.5l29 207c-4.66699 7.33301 -10 14 -16 20s-13.667 12.667 -23 20h221z" />
    <glyph glyph-name="ency" unicode="&#x43d;" horiz-adv-x="614" 
d="M402 272l-200 -0.00195312v-173c0 -28.667 4.5 -50.167 13.5 -64.5s19.5 -25.833 31.5 -34.5h-226c17.333 9.33301 29.833 21.833 37.5 37.5s11.5 36.167 11.5 61.5v337c0 23.333 -5 42.333 -15 57s-21 24.667 -33 30h225
c-13.333 -15.333 -24.166 -30.166 -32.499 -44.499s-12.5 -29.166 -12.5 -44.499v-114h200v115c0 14 -3.16699 28.333 -9.5 43s-17.5 29.667 -33.5 45h235c-16 -6 -30 -16.167 -42 -30.5s-18 -33.5 -18 -57.5v-335c0 -30 4.66699 -52.833 14 -68.5
s23.666 -26.167 42.999 -31.5h-233c9.33301 6 16.833 11.667 22.5 17s10.167 11.5 13.5 18.5s5.5 15.5 6.5 25.5s1.5 22.667 1.5 38v173z" />
    <glyph glyph-name="ocy" unicode="&#x43e;" horiz-adv-x="539" 
d="M36 252c0 38 6.16797 73.3311 18.501 105.998s29 61.334 50 86.001s45.833 44 74.5 58s59 21 91 21s62.167 -7 90.5 -21s53.166 -33.167 74.499 -57.5s38.333 -52.833 51 -85.5s19 -67.667 19 -105c0 -36.667 -6.33301 -71.167 -19 -103.5
s-29.834 -60.666 -51.501 -84.999s-46.667 -43.5 -75 -57.5s-58.166 -21 -89.499 -21c-32 0 -62.333 6.66699 -91 20s-53.5 31.833 -74.5 55.5s-37.667 51.667 -50 84s-18.5 67.5 -18.5 105.5zM192.001 133.998c0 -22.667 2.16895 -41.499 6.50195 -56.499
s10.166 -26.833 17.499 -35.5s15.666 -14.834 24.999 -18.501s19 -5.5 29 -5.5c9.33301 0 18.666 2 27.999 6s17.833 10.5 25.5 19.5s13.834 20.833 18.501 35.5s7 33 7 55v30.5v48.5c0 18 -0.166992 37 -0.5 57s-0.5 38.5 -0.5 55.5v43.5v22c0 28 -6 51 -18 69
s-32 27 -60 27c-26 0 -45.5 -9 -58.5 -27s-19.5 -41 -19.5 -69v-257z" />
    <glyph glyph-name="pecy" unicode="&#x43f;" horiz-adv-x="603" 
d="M336 0c9.33301 6 16.834 11.667 22.501 17s10.167 11.5 13.5 18.5s5.5 15.5 6.5 25.5s1.5 22.667 1.5 38v371h-171v-371c0 -28.667 4.5 -50.167 13.5 -64.5s19.5 -25.833 31.5 -34.5h-226c17.333 9.33301 29.833 21.833 37.5 37.5s11.5 36.167 11.5 61.5v337
c0 23.333 -5 42.333 -15 57s-21 24.667 -33 30h543c-16 -6 -30 -16.167 -42 -30.5s-18 -33.5 -18 -57.5v-335c0 -30 4.66699 -52.833 14 -68.5s23.666 -26.167 42.999 -31.5h-233z" />
    <glyph glyph-name="ercy" unicode="&#x440;" horiz-adv-x="533" 
d="M199 458c26.667 18.667 52.668 34.6689 78.001 48.002s50.666 20 75.999 20c20 0 38.833 -5.16699 56.5 -15.5s33 -24.333 46 -42s23.167 -38.5 30.5 -62.5s11 -49.333 11 -76c0 -47.333 -9.16699 -89.333 -27.5 -126s-42 -68.834 -71 -96.501
s-61.167 -50.834 -96.5 -69.501s-69.666 -33.667 -102.999 -45v-74c0 -16.667 3.5 -32 10.5 -46s19.5 -26 37.5 -36h-231c15.333 8 27.666 20.5 36.999 37.5s14 34.167 14 51.5v471c0 19.333 -3.5 36 -10.5 50s-16.833 26 -29.5 36c28.667 6 57.5 13.333 86.5 22
s57.5 18 85.5 28v-75zM199.001 35.002c26.667 10.667 49.833 24.998 69.5 42.998s36.167 38.333 49.5 61s23.333 46.5 30 71.5s10 49.5 10 73.5c0 16 -2.33301 32.833 -7 50.5s-11.167 33.834 -19.5 48.501s-18.333 26.834 -30 36.501s-24.5 14.5 -38.5 14.5
c-10.667 0 -22 -1.16699 -34 -3.5s-22 -6.83301 -30 -13.5v-382z" />
    <glyph glyph-name="escy" unicode="&#x441;" horiz-adv-x="491" 
d="M262 524c54 0 96.999 -10.667 128.999 -32s48 -50 48 -86c0 -28 -8.83301 -49.833 -26.5 -65.5s-39.167 -23.5 -64.5 -23.5c-22.667 0 -42.834 7.83301 -60.501 23.5s-26.5 37.5 -26.5 65.5c0 15.333 2.5 28.833 7.5 40.5s11.5 21.834 19.5 30.501
c-2.66699 0 -5.66699 0.166992 -9 0.5s-6.66602 0.5 -9.99902 0.5c-32 0 -58.167 -13.5 -78.5 -40.5s-30.5 -63.5 -30.5 -109.5c0 -36 6.16699 -70 18.5 -102s29 -60 50 -84s45.667 -43 74 -57s58.5 -21 90.5 -21c12.667 0 24.667 2.16699 36 6.5
s20.666 9.16602 27.999 14.499l5 -2l1 -5c-18 -30 -44.667 -53.5 -80 -70.5s-76 -25.5 -122 -25.5c-31.333 0 -60.666 7.33301 -87.999 22s-51.5 35 -72.5 61s-37.5 56.667 -49.5 92s-18 73.666 -18 114.999c0 34.667 5.66699 67.334 17 98.001s27.333 57.5 48 80.5
s44.834 41 72.501 54s58.167 19.5 91.5 19.5z" />
    <glyph glyph-name="tecy" unicode="&#x442;" horiz-adv-x="596" 
d="M232 473h-5.99609c-14 0 -26.333 -2.83301 -37 -8.5s-20.5 -12.834 -29.5 -21.501s-17.833 -18 -26.5 -28s-18 -19.333 -28 -28s-21.167 -15.834 -33.5 -21.501s-27.166 -8.5 -44.499 -8.5c-3.33301 0 -7.33301 0.333008 -12 1s-8.66699 1.66699 -12 3
c4 6 9.16699 15.833 15.5 29.5s12.666 29 18.999 46s12.166 34.5 17.499 52.5s9 34 11 48c10.667 -8 23.5 -13.667 38.5 -17s31.167 -5 48.5 -5h290c17.333 0 33.5 1.66699 48.5 5s27.833 9 38.5 17c2 -14 5.66699 -30 11 -48s11.166 -35.5 17.499 -52.5
s12.666 -32.333 18.999 -46s11.5 -23.5 15.5 -29.5c-3.33301 -1.33301 -7.33301 -2.33301 -12 -3s-8.66699 -1 -12 -1c-25.333 0 -46 6 -62 18s-30.667 25.333 -44 40s-27 28 -41 40s-31.333 18 -52 18h-6v-366c0 -27.333 4.16699 -48.666 12.5 -63.999
s21.166 -29.666 38.499 -42.999h-235v4c14.667 7.33301 27 17.833 37 31.5s15 28.167 15 43.5v394z" />
    <glyph glyph-name="ucy" unicode="&#x443;" 
d="M62 -96c0 10.667 2.17188 20.0029 6.50488 28.0029s9.66602 14.5 15.999 19.5s13.166 8.66699 20.499 11s14 3.5 20 3.5c11.333 0 20.5 -1.5 27.5 -4.5s13.333 -6.5 19 -10.5s11.667 -7.5 18 -10.5s14.166 -4.5 23.499 -4.5c8.66699 0 17.167 5.16699 25.5 15.5
s15.166 22.166 20.499 35.499l-191 416c-7.33301 16 -18.333 31.167 -33 45.5s-29.334 23.166 -44.001 26.499c30 6.66699 59.167 14.167 87.5 22.5s55.833 19.166 82.5 32.499c6 -18.667 12.167 -35 18.5 -49l21.5 -47l129 -285c24 54 41.333 99.833 52 137.5
s16 67.167 16 88.5c0 34 -5 62.5 -15 85.5s-24.667 44.167 -44 63.5h210c-18.667 -25.333 -35.834 -52.5 -51.501 -81.5s-31.167 -62.5 -46.5 -100.5l-142 -349c-7.33301 -18.667 -16.333 -37.667 -27 -57s-22.667 -36.833 -36 -52.5s-28.166 -28.5 -44.499 -38.5
s-33.833 -15 -52.5 -15c-26 0 -47 6.33301 -63 19s-24 31 -24 55z" />
    <glyph glyph-name="efcy" unicode="&#x444;" horiz-adv-x="818" 
d="M475 -81c0 -16.667 3.50195 -31.999 10.502 -45.999s19.5 -26 37.5 -36h-231c15.333 8 27.666 20.5 36.999 37.5s14 34.167 14 51.5v111c-15.333 -17.333 -30.333 -29 -45 -35s-32.334 -9 -53.001 -9c-64 0 -113.667 22.833 -149 68.5s-53 111.834 -53 198.501
c0 37.333 4.66699 72 14 104s22 59.833 38 83.5s34.833 42.334 56.5 56.001s45.167 20.5 70.5 20.5c23.333 0 44.666 -4.5 63.999 -13.5s38.333 -25.167 57 -48.5v139c0 25.333 -2.33301 46.166 -7 62.499s-15.667 31.166 -33 44.499c30 4.66699 59 10.667 87 18
s56.333 18 85 32v-297c18.667 23.333 37.5 39.666 56.5 48.999s40.167 14 63.5 14c25.333 0 49 -6.83301 71 -20.5s41.333 -32.334 58 -56.001s29.667 -51.667 39 -84s14 -67.166 14 -104.499c0 -86.667 -17.667 -152.5 -53 -197.5s-85 -67.5 -149 -67.5
c-20.667 0 -39.167 3.83301 -55.5 11.5s-31.166 18.167 -44.499 31.5v-118zM343.002 401.001c-7.33301 13.333 -17.334 26.001 -30.001 38.001s-26.334 18 -41.001 18c-15.333 0 -28.166 -5.16699 -38.499 -15.5s-18.666 -24 -24.999 -41s-10.833 -36.833 -13.5 -59.5
s-4 -46.334 -4 -71.001c0 -142 32.667 -213 98 -213c18 0 31.5 8.16699 40.5 24.5s13.5 37.5 13.5 63.5v256zM475.001 144.002c0 -26 4.49902 -47.168 13.499 -63.501s22.5 -24.5 40.5 -24.5c65.333 0 98 71 98 213c0 24.667 -1.33301 48.334 -4 71.001
s-7.16699 42.5 -13.5 59.5s-14.666 30.667 -24.999 41s-23.166 15.5 -38.499 15.5c-14.667 0 -28.334 -6 -41.001 -18s-22.667 -24.667 -30 -38v-256z" />
    <glyph glyph-name="hacy" unicode="&#x445;" 
d="M312 330c16.667 19.333 29.6689 37.001 39.002 53.001s14 34.333 14 55c0 12 -3 23.333 -9 34s-13.333 20.667 -22 30l1 4h178v-12c-22.667 -17.333 -44.334 -37 -65.001 -59s-40.334 -44.333 -59.001 -67l-58 -70l79 -136c14 -24 26.5 -44.333 37.5 -61
s21.333 -31 31 -43s18.834 -22.167 27.501 -30.5s18 -16.5 28 -24.5v-3h-249l-1 5c9.33301 5.33301 16.333 10.666 21 15.999s7 14 7 26c0 9.33301 -2.83301 20.166 -8.5 32.499s-12.834 25.833 -21.501 40.5l-41 72c-15.333 -19.333 -28 -38.333 -38 -57
s-15 -36.667 -15 -54c0 -14 3.16699 -28.167 9.5 -42.5s14.166 -25.166 23.499 -32.499l-2 -6h-214l-2 6c24 17.333 45.5 35 64.5 53s37.5 37.667 55.5 59l99 112l-94 158c-16.667 26.667 -34 47.5 -52 62.5s-35.667 25.167 -53 30.5l42 9.5
c12.667 3 25.334 6.33301 38.001 10s26 8 40 13s30 11.167 48 18.5z" />
    <glyph glyph-name="tsecy" unicode="&#x446;" horiz-adv-x="616" 
d="M29 0c12 5.33301 23.0039 15.3301 33.0039 29.9971s15 33.667 15 57v335c0 25.333 -3.83301 45.833 -11.5 61.5s-20.167 28.167 -37.5 37.5h226c-12 -8.66699 -22.5 -20.167 -31.5 -34.5s-13.5 -35.833 -13.5 -64.5v-374h171v374c0 15.333 -0.5 28 -1.5 38
s-3.16699 18.5 -6.5 25.5s-7.83301 13.167 -13.5 18.5s-13.167 11 -22.5 17h233c-19.333 -5.33301 -33.666 -15.833 -42.999 -31.5s-14 -38.5 -14 -68.5l-1 -313c1.33301 -25.333 5.33301 -43.666 12 -54.999s14.834 -18.166 24.501 -20.499s19.667 -1.16602 30 3.50098
s20.166 10.667 29.499 18l5 -2c-3.33301 -17.333 -5.83301 -35.333 -7.5 -54s-1.83398 -37.5 -0.500977 -56.5s4.16602 -37.5 8.49902 -55.5s11.166 -34.333 20.499 -49v-5c-24.667 6 -44.834 14.333 -60.501 25s-28.334 22.167 -38.001 34.5s-17.5 25 -23.5 38
s-11.833 24.667 -17.5 35s-12.167 18.833 -19.5 25.5s-17.333 10 -30 10h-415z" />
    <glyph glyph-name="checy" unicode="&#x447;" horiz-adv-x="567" 
d="M363 284c-15.333 -20 -35.9971 -38.0039 -61.9971 -54.0039s-58.333 -24.667 -97 -26c-46 -2 -80.5 8.33301 -103.5 31s-34.5 54 -34.5 94v108c0 46.667 -12.667 75.667 -38 87h205c-12.667 -14 -21.5 -27.833 -26.5 -41.5s-7.83301 -27.5 -8.5 -41.5v-86
c0 -21.333 4 -38 12 -50s18.167 -20.333 30.5 -25s25.666 -5.66699 39.999 -3s27.666 8.16699 39.999 16.5s22.5 19.333 30.5 33s12 29.5 12 47.5v63c0 46.667 -12.667 75.667 -38 87h205c-13.333 -15.333 -22.5 -30.166 -27.5 -44.499s-7.5 -29.166 -7.5 -44.499v-328
c0 -27.333 4.16699 -48.666 12.5 -63.999s21.166 -29.666 38.499 -42.999h-235c12.667 8.66699 24.5 21.5 35.5 38.5s16.5 39.5 16.5 67.5v178z" />
    <glyph glyph-name="afii10090" unicode="&#x448;" horiz-adv-x="896" 
d="M26 0c12 5.33301 22.999 15.333 32.999 30s15 33.667 15 57v335c0 25.333 -3.83301 45.833 -11.5 61.5s-20.167 28.167 -37.5 37.5h226c-12 -8.66699 -22.5 -20.167 -31.5 -34.5s-13.5 -35.833 -13.5 -64.5v-374h171v374c0 15.333 -0.5 28 -1.5 38
s-3.16699 18.5 -6.5 25.5s-7.83301 13.167 -13.5 18.5s-13.167 11 -22.5 17h226c-12 -8.66699 -22.5 -20.167 -31.5 -34.5s-13.5 -35.833 -13.5 -64.5v-374h171v374c0 15.333 -0.5 28 -1.5 38s-3.16699 18.5 -6.5 25.5s-7.83301 13.167 -13.5 18.5s-13.167 11 -22.5 17h232
c-19.333 -5.33301 -33.666 -15.833 -42.999 -31.5s-14 -38.5 -14 -68.5v-334c0 -23.333 5 -42.333 15 -57s21 -24.667 33 -30h-838z" />
    <glyph glyph-name="afii10091" unicode="&#x449;" horiz-adv-x="921" 
d="M26 0c12 5.33301 23.0039 15.3301 33.0039 29.9971s15 33.667 15 57v335c0 25.333 -3.83301 45.833 -11.5 61.5s-20.167 28.167 -37.5 37.5h226c-12 -8.66699 -22.5 -20.167 -31.5 -34.5s-13.5 -35.833 -13.5 -64.5v-374h171v374c0 15.333 -0.5 28 -1.5 38
s-3.16699 18.5 -6.5 25.5s-7.83301 13.167 -13.5 18.5s-13.167 11 -22.5 17h226c-12 -8.66699 -22.5 -20.167 -31.5 -34.5s-13.5 -35.833 -13.5 -64.5v-374h171v374c0 15.333 -0.5 28 -1.5 38s-3.16699 18.5 -6.5 25.5s-7.83301 13.167 -13.5 18.5s-13.167 11 -22.5 17h232
c-19.333 -5.33301 -33.666 -15.833 -42.999 -31.5s-14 -38.5 -14 -68.5v-313c1.33301 -25.333 5.33301 -43.666 12 -54.999s14.834 -18.166 24.501 -20.499s19.667 -1.16602 30 3.50098s20.166 10.667 29.499 18l5 -2c-3.33301 -17.333 -5.83301 -35.333 -7.5 -54
s-1.83398 -37.5 -0.500977 -56.5s4.16602 -37.5 8.49902 -55.5s11.166 -34.333 20.499 -49v-5c-24.667 6 -44.834 14.333 -60.501 25s-28.334 22.167 -38.001 34.5s-17.5 25 -23.5 38s-11.833 24.667 -17.5 35s-12.167 18.833 -19.5 25.5s-17.333 10 -30 10h-723z" />
    <glyph glyph-name="hardsigncy" unicode="&#x44a;" horiz-adv-x="712" 
d="M342 322h84.0029c32 0 63 -2.16699 93 -6.5s56.667 -12.5 80 -24.5s42.166 -28.5 56.499 -49.5s21.5 -47.833 21.5 -80.5c0 -28.667 -7 -53.167 -21 -73.5s-32.667 -37 -56 -50s-50 -22.5 -80 -28.5s-61 -9 -93 -9h-251c6.66699 6 12.167 12.5 16.5 19.5
s7.83301 15.167 10.5 24.5s4.5 20.5 5.5 33.5s1.5 28.833 1.5 47.5v355c-14 0 -25.333 -3 -34 -9s-16.5 -13.5 -23.5 -22.5s-13.667 -18.833 -20 -29.5s-14 -20.5 -23 -29.5s-20 -16.5 -33 -22.5s-29.167 -9 -48.5 -9c-3.33301 0 -7.33301 0.333008 -12 1
s-8.66699 1.66699 -12 3c4 6 9.16699 16.167 15.5 30.5s12.666 30.166 18.999 47.499s12.166 35.166 17.499 53.499s9 34.5 11 48.5c12.667 -8 26 -13.333 40 -16s29.667 -4 47 -4h240v-4c-14 -7.33301 -26.167 -18.166 -36.5 -32.499s-15.5 -34.166 -15.5 -59.499v-104z
M378.003 48c22.667 0 43.001 1.66797 61.001 5.00098s33.167 9.16602 45.5 17.499s21.666 19.833 27.999 34.5s9.5 33.667 9.5 57c0 20 -4 37.167 -12 51.5s-18.667 26 -32 35s-28.833 15.5 -46.5 19.5s-36.5 6 -56.5 6h-33v-226h36z" />
    <glyph glyph-name="yerucy" unicode="&#x44b;" horiz-adv-x="813" 
d="M607 436c0 46.667 -12.666 75.665 -37.999 86.998h205c-13.333 -15.333 -22.5 -30.166 -27.5 -44.499s-7.5 -29.166 -7.5 -44.499v-335c0 -28.667 4.16699 -50.167 12.5 -64.5s18.5 -25.833 30.5 -34.5h-220c17.333 9.33301 29.166 21.833 35.499 37.5
s9.5 36.167 9.5 61.5v337zM202.001 321.998l70 -0.00292969c32 0 63 -2.16699 93 -6.5s56.667 -12.5 80 -24.5s42.166 -28.5 56.499 -49.5s21.5 -47.833 21.5 -80.5c0 -28.667 -7 -53.167 -21 -73.5s-32.667 -37 -56 -50s-50 -22.5 -80 -28.5s-61 -9 -93 -9h-237
c6.66699 6 12.334 12.333 17.001 19s8.16699 14.834 10.5 24.501s4 21 5 34s1.5 28.833 1.5 47.5v298c0 25.333 -4.16699 45 -12.5 59s-20.833 27.667 -37.5 41h234v-4c-14 -7.33301 -26.167 -18.166 -36.5 -32.499s-15.5 -34.166 -15.5 -59.499v-105zM226.001 47.9951
c25.333 0 46.332 1.66797 62.999 5.00098s30.834 9.16602 42.501 17.499s20.667 19.833 27 34.5s9.5 33.667 9.5 57c0 20 -3.83301 37.167 -11.5 51.5s-18 26 -31 35s-27.667 15.5 -44 19.5s-33.5 6 -51.5 6h-28v-226h24z" />
    <glyph glyph-name="softsigncy" unicode="&#x44c;" horiz-adv-x="582" 
d="M202 322l94 -0.00292969c32 0 63 -2.16699 93 -6.5s56.667 -12.5 80 -24.5s42.166 -28.5 56.499 -49.5s21.5 -47.833 21.5 -80.5c0 -28.667 -7 -53.167 -21 -73.5s-32.667 -37 -56 -50s-50 -22.5 -80 -28.5s-61 -9 -93 -9h-261c6.66699 6 12.334 12.333 17.001 19
s8.16699 14.834 10.5 24.501s4 21 5 34s1.5 28.833 1.5 47.5v298c0 25.333 -4.16699 45 -12.5 59s-20.833 27.667 -37.5 41h234v-4c-14 -7.33301 -26.167 -18.166 -36.5 -32.499s-15.5 -34.166 -15.5 -59.499v-105zM248 47.9971c22.667 0 43.001 1.66797 61.001 5.00098
s33.167 9.16602 45.5 17.499s21.666 19.833 27.999 34.5s9.5 33.667 9.5 57c0 20 -4 37.167 -12 51.5s-18.667 26 -32 35s-28.833 15.5 -46.5 19.5s-36.5 6 -56.5 6h-43v-226h46z" />
    <glyph glyph-name="ereversedcy" unicode="&#x44d;" horiz-adv-x="501" 
d="M243 480c-18 0 -31.3271 -4.66406 -39.9941 -13.9971s-17.167 -19.833 -25.5 -31.5s-19 -22.167 -32 -31.5s-33.5 -14 -61.5 -14c-14 0 -27 4.33301 -39 13c17.333 19.333 33 41 47 65s24.667 48.333 32 73c8.66699 -4 19 -7.5 31 -10.5s24.167 -5.16699 36.5 -6.5
s24 -2.33301 35 -3s19.5 -1 25.5 -1c32.667 0 62.167 -6.33301 88.5 -19s48.666 -30.167 66.999 -52.5s32.333 -48.833 42 -79.5s14.5 -64 14.5 -100c0 -40.667 -6 -78.334 -18 -113.001s-28.5 -64.834 -49.5 -90.501s-45.333 -45.834 -73 -60.501s-56.834 -22 -87.501 -22
c-46 0 -86.667 8.5 -122 25.5s-62 40.5 -80 70.5l1 5l5 2c7.33301 -5.33301 16.666 -10.166 27.999 -14.499s23.333 -6.5 36 -6.5c29.333 0 56.833 6 82.5 18s48.5 28.333 68.5 49s36.833 44.167 50.5 70.5s22.834 54.166 27.501 83.499c-6 -10 -12.667 -20.167 -20 -30.5
s-15.333 -19.5 -24 -27.5s-18.667 -14.333 -30 -19s-24 -6 -38 -4c-12 1.33301 -22.333 4.83301 -31 10.5s-16.5 11.5 -23.5 17.5l-20 17c-6.33301 5.33301 -13.166 8.66602 -20.499 9.99902c-12 1.33301 -21.667 -1.5 -29 -8.5s-13.333 -14.167 -18 -21.5h-9
c0.666992 2 1 5 1 9c2 11.333 6.16699 23.333 12.5 36s14.333 24.167 24 34.5s21 18.5 34 24.5s27.5 8 43.5 6c8.66699 -1.33301 17.667 -4.66602 27 -9.99902s18.666 -11 27.999 -17s18.666 -11.5 27.999 -16.5s18.166 -7.5 26.499 -7.5s16.166 3.16699 23.499 9.5
s13.666 17.833 18.999 34.5c-0.666992 44.667 -8.5 80.5 -23.5 107.5s-38.5 40.5 -70.5 40.5z" />
    <glyph glyph-name="afii10096" unicode="&#x44e;" horiz-adv-x="768" 
d="M266 252l-0.000976562 19.9951h-64v-173c0 -28.667 4.5 -50.167 13.5 -64.5s19.5 -25.833 31.5 -34.5h-226c17.333 9.33301 29.833 21.833 37.5 37.5s11.5 36.167 11.5 61.5v337c0 23.333 -5 42.333 -15 57s-21 24.667 -33 30h225
c-13.333 -15.333 -24.166 -30.166 -32.499 -44.499s-12.5 -29.166 -12.5 -44.499v-114h71c2.66699 12.667 6.33398 25.334 11.001 38.001c12.667 32.667 29.5 61.334 50.5 86.001s45.833 44 74.5 58s59 21 91 21s62.167 -7 90.5 -21s53.166 -33.167 74.499 -57.5
s38.333 -52.833 51 -85.5s19 -67.667 19 -105c0 -36.667 -6.33301 -71.167 -19 -103.5s-29.834 -60.666 -51.501 -84.999s-46.667 -43.5 -75 -57.5s-58.166 -21 -89.499 -21c-32 0 -62.333 6.66699 -91 20s-53.5 31.833 -74.5 55.5s-37.667 51.667 -50 84
s-18.5 67.5 -18.5 105.5zM421.999 133.995c0 -22.667 2.16895 -41.499 6.50195 -56.499s10.166 -26.833 17.499 -35.5s15.666 -14.834 24.999 -18.501s19 -5.5 29 -5.5c9.33301 0 18.666 2 27.999 6s17.833 10.5 25.5 19.5s13.834 20.833 18.501 35.5s7 33 7 55v79
c0 18 -0.166992 37 -0.5 57s-0.5 38.333 -0.5 55v66c0 28 -6 51 -18 69s-32 27 -60 27c-26 0 -45.5 -9 -58.5 -27s-19.5 -41 -19.5 -69v-257z" />
    <glyph glyph-name="iacy" unicode="&#x44f;" horiz-adv-x="577" 
d="M306 250l-67.002 -160.002c-5.33301 -11.333 -8.66602 -20.333 -9.99902 -27s-2 -13 -2 -19c0 -14 6.66699 -28.667 20 -44h-232c12 7.33301 24.833 18.333 38.5 33s27.167 36.334 40.5 65.001l73 152c-20.667 1.33301 -39.5 4.83301 -56.5 10.5s-31.5 14 -43.5 25
s-21.333 24.833 -28 41.5s-10 36.667 -10 60c0 18.667 3.5 36.167 10.5 52.5s18.5 30.666 34.5 42.999s37.333 22 64 29s60 10.5 100 10.5h295c-11.333 -7.33301 -18.5 -15.5 -21.5 -24.5s-4.5 -23.833 -4.5 -44.5v-375c0 -20 3.5 -36.667 10.5 -50
s14.833 -22.666 23.5 -27.999h-198c10.667 7.33301 18.834 16.333 24.501 27s8.16699 27.334 7.5 50.001v173h-69zM374.998 289.998l-0.000976562 189h-37c-31.333 0 -56.833 -2 -76.5 -6s-35 -10.167 -46 -18.5s-18.333 -18.5 -22 -30.5s-5.16699 -26 -4.5 -42
c0.666992 -16.667 3.83398 -30.834 9.50098 -42.501s15.167 -21.167 28.5 -28.5s31 -12.666 53 -15.999s49.333 -5 82 -5h13z" />
    <glyph glyph-name="iocy" unicode="&#x451;" horiz-adv-x="513" 
d="M37 259c0 32 5.16992 64 15.5029 96s25.166 60.833 44.499 86.5s42.666 46.667 69.999 63s58 24.5 92 24.5c31.333 0 60 -6.66699 86 -20s48.167 -31 66.5 -53s32.666 -47.333 42.999 -76s15.5 -58 15.5 -88c0 -9.33301 -0.333008 -15 -1 -17h-306
c7.33301 -30.667 19.166 -58.167 35.499 -82.5s35 -45 56 -62s43.333 -30.167 67 -39.5s46.834 -14 69.501 -14c21.333 0 41.166 3.16699 59.499 9.5s35.166 14.833 50.499 25.5c-10 -22.667 -25.667 -43 -47 -61s-45 -31.667 -71 -41
c-15.333 -5.33301 -31.166 -10.166 -47.499 -14.499s-32.166 -6.5 -47.499 -6.5c-36.667 0 -70.334 7.5 -101.001 22.5s-57.167 35 -79.5 60s-39.666 53.667 -51.999 86s-18.5 66.166 -18.5 101.499zM148.003 376c0 -24 1.66699 -43.332 5 -57.999v-4h169
c0 18 -1.66699 36.5 -5 55.5s-8.5 36.333 -15.5 52s-16 28.5 -27 38.5s-24.167 15 -39.5 15c-22 0 -42 -8.33301 -60 -25s-27 -41.334 -27 -74.001zM344.003 675.001c15.333 0 28.666 -5.5 39.999 -16.5s17 -24.167 17 -39.5s-5.66699 -28.166 -17 -38.499
s-24.666 -15.5 -39.999 -15.5s-28.166 5.16699 -38.499 15.5s-15.5 23.166 -15.5 38.499s5.16699 28.5 15.5 39.5s23.166 16.5 38.499 16.5zM168.003 675.001c15.333 0 28.5 -5.16699 39.5 -15.5s16.5 -23.166 16.5 -38.499s-5.5 -28.5 -16.5 -39.5
s-24.167 -16.5 -39.5 -16.5s-28.166 5.5 -38.499 16.5s-15.5 24.167 -15.5 39.5s5.16699 28.166 15.5 38.499s23.166 15.5 38.499 15.5z" />
    <glyph glyph-name="afii10101" unicode="&#x454;" horiz-adv-x="501" 
d="M255 480c-32 0 -55.665 -13.835 -70.998 -41.502s-23 -64.5 -23 -110.5c0 -24.667 3 -48.334 9 -71.001l1 7l21 31.5c7.33301 11 15.5 21 24.5 30s19.333 16.167 31 21.5s25.167 7 40.5 5c12 -1.33301 22.333 -4.83301 31 -10.5s16.5 -11.5 23.5 -17.5l20 -17
c6.33301 -5.33301 13.166 -8.66602 20.499 -9.99902c12 -1.33301 21.667 1.5 29 8.5s13.333 14.167 18 21.5h9c-0.666992 -2 -1 -5 -1 -9c-2 -11.333 -6.16699 -23.333 -12.5 -36s-14.333 -24.167 -24 -34.5s-21 -18.5 -34 -24.5s-27.5 -8 -43.5 -6
c-12.667 1.33301 -25.834 6.83301 -39.501 16.5s-27 17.834 -40 24.501s-25.333 9.5 -37 8.5s-21.834 -11.167 -30.501 -30.5c8 -24 19.167 -46.333 33.5 -67s30.833 -38.834 49.5 -54.501s39.334 -28 62.001 -37s46.667 -13.5 72 -13.5c12.667 0 24.667 2.16699 36 6.5
s20.666 9.16602 27.999 14.499l5 -2l1 -5c-18 -30 -44.667 -53.5 -80 -70.5s-76 -25.5 -122 -25.5c-31.333 0 -60.666 7.33301 -87.999 22s-51.5 34.834 -72.5 60.501s-37.5 55.834 -49.5 90.501s-18 72.334 -18 113.001c0 36 4.83301 69.333 14.5 100
s23.667 57.167 42 79.5s40.5 39.833 66.5 52.5s55.667 19 89 19c6 0 14.5 0.333008 25.5 1s22.667 1.66699 35 3s24.5 3.5 36.5 6.5s22.333 6.5 31 10.5c7.33301 -24.667 18 -49 32 -73s29.667 -45.667 47 -65c-12 -8.66699 -25 -13 -39 -13c-28 0 -48.5 4.66699 -61.5 14
s-23.667 19.833 -32 31.5s-16.833 22.167 -25.5 31.5s-22 14 -40 14z" />
    <glyph glyph-name="afii10103" unicode="&#x456;" horiz-adv-x="269" 
d="M70 404c0 17.333 -3.83203 33.498 -11.499 48.498s-20.167 26.167 -37.5 33.5c34 3.33301 65.167 9.33301 93.5 18s57.5 19 87.5 31v-428c0 -27.333 4.16699 -48.666 12.5 -63.999s21.166 -29.666 38.499 -42.999h-235v4c14.667 7.33301 27 17.833 37 31.5
s15 28.167 15 43.5v325zM54.001 662.998c0 22 7.5 40.833 22.5 56.5s33.167 23.5 54.5 23.5c22 0 40.667 -7.83301 56 -23.5s23 -34.5 23 -56.5s-7.66699 -40.667 -23 -56s-34 -23 -56 -23c-21.333 0 -39.5 7.66699 -54.5 23s-22.5 34 -22.5 56z" />
    <glyph glyph-name="yicy" unicode="&#x457;" horiz-adv-x="269" 
d="M70 404c0 17.333 -3.83203 33.498 -11.499 48.498s-20.167 26.167 -37.5 33.5c34 3.33301 65.167 9.33301 93.5 18s57.5 19 87.5 31v-428c0 -27.333 4.16699 -48.666 12.5 -63.999s21.166 -29.666 38.499 -42.999h-235v4c14.667 7.33301 27 17.833 37 31.5
s15 28.167 15 43.5v325zM221.001 674.998c15.333 0 28.666 -5.5 39.999 -16.5s17 -24.167 17 -39.5s-5.66699 -28.166 -17 -38.499s-24.666 -15.5 -39.999 -15.5s-28.166 5.16699 -38.499 15.5s-15.5 23.166 -15.5 38.499s5.16699 28.5 15.5 39.5s23.166 16.5 38.499 16.5z
M45.001 674.998c15.333 0 28.5 -5.16699 39.5 -15.5s16.5 -23.166 16.5 -38.499s-5.5 -28.5 -16.5 -39.5s-24.167 -16.5 -39.5 -16.5s-28.166 5.5 -38.499 16.5s-15.5 24.167 -15.5 39.5s5.16699 28.166 15.5 38.499s23.166 15.5 38.499 15.5z" />
    <glyph glyph-name="afii10110" unicode="&#x45e;" 
d="M62 -96c0 10.667 2.17188 20.0029 6.50488 28.0029s9.66602 14.5 15.999 19.5s13.166 8.66699 20.499 11s14 3.5 20 3.5c11.333 0 20.5 -1.5 27.5 -4.5s13.333 -6.5 19 -10.5s11.667 -7.5 18 -10.5s14.166 -4.5 23.499 -4.5c8.66699 0 17.167 5.16699 25.5 15.5
s15.166 22.166 20.499 35.499l-191 416c-7.33301 16 -18.333 31.167 -33 45.5s-29.334 23.166 -44.001 26.499c30 6.66699 59.167 14.167 87.5 22.5s55.833 19.166 82.5 32.499c6 -18.667 12.167 -35 18.5 -49l21.5 -47l129 -285c24 54 41.333 99.833 52 137.5
s16 67.167 16 88.5c0 34 -5 62.5 -15 85.5s-24.667 44.167 -44 63.5h210c-18.667 -25.333 -35.834 -52.5 -51.501 -81.5s-31.167 -62.5 -46.5 -100.5l-142 -349c-7.33301 -18.667 -16.333 -37.667 -27 -57s-22.667 -36.833 -36 -52.5s-28.166 -28.5 -44.499 -38.5
s-33.833 -15 -52.5 -15c-26 0 -47 6.33301 -63 19s-24 31 -24 55zM111.005 678.003c0 16.667 5.50488 29.5 16.5049 38.5s22.833 13.5 35.5 13.5c22.667 0 38.167 -5.66699 46.5 -17s13.166 -24.333 14.499 -39c2.66699 -20.667 8.5 -35 17.5 -43s21.5 -12 37.5 -12
c33.333 0 52.666 18.333 57.999 55c1.33301 14 6.16602 26.833 14.499 38.5s25.166 17.5 50.499 17.5c11.333 0 22.166 -4.83301 32.499 -14.5s15.5 -22.167 15.5 -37.5c0 -17.333 -5.16699 -31.666 -15.5 -42.999s-24 -20.333 -41 -27s-35.5 -11.5 -55.5 -14.5
s-39.667 -4.5 -59 -4.5s-39 1.5 -59 4.5s-38 7.83301 -54 14.5s-29.167 15.667 -39.5 27s-15.5 25.666 -15.5 42.999z" />
    <glyph glyph-name="Yatcy" unicode="&#x462;" horiz-adv-x="851" 
d="M232 175l-0.00292969 414.003c-17.333 -2.66699 -36 -11.667 -56 -27s-38.667 -31.666 -56 -48.999c-14.667 -13.333 -31.167 -23.666 -49.5 -30.999s-34.5 -11 -48.5 -11c-6 0 -11.333 1.66699 -16 5c6.66699 10.667 13.667 23.667 21 39s14.166 31 20.499 47
s12.166 31.833 17.499 47.5s9.33301 29.5 12 41.5c8.66699 -5.33301 23 -12 43 -20s43.333 -12 70 -12h42c-0.666992 7.33301 -2 15.333 -4 24c-2.66699 9.33301 -6 18.166 -10 26.499s-8.16699 15.666 -12.5 21.999s-8.5 11.5 -12.5 15.5h207
c-7.33301 -7.33301 -14.666 -19 -21.999 -35c-6.66699 -13.333 -10.334 -31 -11.001 -53h35c28.667 0 53.834 3 75.501 9s38.834 13.333 51.501 22c0.666992 -12 2.83398 -26 6.50098 -42s8.33398 -32.167 14.001 -48.5s11.5 -32 17.5 -47s12 -27.5 18 -37.5
c-3.33301 -1.33301 -6.66602 -2.33301 -9.99902 -3s-6.66602 -1 -9.99902 -1c-17.333 0 -36.5 5.5 -57.5 16.5s-38.5 24.167 -52.5 39.5c-15.333 17.333 -30.833 31.5 -46.5 42.5s-29.5 17.5 -41.5 19.5v-158h15c22.667 0 49 -1 79 -3s60.833 -6 92.5 -12
s62.834 -14.333 93.501 -25s58 -24.334 82 -41.001s43.333 -37 58 -61s22 -52.333 22 -85c0 -34 -8 -63.667 -24 -89s-37.333 -46.5 -64 -63.5s-57.334 -29.833 -92.001 -38.5s-70.334 -13 -107.001 -13h-338c10 8.66699 18 17.667 24 27s10.833 20.666 14.5 33.999
s6.16699 29.166 7.5 47.499s2 40.5 2 66.5zM411.997 53.0029c32.667 0 62.999 2.5 90.999 7.5s52.333 13.667 73 26s36.834 28.833 48.501 49.5s17.5 47 17.5 79c0 34 -8.5 61.5 -25.5 82.5s-38.5 37.333 -64.5 49s-54.5 19.667 -85.5 24s-60.833 6.5 -89.5 6.5h-10v-324h45
z" />
    <glyph glyph-name="yatcy" unicode="&#x463;" horiz-adv-x="721" 
d="M156 715c24.667 3.33301 52.665 8.16699 83.998 14.5s64 15.833 98 28.5v-235h23c28.667 0 53.834 3 75.501 9s38.834 13.333 51.501 22c0.666992 -12 2.16699 -26 4.5 -42s5.5 -32.167 9.5 -48.5s8.33301 -32 13 -47s10 -27.5 16 -37.5c-19.333 -8 -37.333 -8 -54 0
s-32.834 19.167 -48.501 33.5s-31 29.166 -46 44.499s-29.833 26 -44.5 32v-167h94c32 0 63 -2.16699 93 -6.5s56.667 -12.5 80 -24.5s42.166 -28.5 56.499 -49.5s21.5 -47.833 21.5 -80.5c0 -28.667 -7 -53.167 -21 -73.5s-32.667 -37 -56 -50s-50 -22.5 -80 -28.5
s-61 -9 -93 -9h-277c10 6.66699 20.833 17.834 32.5 33.501s17.5 35.5 17.5 59.5v400c-11.333 -1.33301 -22.333 -5.83301 -33 -13.5s-21.334 -16.5 -32.001 -26.5s-21.167 -20.5 -31.5 -31.5s-21.166 -20.5 -32.499 -28.5s-23.166 -13.5 -35.499 -16.5
s-25.166 -1.83301 -38.499 3.5c6.66699 10.667 13 23.667 19 39s11.667 31 17 47s10 31.833 14 47.5s7.33301 29.5 10 41.5c8.66699 -5.33301 23 -12 43 -20s43.333 -12 70 -12h30v118c0 16.667 -3.66699 30.667 -11 42s-20.333 22 -39 32zM383.998 48.001
c22.667 0 43.001 1.66797 61.001 5.00098s33.167 9.16602 45.5 17.499s21.666 19.833 27.999 34.5s9.5 33.667 9.5 57c0 20 -4 37.167 -12 51.5s-18.667 26 -32 35s-28.833 15.5 -46.5 19.5s-36.5 6 -56.5 6h-43v-226h46z" />
    <glyph glyph-name="afii10147" unicode="&#x472;" horiz-adv-x="764" 
d="M194 543c1.33301 17.333 7 36.6621 17 57.9951s24.333 41.333 43 60s41.167 34.334 67.5 47.001s56.5 19 90.5 19c44.667 0 86.667 -9.5 126 -28.5s73.833 -45 103.5 -78s53 -71.667 70 -116s25.5 -91.5 25.5 -141.5c0 -56.667 -8.66699 -108.5 -26 -155.5
s-41.833 -87.5 -73.5 -121.5s-70 -60.333 -115 -79s-94.833 -28 -149.5 -28c-46.667 0 -91 9.16699 -133 27.5s-78.833 43.333 -110.5 75s-56.834 69 -75.501 112s-28 89.5 -28 139.5c0 78.667 16.5 149.834 49.5 213.501s84.833 113.834 155.5 150.501l15 -13
c-17.333 -13.333 -32.166 -28.666 -44.499 -45.999s-22.333 -35.833 -30 -55.5s-13.334 -39.834 -17.001 -60.501s-5.5 -41 -5.5 -61c0 -67.333 10.833 -127 32.5 -179s48.334 -95.667 80.001 -131s65.5 -62.166 101.5 -80.499s68.333 -27.5 97 -27.5
c30.667 0 57.834 5.5 81.501 16.5s43.667 26.333 60 46s28.833 43 37.5 70s13 56.167 13 87.5c0 50.667 -8 96.834 -24 138.501s-37.167 77.167 -63.5 106.5s-56.833 52 -91.5 68s-70.334 24 -107.001 24c-43.333 0 -76.833 -5.16699 -100.5 -15.5
s-45.167 -25.833 -64.5 -46.5zM583 407.996c-12.667 -14 -25.3301 -22.833 -37.9971 -26.5s-25.167 -4 -37.5 -1s-25 8.33301 -38 16l-40.5 23c-14 7.66699 -28.667 14.5 -44 20.5s-31.666 9 -48.999 9c-14 0 -27 -3 -39 -9s-23.333 -13.667 -34 -23
s-20.334 -19.333 -29.001 -30s-16.334 -21 -23.001 -31l1 -21c12.667 14 25 22.667 37 26s24.333 3.33301 37 0s25.5 -8.83301 38.5 -16.5l40 -23c13.667 -7.66699 28.167 -14.5 43.5 -20.5s31.333 -9 48 -9c14 0 27.5 3.16699 40.5 9.5s25.167 14.5 36.5 24.5
s21.666 21 30.999 33s17.666 23.333 24.999 34z" />
    <glyph glyph-name="fitacy" unicode="&#x473;" horiz-adv-x="541" 
d="M36 252c0 38 6.16797 73.3311 18.501 105.998s29 61.334 50 86.001s45.833 44 74.5 58s59 21 91 21s62.167 -7 90.5 -21s53.166 -33.167 74.499 -57.5s38.333 -52.833 51 -85.5s19 -67.667 19 -105c0 -36.667 -6.33301 -71.167 -19 -103.5
s-29.834 -60.666 -51.501 -84.999s-46.667 -43.5 -75 -57.5s-58.166 -21 -89.499 -21c-32 0 -62.333 6.66699 -91 20s-53.5 31.833 -74.5 55.5s-37.667 51.667 -50 84s-18.5 67.5 -18.5 105.5zM192.001 292.998h156v98c0 28 -6 51 -18 69s-32 27 -60 27
c-26 0 -45.5 -9 -58.5 -27s-19.5 -41 -19.5 -69v-98zM349.001 244.998l-156.998 0.000976562v-111c0 -22.667 2.16699 -41.5 6.5 -56.5s10.166 -26.833 17.499 -35.5s15.666 -14.834 24.999 -18.501s19 -5.5 29 -5.5c9.33301 0 18.666 2 27.999 6s17.833 10.5 25.5 19.5
s13.834 20.833 18.501 35.5s7 33 7 55v111z" />
    <glyph glyph-name="Izhitsacy" unicode="&#x474;" horiz-adv-x="809" 
d="M248 700c-12 -10 -20.333 -19.165 -25 -27.498s-7 -19.5 -7 -33.5c0 -5.33301 1 -11.5 3 -18.5s4.66699 -15.167 8 -24.5l162 -424l115 368c10.667 34.667 22.667 63.167 36 85.5s28.166 40 44.499 53s34 22.167 53 27.5s39.5 8 61.5 8c16.667 0 31.334 -2.5 44.001 -7.5
s23.167 -11.333 31.5 -19s14.666 -15.834 18.999 -24.501s6.5 -17 6.5 -25c0 -24 -7.66699 -43.667 -23 -59s-35.666 -23 -60.999 -23c-12.667 0 -23.167 2 -31.5 6s-16 8.16699 -23 12.5l-20 12.5c-6.33301 4 -13.5 6 -21.5 6s-15.5 -2.33301 -22.5 -7
s-14.5 -13.667 -22.5 -27s-16.833 -32 -26.5 -56s-21.167 -55.333 -34.5 -94l-94 -274c17.333 -21.333 38 -40.333 62 -57s49 -28.667 75 -36c-48 -4.66699 -92.167 -13.334 -132.5 -26.001s-72.5 -28 -96.5 -46c-10 28 -20.5 55.833 -31.5 83.5l-32.5 80l-30.5 73
l-25.5 61.5l-144 344c-4.66699 12 -9 21.833 -13 29.5s-8.16699 14.667 -12.5 21s-9.33301 12.333 -15 18s-12.5 12.167 -20.5 19.5h245z" />
    <glyph glyph-name="izhitsacy" unicode="&#x475;" horiz-adv-x="657" 
d="M72 422c-5.33301 13.333 -14.6631 28.332 -27.9961 44.999s-27 29.667 -41 39h249c-7.33301 -5.33301 -15 -13.166 -23 -23.499s-12 -20.166 -12 -29.499c0 -8 0.833008 -15.833 2.5 -23.5s5.5 -18.834 11.5 -33.501l115 -275l79 217
c10.667 30 20.834 54.833 30.501 74.5s18.834 36.167 27.501 49.5c2.66699 4.66699 6.66699 10.167 12 16.5s12 12.5 20 18.5s17.667 11.167 29 15.5s24 6.5 38 6.5c18.667 0 34.5 -6 47.5 -18s19.5 -27.667 19.5 -47c0 -16 -5.83301 -31 -17.5 -45s-25.834 -21 -42.501 -21
s-30.834 5.83301 -42.501 17.5s-17.5 26.167 -17.5 43.5c0 1.33301 0.666992 5.33301 2 12c-6.66699 -8 -13.834 -18.667 -21.501 -32s-17.334 -34 -29.001 -62s-26.167 -65.5 -43.5 -112.5l-65 -182.5c5.33301 -15.333 14.166 -29.333 26.499 -42
s24.166 -22.667 35.499 -30c-34 0 -64.333 -3 -91 -9s-53 -13 -79 -21z" />
    <glyph glyph-name="Gheupturncy" unicode="&#x490;" horiz-adv-x="628" 
d="M224 97c0 -19.333 3.83398 -37.3291 11.501 -53.9961s20.167 -31 37.5 -43h-225c12 12.667 21.833 28.5 29.5 47.5s11.5 38.833 11.5 59.5v502c0 8.66699 -1.33301 17.667 -4 27s-6 18.166 -10 26.499s-8.16699 15.666 -12.5 21.999s-8.5 11.5 -12.5 15.5h263
c18 0 35.167 2.16699 51.5 6.5s31.666 10 45.999 17s27.5 14.5 39.5 22.5s22.667 16 32 24c25.333 20.667 51.333 36 78 46s50 15 70 15c9.33301 0 18 -1.66699 26 -5c-6 -8.66699 -12.833 -20.334 -20.5 -35.001s-15.334 -31.167 -23.001 -49.5s-14.667 -37.5 -21 -57.5
s-11.166 -39.667 -14.499 -59c-14.667 11.333 -32.167 19.166 -52.5 23.499s-42.5 6.5 -66.5 6.5h-234v-558z" />
    <glyph glyph-name="gheupturncy" unicode="&#x491;" horiz-adv-x="521" 
d="M199 107c0 -27.333 4.16602 -48.6689 12.499 -64.002s21.166 -29.666 38.499 -42.999h-235v4c14.667 7.33301 27 17.833 37 31.5s15 28.167 15 43.5v345c0 17.333 -3.83301 33.5 -11.5 48.5s-20.167 26.167 -37.5 33.5h247c26 0 49.333 5.66699 70 17
s38 22.666 52 33.999c18.667 15.333 37.5 26.5 56.5 33.5s35.833 10.5 50.5 10.5c3.33301 0 7.33301 -0.333008 12 -1s8.66699 -1.66699 12 -3c-4 -6 -9.16699 -14.667 -15.5 -26s-12.666 -24.166 -18.999 -38.499s-12.166 -29.166 -17.499 -44.499s-9 -30 -11 -44
c-12.667 8 -26 13.333 -40 16s-29.667 4 -47 4h-169v-357z" />
    <glyph glyph-name="endash" unicode="&#x2013;" horiz-adv-x="500" 
d="M489 346c-12.667 -22.667 -19 -48.333 -19 -77h-460c6.66699 12.667 11.5 25 14.5 37s4.5 25.333 4.5 40h460z" />
    <glyph glyph-name="emdash" unicode="&#x2014;" horiz-adv-x="1000" 
d="M989 346c-12.667 -22.667 -19 -48.333 -19 -77h-960c6.66699 12.667 11.5 25 14.5 37s4.5 25.333 4.5 40h960z" />
    <glyph glyph-name="quoteleft" unicode="&#x2018;" horiz-adv-x="211" 
d="M115 449c-14 0 -26.3311 3.33301 -36.998 10s-19.667 15.334 -27 26.001s-13 22 -17 34s-6 23.667 -6 35c0 19.333 3.16699 38.333 9.5 57s15.166 35.334 26.499 50.001s25 26.5 41 35.5s33.667 13.5 53 13.5c-4.66699 -8.66699 -10 -18 -16 -28s-9 -23.667 -9 -41
c0 -10.667 2.66699 -19.834 8 -27.501l17 -24c6 -8.33301 11.667 -17.833 17 -28.5s8 -24.667 8 -42c0 -10.667 -2.33301 -20.334 -7 -29.001s-10.5 -16 -17.5 -22s-14.333 -10.667 -22 -14s-14.834 -5 -21.501 -5z" />
    <glyph glyph-name="quoteright" unicode="&#x2019;" horiz-adv-x="211" 
d="M97 710c14 0 26.3311 -3.33496 36.998 -10.002s19.667 -15.167 27 -25.5s12.833 -21.5 16.5 -33.5s5.5 -23.333 5.5 -34c0 -19.333 -3.16699 -38.5 -9.5 -57.5s-15.166 -36 -26.499 -51s-25 -27 -41 -36s-33.333 -13.5 -52 -13.5l16 28.5c6 10.333 9 23.833 9 40.5
c0 10.667 -2.66699 19.834 -8 27.501l-17.5 24c-6.33301 8.33301 -12.166 17.833 -17.499 28.5s-8 24.667 -8 42c0 10.667 2.33301 20.334 7 29.001s10.5 16 17.5 22s14.5 10.667 22.5 14s15.333 5 22 5z" />
    <glyph glyph-name="quotesinglbase" unicode="&#x201a;" horiz-adv-x="211" 
d="M97 146c14 0 26.3311 -3.33496 36.998 -10.002s19.667 -15.167 27 -25.5s12.833 -21.5 16.5 -33.5s5.5 -23.333 5.5 -34c0 -19.333 -3.16699 -38.5 -9.5 -57.5s-15.166 -36 -26.499 -51s-25 -27 -41 -36s-33.333 -13.5 -52 -13.5l16 28.5c6 10.333 9 23.833 9 40.5
c0 10.667 -2.66699 19.834 -8 27.501l-17.5 24c-6.33301 8.33301 -12.166 17.833 -17.499 28.5s-8 24.667 -8 42c0 10.667 2.33301 20.334 7 29.001s10.5 16 17.5 22s14.5 10.667 22.5 14s15.333 5 22 5z" />
    <glyph glyph-name="quotedblleft" unicode="&#x201c;" horiz-adv-x="403" 
d="M115 447c-14 0 -26.3311 3.33301 -36.998 10s-19.667 15.334 -27 26.001s-13 22 -17 34s-6 23.667 -6 35c0 19.333 3.16699 38.333 9.5 57s15.166 35.334 26.499 50.001s25 26.5 41 35.5s33.667 13.5 53 13.5c-4.66699 -8.66699 -10 -18 -16 -28s-9 -23.667 -9 -41
c0 -10.667 2.66699 -19.834 8 -27.501l17.5 -24c6.33301 -8.33301 12.166 -17.833 17.499 -28.5s8 -24.667 8 -42c0 -10.667 -2.33301 -20.334 -7 -29.001s-10.5 -16 -17.5 -22s-14.5 -10.667 -22.5 -14s-15.333 -5 -22 -5zM306.002 455
c-14 0 -26.3291 3.33496 -36.9961 10.002s-19.834 15.167 -27.501 25.5s-13.334 21.5 -17.001 33.5s-5.5 23.667 -5.5 35c0 19.333 3.16699 38.333 9.5 57s15.166 35.5 26.499 50.5s25 27 41 36s33.667 13.5 53 13.5l-16 -28.5c-6 -10.333 -9 -23.833 -9 -40.5
c0 -10.667 2.66699 -19.834 8 -27.501l17.5 -24c6.33301 -8.33301 12.166 -17.833 17.499 -28.5s8 -24.667 8 -42c0 -10.667 -2.33301 -20.334 -7 -29.001s-10.5 -16 -17.5 -22s-14.5 -10.667 -22.5 -14s-15.333 -5 -22 -5z" />
    <glyph glyph-name="quotedblright" unicode="&#x201d;" horiz-adv-x="403" 
d="M288 716c14 0 26.3311 -3.33301 36.998 -10s19.667 -15.334 27 -26.001s13 -22.167 17 -34.5s6 -23.833 6 -34.5c0 -19.333 -3.16699 -38.333 -9.5 -57s-15.166 -35.334 -26.499 -50.001s-25 -26.5 -41 -35.5s-33.667 -13.5 -53 -13.5c4.66699 8.66699 10 18 16 28
s9 23.667 9 41c0 10.667 -2.66699 19.834 -8 27.501l-17.5 24c-6.33301 8.33301 -12.166 17.833 -17.499 28.5s-8 24.667 -8 42c0 10.667 2.33301 20.334 7 29.001s10.5 16 17.5 22s14.5 10.667 22.5 14s15.333 5 22 5zM96.998 708c14 0 26.3291 -3.33594 36.9961 -10.0029
s19.834 -15.167 27.501 -25.5s13.334 -21.666 17.001 -33.999s5.5 -23.833 5.5 -34.5c0 -19.333 -3.16699 -38.333 -9.5 -57s-15.166 -35.5 -26.499 -50.5s-25 -27 -41 -36s-33.667 -13.5 -53 -13.5l16 28.5c6 10.333 9 23.833 9 40.5c0 10.667 -2.66699 19.834 -8 27.501
l-17.5 24c-6.33301 8.33301 -12.166 17.833 -17.499 28.5s-8 24.667 -8 42c0 10.667 2.33301 20.334 7 29.001s10.5 16 17.5 22s14.5 10.667 22.5 14s15.333 5 22 5z" />
    <glyph glyph-name="quotedblbase" unicode="&#x201e;" horiz-adv-x="403" 
d="M288 152c14 0 26.3311 -3.33301 36.998 -10s19.667 -15.334 27 -26.001s13 -22.167 17 -34.5s6 -23.833 6 -34.5c0 -19.333 -3.16699 -38.333 -9.5 -57s-15.166 -35.334 -26.499 -50.001s-25 -26.5 -41 -35.5s-33.667 -13.5 -53 -13.5c4.66699 8.66699 10 18 16 28
s9 23.667 9 41c0 10.667 -2.66699 19.834 -8 27.501l-17.5 24c-6.33301 8.33301 -12.166 17.833 -17.499 28.5s-8 24.667 -8 42c0 10.667 2.33301 20.334 7 29.001s10.5 16 17.5 22s14.5 10.667 22.5 14s15.333 5 22 5zM96.998 144c14 0 26.3291 -3.33594 36.9961 -10.0029
s19.834 -15.167 27.501 -25.5s13.334 -21.666 17.001 -33.999s5.5 -23.833 5.5 -34.5c0 -19.333 -3.16699 -38.333 -9.5 -57s-15.166 -35.5 -26.499 -50.5s-25 -27 -41 -36s-33.667 -13.5 -53 -13.5l16 28.5c6 10.333 9 23.833 9 40.5c0 10.667 -2.66699 19.834 -8 27.501
l-17.5 24c-6.33301 8.33301 -12.166 17.833 -17.499 28.5s-8 24.667 -8 42c0 10.667 2.33301 20.334 7 29.001s10.5 16 17.5 22s14.5 10.667 22.5 14s15.333 5 22 5z" />
    <glyph glyph-name="dagger" unicode="&#x2020;" horiz-adv-x="543" 
d="M190 476c-14 0 -27.1641 -1.66406 -39.4971 -4.99707s-24.5 -8.33301 -36.5 -15s-24.167 -14.834 -36.5 -24.501s-25.833 -20.834 -40.5 -33.501l-9 9c10 22 18.667 47.5 26 76.5s12.333 59.5 15 91.5c6.66699 -8 13.5 -14.667 20.5 -20s16 -9.66602 27 -12.999
s25 -5.83301 42 -7.5s38.5 -2.5 64.5 -2.5c0 16 -0.666992 30.833 -2 44.5s-3.5 26.5 -6.5 38.5s-7 23.833 -12 35.5s-10.833 23.834 -17.5 36.501c3.33301 6 8.33301 12.333 15 19s14 13 22 19s16.333 11 25 15s16.667 6.33301 24 7c8 -0.666992 16.667 -3 26 -7
s18 -9 26 -15s15.333 -12.333 22 -19s11.667 -13 15 -19c-7.33301 -12.667 -13.333 -24.834 -18 -36.501s-8.5 -23.5 -11.5 -35.5s-5.16699 -24.833 -6.5 -38.5s-2 -28.5 -2 -44.5c25.333 0 46.333 0.833008 63 2.5s30.5 4.16699 41.5 7.5s20 7.66602 27 12.999
s13.833 12 20.5 20c2 -32 6.66699 -62.5 14 -91.5s16.333 -54.5 27 -76.5l-10 -9c-28.667 25.333 -54.167 44.666 -76.5 57.999s-47.5 20 -75.5 20h-31c0 -24 0.5 -45.333 1.5 -64s2.66699 -35.834 5 -51.501s5.5 -30.5 9.5 -44.5s9 -28 15 -42
c-2.66699 -56.667 -10.834 -120 -24.501 -190s-32.834 -138.333 -57.501 -205c-12 32.667 -22.5 66.334 -31.5 101.001s-16.833 69.167 -23.5 103.5s-11.834 67.666 -15.501 99.999s-6.16699 62.5 -7.5 90.5c5.33301 14 10 28 14 42s7.16699 28.833 9.5 44.5
s4 32.834 5 51.501s1.5 40 1.5 64h-33z" />
    <glyph glyph-name="daggerdbl" unicode="&#x2021;" horiz-adv-x="543" 
d="M505 398c-28.667 25.333 -54.167 44.6719 -76.5 58.0049s-47.5 20 -75.5 20h-33c0 -11.333 0.333008 -24 1 -38s2.16699 -28.167 4.5 -42.5s5.33301 -28.666 9 -42.999s8.5 -27.166 14.5 -38.499c-6 -12 -10.833 -25 -14.5 -39s-6.66699 -28.333 -9 -43
s-3.83301 -29 -4.5 -43s-1 -26.667 -1 -38h33c28 0 53.167 6.66699 75.5 20s47.833 32.666 76.5 57.999l10 -9c-10.667 -22 -19.667 -47.5 -27 -76.5s-12 -59.5 -14 -91.5c-6.66699 8 -13.5 14.667 -20.5 20s-16.167 9.66602 -27.5 12.999s-25.333 5.83301 -42 7.5
s-38 2.5 -64 2.5c0 -16 0.666992 -30.833 2 -44.5s3.5 -26.5 6.5 -38.5s6.83301 -23.833 11.5 -35.5s10.667 -23.834 18 -36.501c-3.33301 -6 -8.16602 -12.333 -14.499 -19s-13.5 -12.834 -21.5 -18.501s-16.5 -10.667 -25.5 -15s-17.5 -6.83301 -25.5 -7.5
c-7.33301 0.666992 -15.333 3.16699 -24 7.5s-17 9.33301 -25 15s-15.333 11.834 -22 18.501s-11.667 13 -15 19c6.66699 12.667 12.5 24.834 17.5 36.501s9 23.5 12 35.5s5.16699 24.833 6.5 38.5s2 28.5 2 44.5c-26 0 -47.5 -0.833008 -64.5 -2.5s-31 -4.16699 -42 -7.5
s-20 -7.66602 -27 -12.999s-13.833 -12 -20.5 -20c-2.66699 32 -7.66699 62.5 -15 91.5s-16 54.5 -26 76.5l9 9c14.667 -12.667 28.167 -23.834 40.5 -33.501s24.5 -17.834 36.5 -24.501s24.167 -11.667 36.5 -15s25.5 -5 39.5 -5h33c0 11.333 -0.333008 24 -1 38
s-2 28.333 -4 43s-4.66699 29 -8 43s-7.66602 27 -12.999 39c5.33301 11.333 9.66602 24.166 12.999 38.499s6 28.666 8 42.999s3.33301 28.5 4 42.5s1 26.667 1 38h-33c-14 0 -27.167 -1.66699 -39.5 -5s-24.5 -8.33301 -36.5 -15s-24.167 -14.834 -36.5 -24.501
s-25.833 -20.834 -40.5 -33.501l-9 9c10 22 18.667 47.5 26 76.5s12.333 59.5 15 91.5c6.66699 -8 13.5 -14.667 20.5 -20s16 -9.66602 27 -12.999s25 -5.83301 42 -7.5s38.5 -2.5 64.5 -2.5c0 16 -0.666992 30.833 -2 44.5s-3.5 26.5 -6.5 38.5s-7 23.833 -12 35.5
s-10.833 23.834 -17.5 36.501c3.33301 6 8.33301 12.333 15 19s14 13 22 19s16.333 11 25 15s16.667 6.33301 24 7c8 -0.666992 16.5 -3 25.5 -7s17.5 -9 25.5 -15s15.167 -12.333 21.5 -19s11.166 -13 14.499 -19c-7.33301 -12.667 -13.333 -24.834 -18 -36.501
s-8.5 -23.5 -11.5 -35.5s-5.16699 -24.833 -6.5 -38.5s-2 -28.5 -2 -44.5c26 0 47.333 0.833008 64 2.5s30.667 4.16699 42 7.5s20.5 7.66602 27.5 12.999s13.833 12 20.5 20c2 -32 6.66699 -62.5 14 -91.5s16.333 -54.5 27 -76.5z" />
    <glyph glyph-name="bullet" unicode="&#x2022;" horiz-adv-x="359" 
d="M56 354c0 16.667 3.16699 32.667 9.5 48s15.166 28.5 26.499 39.5s24.333 19.833 39 26.5s30.667 10 48 10c16.667 0 32.667 -3.33301 48 -10s28.5 -15.5 39.5 -26.5s19.833 -24.167 26.5 -39.5s10 -31.333 10 -48c0 -17.333 -3.33301 -33.333 -10 -48
s-15.5 -27.667 -26.5 -39s-24.167 -20.166 -39.5 -26.499s-31.333 -9.5 -48 -9.5c-17.333 0 -33.333 3.16699 -48 9.5s-27.667 15.166 -39 26.499s-20.166 24.333 -26.499 39s-9.5 30.667 -9.5 48z" />
    <glyph glyph-name="ellipsis" unicode="&#x2026;" horiz-adv-x="828" 
d="M334 73c0 23.333 8 43.333 24 60s35.667 25 59 25s43.166 -8.33301 59.499 -25s24.5 -36.667 24.5 -60c0 -24 -8.16699 -44.167 -24.5 -60.5s-36.166 -24.5 -59.499 -24.5s-43 8.16699 -59 24.5s-24 36.5 -24 60.5zM598 73c0 23.333 8 43.333 24 60s35.667 25 59 25
s43.166 -8.33301 59.499 -25s24.5 -36.667 24.5 -60c0 -24 -8.16699 -44.167 -24.5 -60.5s-36.166 -24.5 -59.499 -24.5s-43 8.16699 -59 24.5s-24 36.5 -24 60.5zM69 73c0 23.333 8 43.333 24 60s35.667 25 59 25s43.166 -8.33301 59.499 -25s24.5 -36.667 24.5 -60
c0 -24 -8.16699 -44.167 -24.5 -60.5s-36.166 -24.5 -59.499 -24.5s-43 8.16699 -59 24.5s-24 36.5 -24 60.5z" />
    <glyph glyph-name="perthousand" unicode="&#x2030;" horiz-adv-x="921" 
d="M757 391c20 0 38.8369 -4.16797 56.5039 -12.501s33 -19.833 46 -34.5s23.333 -32 31 -52s11.5 -41.333 11.5 -64s-3.83301 -44 -11.5 -64s-18 -37.5 -31 -52.5s-28.333 -26.833 -46 -35.5s-36.5 -13 -56.5 -13s-38.833 4.33301 -56.5 13s-33 20.5 -46 35.5
s-23.333 32.5 -31 52.5s-11.5 41.333 -11.5 64c0 12 0.666992 23.167 2 33.5s4.66602 21.166 9.99902 32.499c0 4 -2 6 -6 6h-32c-4 0 -6 -2 -6 -6c8.66699 -20 13 -42 13 -66c0 -22.667 -3.66699 -44 -11 -64s-17.5 -37.5 -30.5 -52.5s-28.333 -26.833 -46 -35.5
s-36.5 -13 -56.5 -13s-38.833 4.33301 -56.5 13s-33 20.5 -46 35.5s-23.333 32.5 -31 52.5s-11.5 41.333 -11.5 64v17c0 4 -1.5 7.83301 -4.5 11.5s-6.5 5.5 -10.5 5.5c-3.33301 0 -6.33301 -2.33301 -9 -7l-102 -255h-37l151 379c0 3.33301 -3 5 -9 5
c-13.333 -21.333 -30.333 -38.666 -51 -51.999s-43.334 -20 -68.001 -20c-20 0 -38.667 4.33301 -56 13s-32.5 20.5 -45.5 35.5s-23.333 32.5 -31 52.5s-11.5 41.333 -11.5 64s3.83301 43.834 11.5 63.501s18 36.834 31 51.501s28.167 26.167 45.5 34.5s36 12.5 56 12.5
c36.667 0 66.667 -11.667 90 -35c3.33301 -3.33301 10.333 -5 21 -5c10 0 22.167 2.33301 36.5 7s28.666 11.5 42.999 20.5s27.5 19.667 39.5 32s21 26.166 27 41.499h37l-145 -362l-1 -5c0 -3.33301 1.5 -6.33301 4.5 -9s6.16699 -4 9.5 -4c2 0 3.66699 1 5 3
c13.333 20.667 30.166 37.167 50.499 49.5s42.833 18.5 67.5 18.5c21.333 0 41.5 -5 60.5 -15s35.167 -23.667 48.5 -41c4 -5.33301 10.167 -9.33301 18.5 -12s17.166 -4 26.499 -4c20.667 0 36.334 6.33301 47.001 19c14 16 30 28.833 48 38.5s37.667 14.5 59 14.5z
M308.004 476.999c0 -4.66699 -0.166992 -9.16895 -0.5 -13.502s-0.833008 -8.16602 -1.5 -11.499c0 -1.33301 1.5 -2.66602 4.5 -3.99902s5.83301 -2 8.5 -2l69 176c-7.33301 -8 -16 -15 -26 -21s-20 -11 -30 -15s-19.167 -7.16699 -27.5 -9.5s-14.833 -3.5 -19.5 -3.5h-6
c19.333 -27.333 29 -59.333 29 -96zM215.004 558.997c0 17.333 -4.83301 31.666 -14.5 42.999s-21.834 17 -36.501 17s-26.834 -5.66699 -36.501 -17s-14.5 -25.666 -14.5 -42.999v-166c0 -17.333 4.83301 -31.666 14.5 -42.999s21.834 -17 36.501 -17
s26.834 5.66699 36.501 17s14.5 25.666 14.5 42.999v166zM500.004 309.997c0 17.333 -4.83301 31.666 -14.5 42.999s-21.834 17 -36.501 17s-27 -5.66699 -37 -17s-15 -25.666 -15 -42.999v-166c0 -17.333 5 -31.5 15 -42.5s22.333 -16.5 37 -16.5s26.834 5.5 36.501 16.5
s14.5 25.167 14.5 42.5v166zM808.004 310.997c0 17.333 -4.83105 31.5 -14.498 42.5s-21.834 16.5 -36.501 16.5s-26.834 -5.5 -36.501 -16.5s-14.5 -25.167 -14.5 -42.5v-167c0 -17.333 4.66699 -31.5 14 -42.5s21.666 -16.5 36.999 -16.5c14.667 0 26.834 5.5 36.501 16.5
s14.5 25.167 14.5 42.5v167z" />
    <glyph glyph-name="guilsinglleft" unicode="&#x2039;" horiz-adv-x="338" 
d="M20 344l264 228l34 -63l-201 -184l201 -184l-34 -63l-264 226v40z" />
    <glyph glyph-name="guilsinglright" unicode="&#x203a;" horiz-adv-x="338" 
d="M318 304l-263 -226l-35 63l202 184l-202 184l35 63l263 -228v-40z" />
    <glyph glyph-name="euro" unicode="&#x20ac;" horiz-adv-x="733" 
d="M206 379c0.666992 -22 3.66406 -42.9951 8.99707 -62.9951h308c-6 -11.333 -10.167 -21.333 -12.5 -30s-3.5 -17.667 -3.5 -27h-275c20.667 -50.667 51.5 -91.334 92.5 -122.001s89.833 -46 146.5 -46c18 0 36.5 1.33301 55.5 4s38.167 7.66699 57.5 15
s38.5 17.166 57.5 29.499s37.5 28.5 55.5 48.5c-6 -28.667 -16.667 -55.5 -32 -80.5s-34.833 -47 -58.5 -66s-51.334 -34 -83.001 -45s-66.5 -16.5 -104.5 -16.5c-36 0 -71.667 4.83301 -107 14.5s-67.833 25.5 -97.5 47.5s-55.5 50.833 -77.5 86.5
s-37.333 79.167 -46 130.5h-73c6.66699 12.667 11 23 13 31s3 16.667 3 26h51c0 6 -0.166992 12.167 -0.5 18.5s-0.5 12.833 -0.5 19.5v25h-66c6.66699 12.667 11 23 13 31s3 16.667 3 26h58c6.66699 36 17.834 71.167 33.501 105.5s35.834 64.666 60.501 90.999
s53.834 47.5 87.501 63.5s71.834 24 114.501 24c23.333 0 42.5 -1.83301 57.5 -5.5s28.167 -7.66699 39.5 -12l32.5 -12c10.333 -3.66699 22.166 -5.5 35.499 -5.5c12.667 0 24.167 2 34.5 6s20.5 9.66699 30.5 17c11.333 -36.667 26 -70.5 44 -101.5
s35.333 -54.833 52 -71.5c-7.33301 -3.33301 -15.833 -5.5 -25.5 -6.5s-17.5 -1.5 -23.5 -1.5c-22 0 -41.167 3.66699 -57.5 11s-31.166 16.666 -44.499 27.999s-25.833 23.333 -37.5 36s-24.167 24.667 -37.5 36s-28 20.666 -44 27.999s-35 11 -57 11
c-30 0 -56 -6.33301 -78 -19s-40.333 -30 -55 -52s-26 -47.667 -34 -77s-13 -60.333 -15 -93h403c-6 -11.333 -10.167 -21.333 -12.5 -30s-3.5 -17.667 -3.5 -27h-386z" />
    <glyph glyph-name="numero" unicode="&#x2116;" horiz-adv-x="1104" 
d="M230 466l-41.002 65.4971c-12 18.333 -24.333 35.166 -37 50.499v-269c0 -44 1.83301 -82.833 5.5 -116.5s8.83398 -63 15.501 -88s14.334 -46.333 23.001 -64s17.667 -32.5 27 -44.5h-187c11.333 14.667 21.333 31.334 30 50.001s16 40.334 22 65.001s10.667 53 14 85
s5 69.333 5 112v319c-5.33301 6.66699 -11.833 13.5 -19.5 20.5s-15.5 13.667 -23.5 20s-16 12 -24 17s-14.667 8.83301 -20 11.5h290c-8 -8 -13.333 -16 -16 -24s-4 -16.667 -4 -26c0 -26.667 8.33301 -54.334 25 -83.001l224 -395v82
c0 42.667 -0.166992 77.834 -0.5 105.501s-1.16602 52 -2.49902 73s-3.5 40.833 -6.5 59.5s-7.16699 40.667 -12.5 66c-5.33301 28 -12.5 54.167 -21.5 78.5s-19.833 45.5 -32.5 63.5h192c-19.333 -24.667 -33.5 -50.167 -42.5 -76.5s-16.167 -55.833 -21.5 -88.5
c-3.33301 -19.333 -6.33301 -42.833 -9 -70.5s-4.66699 -55.5 -6 -83.5c-0.666992 -16 -1.33398 -34.667 -2.00098 -56s-1.16699 -43.5 -1.5 -66.5s-0.5 -45.667 -0.5 -68v-61.5c4 -5.33301 10.167 -12 18.5 -20l26.5 -24.5c9.33301 -8.33301 18.833 -16.166 28.5 -23.499
s17.834 -12.666 24.501 -15.999c-11.333 -4 -23.833 -9.33301 -37.5 -16s-27.334 -14 -41.001 -22s-26.5 -16.333 -38.5 -25s-22 -17 -30 -25zM697.998 436.997c0 28.667 4.66797 54.168 14.001 76.501s22 41.166 38 56.499s34.333 27 55 35s42.334 12 65.001 12
c22 0 43.333 -4 64 -12s38.667 -19.5 54 -34.5s27.666 -33.667 36.999 -56s14 -47.5 14 -75.5c0 -25.333 -4.66699 -48.333 -14 -69s-21.833 -38.167 -37.5 -52.5s-33.667 -25.5 -54 -33.5s-41.5 -12 -63.5 -12c-22.667 0 -44.334 3.66699 -65.001 11s-39 18 -55 32
s-28.667 31.333 -38 52s-14 44 -14 70zM810.999 373.998c0 -14 1.83398 -25.835 5.50098 -35.502s8.16699 -17.167 13.5 -22.5s11.5 -9.16602 18.5 -11.499s14.167 -3.5 21.5 -3.5c13.333 0 26.166 5.16699 38.499 15.5s18.5 29.5 18.5 57.5v32
c0 15.333 -0.166992 31.333 -0.5 48s-0.5 31.834 -0.5 45.501v24.5c0 17.333 -4.5 31.666 -13.5 42.999s-23.167 17 -42.5 17c-18 0 -32.333 -5.66699 -43 -17s-16 -25.666 -16 -42.999v-150zM1037 222.996c-12.667 -22.667 -19 -48.333 -19 -77h-315
c6.66699 12.667 11.5 25 14.5 37s4.5 25.333 4.5 40h315z" />
    <glyph glyph-name="trademark" unicode="&#x2122;" horiz-adv-x="747" 
d="M246 699c15.333 0 28.8281 1.66602 40.4951 4.99902s21.167 7.66602 28.5 12.999c0.666992 -6.66699 2.16699 -14.5 4.5 -23.5s4.83301 -18 7.5 -27s5.66699 -17.667 9 -26s6.33301 -15.166 9 -20.499c-2 -2 -5.66699 -3 -11 -3c-9.33301 0 -20.333 2.33301 -33 7
s-22.667 11.667 -30 21c-9.33301 10.667 -18.166 18 -26.499 22s-15.5 6 -21.5 6v-263c0 -7.33301 1.5 -15.5 4.5 -24.5s8.16699 -16.167 15.5 -21.5h-129c18 12.667 27 28 27 46v263c-10 0 -20 -3.5 -30 -10.5s-20.333 -15.5 -31 -25.5
c-8 -7.33301 -17.667 -12.5 -29 -15.5s-20.666 -4.5 -27.999 -4.5c-2 0 -3.66699 0.333008 -5 1l-4 2c4 6 7.83301 13.167 11.5 21.5l11 26c3.66699 9 6.83398 17.833 9.50098 26.5l7 23c4.66699 -3.33301 12.334 -7.16602 23.001 -11.499s23.334 -6.5 38.001 -6.5h132z
M485.995 699.999c-10 -9.33301 -14.999 -20.334 -14.999 -33.001c0 -6 1 -12 3 -18l46 -124l50 158c-2 6.66699 -7.33301 12.334 -16 17.001h137c-9.33301 -4 -15.833 -9.66699 -19.5 -17s-5.5 -15.333 -5.5 -24c0 -5.33301 0.166992 -11.5 0.5 -18.5
s1.16602 -13.167 2.49902 -18.5l24 -170c3.33301 -23.333 7.16602 -41.5 11.499 -54.5s12.166 -23.833 23.499 -32.5h-129c12.667 10.667 19 24.334 19 41.001c0 7.33301 -0.333008 12 -1 14l-29 209l-76 -256l-105 260l-12 -97
c-1.33301 -7.33301 -2.66602 -18.333 -3.99902 -33s-2 -29.334 -2 -44.001c0 -13.333 2.16699 -29.5 6.5 -48.5s10.833 -34.167 19.5 -45.5h-105l12.5 25.5c4.33301 9 8.83301 20 13.5 33s9.16699 28.833 13.5 47.5s8.5 42 12.5 70l18 127
c-7.33301 10 -17.666 20.667 -30.999 32h137z" />
    </font>
</defs>
</svg>
